<?xml version="1.0" encoding="utf-8"?>
<!-- Generator: Adobe Illustrator 16.0.0, SVG Export Plug-In . SVG Version: 6.00 Build 0)  -->
<!DOCTYPE svg PUBLIC "-//W3C//DTD SVG 1.1//EN" "http://www.w3.org/Graphics/SVG/1.1/DTD/svg11.dtd">
<svg version="1.1" id="Layer_1" xmlns="http://www.w3.org/2000/svg" xmlns:xlink="http://www.w3.org/1999/xlink" x="0px" y="0px"
	 width="346.333px" height="253px" viewBox="0 0 346.333 253" enable-background="new 0 0 346.333 253" xml:space="preserve">
<g>
	<g>
		<path fill="#808B20" stroke="#808B20" stroke-width="3.6658" stroke-miterlimit="10" d="M136.915,182.839
			c0.709,24.218,0.939,45.868,1.063,47.42c0.435,5.508,2.741,10.304,5.09,11.87c6.785,4.523,24.135,4.523,24.135,4.523
			s17.358,0,24.136-4.523c2.358-1.566,4.621-5.742,5.092-11.87c0.114-1.558,0.358-23.378,1.068-47.703
			c-4.32,1.601-15.28,4.735-30.013,4.735C152.079,187.291,140.859,184.211,136.915,182.839z"/>
		<path fill="#FFFFFF" stroke="#808B20" stroke-width="1.9753" stroke-miterlimit="10" d="M177.988,8.41c0,0,0.619-1.196-1.82-2.415
			c-2.438-1.219-8.838-1.219-8.838-1.219s-6.391,0-8.839,1.219c-2.428,1.219-1.809,2.415-1.809,2.415l-3.667-0.628v9.749
			l3.676,1.209v30.126h21.288V18.739l3.669-1.209V7.782L177.988,8.41z"/>
		<path fill="#808B20" stroke="#808B20" stroke-width="3.6833" stroke-miterlimit="10" d="M177.171,61.673
			c0,0-0.451,4.363,1.755,6.251c3.48,2.977,14.258,10.222,17.66,18.747c3.408,8.524,2.273,17.043,2.273,27.27
			c0,1.78-0.088,6.366-0.232,12.734c-6.324,0.58-23.162,2.034-32.721,2.034c-10.469,0-26.191-1.75-29.877-2.18
			c-0.144-6.295-0.227-10.818-0.227-12.589c0-10.227-1.137-18.745,2.265-27.27c3.412-8.525,13.568-15.769,17.049-18.747
			c2.207-1.888,2.375-6.251,2.375-6.251V47.191c0,0,9.839,2.044,19.68,0V61.673z"/>
		<path fill="#FFFFFF" stroke="#808B20" stroke-width="1.8745" stroke-miterlimit="10" d="M165.843,128.919
			c-10.756,0-26.906-1.764-30.694-2.198c0.321,13.734,0.302,35.812,0.908,56.121c4.071,1.391,15.633,4.512,31.538,4.512
			c15.208,0,26.501-3.176,30.961-4.798c0.606-20.163,0.579-42.017,0.901-55.688C192.96,127.453,175.663,128.919,165.843,128.919z"/>
		<g>
			<path fill="#808B20" d="M149.527,166.661c1.712,0,2.817-1.185,3.824-2.261c-0.303-0.969-0.402-2.152-0.402-3.474
				c0-6.646,3.016-13.644,6.233-13.644c0.906,0,1.534,0.404,1.534,1.99c0,2.908-1.911,8.64-4.902,13.001
				c0.302,2.88,1.836,4.063,3.796,4.063c2.288,0,3.972-2.853,5.154-5.867c2.313-5.975,2.339-13.349,0.051-15.826l0.377-0.402
				c2.741,2.933,2.238,10.873,0.102,16.471c-1.911,4.925-4.425,7.268-7.667,7.268c-1.636,0-2.868-0.701-3.646-2.125
				c-0.153-0.27-0.278-0.486-0.429-0.809c-1.557,1.722-3.319,2.934-5.882,2.934c-2.993,0-4.123-2.585-4.123-5.141
				c0-7.428,4.65-12.865,6.034-14.347c-0.705,0-1.41-0.08-2.163-0.188c-0.93-0.054-1.912-0.161-2.992-0.161
				c-4.701,0-4.876,2.71-4.458,7.133c0.447,4.732,1.732,5.41,1.758,5.436l-0.078,0.564c-0.025,0-2.232-0.914-2.232-6
				c0-4.738,0.031-7.727,5.01-7.727c1.105,0,2.086,0.082,3.042,0.217c2.264,0.188,4.022,0.377,6.161-0.861l0.275,0.482
				c-1.257,0.782-2.439,1.051-3.596,1.104c-2.037,2.1-3.77,7.563-3.77,13.404C146.537,165.746,148.246,166.661,149.527,166.661z
				 M155.739,161.545c0.25-0.376,0.452-0.725,0.653-1.075c2.212-3.688,3.747-8.345,3.747-10.982c0-0.968-0.301-1.398-0.957-1.398
				c-0.274,0-0.552,0.079-0.83,0.216c-0.828,0.859-2.613,3.82-2.613,12.838V161.545z"/>
			<path fill="#808B20" d="M170.422,165.783c0.502-0.055,0.932-0.322,1.256-0.754l0.378,0.322c-0.478,0.619-1.132,0.97-1.885,0.97
				c-1.559,0-2.414-0.941-2.414-2.234c0-0.835,0.225-1.804,0.401-2.935l0.83-4.816h-1.057l0.051-0.484h1.082
				c1.936,0,3.093-0.242,3.093-0.242L170.422,165.783z M171.126,149.688c1.003,0,1.835,0.889,1.835,1.965s-0.832,1.939-1.835,1.939
				c-1.007,0-1.811-0.863-1.811-1.939S170.119,149.688,171.126,149.688z"/>
			<path fill="#808B20" d="M183.22,165.498c0.653,0,1.258-0.754,1.258-0.754l0.375,0.323c0,0-0.477,0.97-2.111,0.97
				c-1.508,0-2.289-0.781-2.289-2.207c0-1.832,0.906-4.954,0.906-6.54c0-0.862-0.353-1.159-1.032-1.159
				c-1.105,0-2.187,1.67-2.866,4.334l-0.854,5.033c0.502-0.055,0.954-0.322,1.283-0.754l0.375,0.323
				c-0.476,0.619-1.13,0.97-1.884,0.97c-1.558,0-2.413-0.941-2.413-2.234c0-0.834,0.225-1.83,0.402-2.961l0.83-4.979
				c-0.504,0.053-0.931,0.322-1.258,0.754l-0.376-0.324c0.477-0.619,1.13-0.969,1.884-0.969c1.558,0,2.413,0.861,2.413,2.369v0.16
				c0.579-1.426,1.484-2.529,3.218-2.529c1.961,0,3.143,1.266,3.143,3.391C184.225,160.412,183.321,163.184,183.22,165.498z"/>
			<path fill="#808B20" d="M194.661,156.762c0,2.287-2.137,3.445-5.758,3.473c-0.023,0.482-0.049,0.994-0.049,1.531
				c0,1.725,0.854,2.371,1.833,2.371c2.665,0,3.57-3.122,3.57-3.149l0.451,0.214c0,0-0.676,3.553-4.574,3.553
				c-2.766,0-4.123-1.535-4.123-3.876c0-4.331,2.188-6.835,5.455-6.835C193.757,154.043,194.661,155.12,194.661,156.762z
				 M188.98,159.615c3.744-0.028,5.053-1.159,5.053-2.854c0-1.157-0.654-2.046-1.835-2.046
				C190.89,154.716,189.406,156.17,188.98,159.615z"/>
		</g>
	</g>
	<path fill="#FFFFFF" stroke="#808B20" stroke-width="1.9267" stroke-miterlimit="10" d="M133.283,96.948
		c1.461,4.988,7.363,24.054,7.658,37.255c0.298,13.202-2.712,19.313-6.157,24.65c-6.457,9.967-19.071,11.439-19.071,11.439
		l-0.295,1.761l-0.587,0.876c0,0-0.587,57.203-0.291,58.674c0.291,1.467,1.472,2.348,3.812,3.225
		c2.347,0.883,20.832,8.51,20.832,8.51v2.64c0,0-10.023,2.896-28.241,2.573c-18.208-0.324-28.147-2.573-28.147-2.573v-2.64
		c0,0,18.481-7.627,20.831-8.51c2.346-0.877,3.521-1.758,3.819-3.225c0.289-1.471-0.298-58.674-0.298-58.674l-0.589-0.876
		l-0.287-1.761c0,0-12.615-1.473-19.07-11.439c-3.446-5.337-6.457-11.448-6.167-24.65c0.296-13.201,5.58-32.268,7.042-37.255
		C88.078,96.948,108.368,100.701,133.283,96.948z"/>
	<path fill="#808B20" stroke="#808B20" stroke-width="3.7142" stroke-miterlimit="10" d="M82.369,134.715h-0.096
		c-0.28,12.725,2.622,18.615,5.943,23.76c6.222,9.607,18.382,11.025,18.382,11.025h9.101c0,0,12.158-1.418,18.382-11.025
		c3.321-5.145,6.223-11.035,5.935-23.76C140.015,134.715,111.145,141.812,82.369,134.715z"/>
</g>
<path fill="#FFFFFF" stroke="#808B20" stroke-width="2.0382" stroke-miterlimit="10" d="M271.759,124.787
	c5.346,0.17,12.305,2.398,12.305,2.398c7.027,4.598,9.866,9.919,9.866,9.919c4.475,7.55,1.983,10.246,1.983,10.246
	c-6.071,5.473-25.631-2.69-25.631-2.69s-5.685-2.335-8.32-13.887"/>
<path fill="none" stroke="#808B20" stroke-width="1.9833" stroke-miterlimit="10" d="M239.191,136.956
	c0,0-14.831,26.14-9.358,106.724"/>
<path fill="none" stroke="#808B20" stroke-width="1.934" stroke-miterlimit="10" d="M219.835,96.648c0,0,18.93,70.447-5.236,144.018
	"/>
<path fill="none" stroke="#808B20" stroke-width="1.9007" stroke-miterlimit="10" d="M207.962,117.246
	c0,0,23.246,42.604,16.542,122.148"/>
<path fill="none" stroke="#808B20" stroke-width="1.934" stroke-miterlimit="10" d="M251.841,124.151
	c0,0-24.965,38.403-21.447,119.738"/>
<path fill="none" stroke="#808B20" stroke-width="1.9924" stroke-miterlimit="10" d="M208.597,148.935
	c0,0,20.312,27.126,11.736,94.442"/>
<path fill="none" stroke="#808B20" stroke-width="1.9924" stroke-miterlimit="10" d="M250.412,77.286
	c0,0-41.179,101.771-14.184,152.48"/>
<path fill="#FFFFFF" stroke="#808B20" stroke-width="2.0382" stroke-miterlimit="10" d="M249.668,138.989
	c0,0-4.768,7.948-14.677,8.441c0,0-6.307,0.052-11.76,2.286c0,0-8.619,3.119-5.947-2.639c0,0,1.759-4.515,6.938-7.301
	c0,0,3.294-1.668,3.054-6.228c0,0-0.409-4.192,4.938-4.948c0,0,2.204-0.07,2.461-2.067c0,0,1.134-4.727,7.232-3.626l8.765,7.531
	L249.668,138.989z"/>
<path fill="#FFFFFF" stroke="#808B20" stroke-width="2.0382" stroke-miterlimit="10" d="M248.795,124.054
	c0,0-5.363,14.563,3.668,27.657c0,0,5.26,6.802,8.511,16.316c0,0,2.133-8.086,6.174-12.301c0,0,12.21-12.801,1.485-24.791"/>
<path fill="#FFFFFF" stroke="#808B20" stroke-width="0.9171" stroke-miterlimit="10" d="M301.341,80.134
	c2.739-5.235-1.114-9.306-1.114-9.306c-5.485-5.27-12.959-1.986-12.959-1.986"/>
<path fill="#FFFFFF" stroke="#808B20" stroke-width="0.9171" stroke-miterlimit="10" d="M289.322,68.185
	c0,0-5.707-7.403-15.601,1.562c0,0-6.509,5.207-3.387,14.754c0,0,1.414,4.339,5.09,4.636"/>
<path fill="#FFFFFF" stroke="#808B20" stroke-width="0.9171" stroke-miterlimit="10" d="M277.407,89.345
	c0,0,0.675,10.202,7.791,9.303c0,0,3.848-0.628,5.285-5.394"/>
<path fill="#FFFFFF" stroke="#808B20" stroke-width="0.9171" stroke-miterlimit="10" d="M291.255,71.884
	c6.381,1.415,9.419,7.431,9.419,7.431c5.7,12.559-8.531,14.589-8.531,14.589s-5.316,0.92-8.271-2.607"/>
<path fill="#FFFFFF" stroke="#808B20" stroke-width="1.0395" stroke-miterlimit="10" d="M282.142,92.108
	c0,0-8.983,1.003-9.293-10.647c0,0,0.135-7.953,5.967-8.943"/>
<path fill="#FFFFFF" stroke="#808B20" stroke-width="1.0395" stroke-miterlimit="10" d="M278.749,79.934
	c0,0-2.838-12.161,7.547-13.041c0,0,9.556-0.133,10.527,11.281"/>
<path fill="#FFFFFF" stroke="#808B20" stroke-width="1.0395" stroke-miterlimit="10" d="M281.713,77.565
	c0,0-6.87,2.601-2.194,11.824c0,0,2.469,4.414,7.677,3.529c0,0,5.606-0.917,6.803-5.25"/>
<path fill="#FFFFFF" stroke="#808B20" stroke-width="1.0395" stroke-miterlimit="10" d="M288.885,88.229
	c0,0,8.715,1.253,9.263-6.396c0,0,0.198-5.041-6.298-7.257"/>
<path fill="#FFFFFF" stroke="#808B20" stroke-width="1.0395" stroke-miterlimit="10" d="M281.836,78.29c0,0-0.256-6.24,4.724-6.614
	c0,0,5.181-0.88,5.861,6.212"/>
<path fill="#FFFFFF" stroke="#808B20" stroke-width="1.0395" stroke-miterlimit="10" d="M287.857,83.844
	c4.124-2.105,0.305-4.953,0.305-4.953c-3.213-1.212-5.205,3.001-5.205,3.001c-1.277,3.501,0.526,5.682,0.526,5.682
	c2.302,3.213,5.705,0.438,5.705,0.438s9.461-7.837,0.419-11.787c0,0-9.805-2.864-6.65,5.667"/>
<path fill="#FFFFFF" stroke="#808B20" stroke-width="2.0382" stroke-miterlimit="10" d="M269.337,110.053
	c0,0,9.066-7.811,8.29-20.101c0,0-1.002-14.265-9.417-13.492c0,0-2.468,0.23-4,4.501c0,0-0.949,3.73-4.028,5.348
	c0,0-4.378,1.79-4.437,8.499c0,0,0.438,5.646-1.451,9.211l3.266,12.486L269.337,110.053z"/>
<path fill="#FFFFFF" stroke="#808B20" stroke-width="2.0382" stroke-miterlimit="10" d="M250.233,126.564l9.907-14.865
	c3.522-6.52,14.8-7.213,14.8-7.213c18.215-0.519,24.005,8.225,24.005,8.225c1.957,3.581-3.421,5.863-3.421,5.863
	c-2.783,1.59-5.243,3.973-5.243,3.973c-2.829,2.51-6.52,4.407-6.52,4.407s-13.1,6.741-23.051,2.869"/>
<path fill="#FFFFFF" stroke="#808B20" stroke-width="2.0382" stroke-miterlimit="10" d="M258.501,119.658
	c0,0,7.571-6.008,2.568-13.572c0,0-8.697-11.965-22.457-11.055c0,0-6.765,0.459-5.004,6.938c0,0,1.396,4.256,2.994,7.656
	c0,0,1.963,3.784,2.41,7.906c0,0,0.287,10.944,8.89,13.302"/>
<path fill="none" stroke="#808B20" stroke-width="0.3823" stroke-linecap="round" stroke-miterlimit="10" d="M254.095,126.602
	c0,0,17.688-0.234,23.084-7.146"/>
<path fill="none" stroke="#808B20" stroke-width="0.3823" stroke-linecap="round" stroke-miterlimit="10" d="M255.208,126.201
	c0,0,13.97-0.574,21.949-12.688"/>
<path fill="none" stroke="#808B20" stroke-width="0.3823" stroke-linecap="round" stroke-miterlimit="10" d="M254.134,126.213
	c0,0,13.813-2.176,20.347-15.125"/>
<path fill="#FFFFFF" stroke="#808B20" stroke-width="2.0382" stroke-miterlimit="10" d="M208.462,103.545
	c0,0-19.708-8.572-30.991,1.623c0,0-7.604,6.808-8.146,12.275c0,0-0.611,3.748,3.811,1.188c0,0,3.591-2.179,9.839,0.887
	c0,0,7.263,3.344,17.447-0.139"/>
<path fill="#FFFFFF" stroke="#808B20" stroke-width="2.0382" stroke-miterlimit="10" d="M208.931,137.584
	c4.392,5.406,7.879,4.086,7.879,4.086c1.823-0.68,4.37-0.461,4.37-0.461c2.692,0.331,2.698-4.992,2.698-4.992
	c-0.408-10.33,1.77-20.824,1.77-20.824c1.785-9.707-0.503-11.193-0.503-11.193c-4.048-3.999-7.891,2.914-7.891,2.914
	S215.041,111,210,107.277c0,0-6.359-4.686-11.585,3.131c0,0-2.831,4.024,0.473,10.856c0,0,1.044,2.071,2.204,4.029
	C201.092,125.294,206.88,135.061,208.931,137.584z"/>
<path fill="#FFFFFF" stroke="#808B20" stroke-width="2.0382" stroke-miterlimit="10" d="M221.996,33.636
	c0,0-5.926-12.473-17.365-17.669c0,0-6.994-3.417-10.232-7.779c0,0-2.991-3.944-3.201,2.6c0,0-0.378,14.564,7.783,27.517
	l17.294,9.069L221.996,33.636z"/>
<path fill="#FFFFFF" stroke="#808B20" stroke-width="2.0382" stroke-miterlimit="10" d="M214.915,45.037
	c0,0-8.689-11.25-20.801-5.002c0,0-4.612,3.27-8.903,4.383c0,0-4.967,0.903-8.143,3.648c0,0-4.607,3.907-8.521,11.028
	c0,0,17.351-6.754,38.591,1.232l14.544-8.073L214.915,45.037z"/>
<path fill="#FFFFFF" stroke="#808B20" stroke-width="2.0382" stroke-miterlimit="10" d="M236.07,38.996
	c0,0,12.469-9.592,32.111-1.595c0,0,13.207,5.704-4.094,8.959c0,0-20.018,11.398-34.38,7.255"/>
<path fill="#FFFFFF" stroke="#808B20" stroke-width="2.0382" stroke-miterlimit="10" d="M230.634,52.417
	c0,0,11.03-3.947,16.393,5.068c0,0,2.209,23.162-21.217,10.5l-7.232-15.831L230.634,52.417z"/>
<path fill="#FFFFFF" stroke="#808B20" stroke-width="2.0382" stroke-miterlimit="10" d="M218.257,55.789
	c0,0-8.73-11.252-1.758-24.459c0,0,4.893-9.671,14.055-14.456c0,0,3.498-1.853,5.238-5.072c0,0,3.225-6.121,6.793-2.404
	c0,0,4.283,4.314,0.903,22.946c0,0-2.673,17.041-14.759,20.831c0,0-4.777,1.158-6.653,3.555
	C222.077,56.729,220.442,59.218,218.257,55.789z"/>
<path fill="#FFFFFF" stroke="#808B20" stroke-width="2.0382" stroke-miterlimit="10" d="M217.764,54.309
	c0,0-11.351-2.543-15.887,8.981c0,0-2.13,6.565,1.495,11.716l22.375,27.615c0,0,11.194-37.025-3.435-46.786"/>
<path fill="#FFFFFF" stroke="#808B20" stroke-width="2.0382" stroke-miterlimit="10" d="M216.282,109.936
	c0,0-19.283-3.891-27.301-16.921c0,0-1.548-2.179-2.117-5.514c0,0-0.244-2.287-1.535-5.761c0,0-2.573-5.978-0.123-11.55
	c0,0,0.712-1.839,4.16-1.401c0,0,2.732,0.333,3.096-2.728c0,0,0.39-2.586,4.377-0.555c0,0,14.625,8.083,21.431,23.203
	C218.27,88.708,222.309,93.014,216.282,109.936z"/>
<path fill="#FFFFFF" stroke="#808B20" stroke-width="2.0382" stroke-miterlimit="10" d="M216.69,109.947
	c0,0-5.247-25.47,14.62-29.586c0,0,11.22-2.589,19.76,5.79c0,0,2.496,2.455,3.369,5.922c0,0-17.562-3.734-22.818,17.042
	c0,0-2.747,11.622-7.026,12.304C224.595,121.419,227.035,106.594,216.69,109.947z"/>
<path fill="none" stroke="#808B20" stroke-width="0.4911" stroke-linecap="round" stroke-miterlimit="10" d="M215.85,109.227
	c0,0-0.111-18.471-14.309-29.976"/>
<path fill="none" stroke="#808B20" stroke-width="0.477" stroke-linecap="round" stroke-miterlimit="10" d="M215.44,109.244
	c0,0-0.003-16.694-14.755-27.008"/>
<path fill="none" stroke="#808B20" stroke-width="0.4898" stroke-linecap="round" stroke-miterlimit="10" d="M215.808,109.645
	c0,0-2.448-17.429-18.575-26.217"/>
<path fill="none" stroke="#808B20" stroke-width="0.4194" stroke-linecap="round" stroke-miterlimit="10" d="M215.225,108.924
	c0,0-1.825-13.725-16.558-20.261"/>
<path fill="none" stroke="#808B20" stroke-width="0.4911" stroke-linecap="round" stroke-miterlimit="10" d="M221.315,55.765
	c0,0-1.767-18.386,11.188-31.275"/>
<path fill="none" stroke="#808B20" stroke-width="0.477" stroke-linecap="round" stroke-miterlimit="10" d="M221.725,55.741
	c0,0-1.693-16.608,11.932-28.368"/>
<path fill="none" stroke="#808B20" stroke-width="0.4898" stroke-linecap="round" stroke-miterlimit="10" d="M221.4,56.177
	c0,0,0.664-17.588,15.812-27.969"/>
<path fill="none" stroke="#808B20" stroke-width="0.4194" stroke-linecap="round" stroke-miterlimit="10" d="M221.906,55.401
	c0,0,0.418-13.84,14.411-21.84"/>
<path fill="#FFFFFF" stroke="#808B20" stroke-width="0.9822" stroke-miterlimit="10" d="M187.298,138.449
	c-3.988,4.909-0.81,10.003-0.81,10.003c4.633,6.698,13.179,4.843,13.179,4.843"/>
<path fill="#FFFFFF" stroke="#808B20" stroke-width="0.9822" stroke-miterlimit="10" d="M197.37,153.547
	c0,0,4.417,8.987,16.708,1.682c0,0,7.939-4.078,6.697-14.764c0,0-0.562-4.855-4.355-5.949"/>
<path fill="#FFFFFF" stroke="#808B20" stroke-width="0.9822" stroke-miterlimit="10" d="M214.381,133.875
	c0,0,1.464-10.852-6.196-11.424c0,0-4.17-0.158-6.695,4.535"/>
<path fill="#FFFFFF" stroke="#808B20" stroke-width="0.9822" stroke-miterlimit="10" d="M196.131,149.252
	c-6.397-2.844-8.307-9.804-8.307-9.804c-3.307-14.394,12.061-13.495,12.061-13.495s5.774,0.163,8.127,4.498"/>
<path fill="#FFFFFF" stroke="#808B20" stroke-width="1.1132" stroke-miterlimit="10" d="M209.998,129.967
	c0,0,9.645,0.859,7.488,13.153c0,0-1.833,8.318-8.168,8.116"/>
<path fill="#FFFFFF" stroke="#808B20" stroke-width="1.1132" stroke-miterlimit="10" d="M210.972,143.467
	c0,0,0.387,13.369-10.701,12.082c0,0-10.056-1.894-8.647-14.083"/>
<path fill="#FFFFFF" stroke="#808B20" stroke-width="1.1132" stroke-miterlimit="10" d="M207.354,145.322
	c0,0,7.764-1.27,4.819-11.943c0,0-1.652-5.158-7.306-5.339c0,0-6.078-0.231-8.257,4.062"/>
<path fill="#FFFFFF" stroke="#808B20" stroke-width="1.1132" stroke-miterlimit="10" d="M202.096,132.604
	c0,0-8.88-3.172-11.083,4.74c0,0-1.282,5.25,5.064,8.959"/>
<path fill="#FFFFFF" stroke="#808B20" stroke-width="1.1132" stroke-miterlimit="10" d="M207.378,144.535
	c0,0-1.059,6.605-6.366,5.937c0,0-5.625-0.181-4.832-7.769"/>
<path fill="#FFFFFF" stroke="#808B20" stroke-width="1.1132" stroke-miterlimit="10" d="M202.242,137.424
	c-4.777,1.332-1.375,5.135-1.375,5.135c3.116,1.955,6.102-2.043,6.102-2.043c2.085-3.402,0.659-6.075,0.659-6.075
	c-1.733-3.861-5.895-1.674-5.895-1.674s-11.6,6.213-2.95,12.282c0,0,9.681,5.094,8.186-4.533"/>
<path fill="#FFFFFF" stroke="#808B20" stroke-width="1.1609" stroke-miterlimit="10" d="M254.531,44.407
	c-6.719-3.284-11.736,1.736-11.736,1.736c-6.477,7.121-2.059,16.465-2.059,16.465"/>
<path fill="#FFFFFF" stroke="#808B20" stroke-width="1.1609" stroke-miterlimit="10" d="M239.833,60.032
	c0,0-9.168,7.483,2.522,19.686c0,0,6.815,8.052,18.785,3.77c0,0,5.441-1.943,5.69-6.604"/>
<path fill="#FFFFFF" stroke="#808B20" stroke-width="1.1609" stroke-miterlimit="10" d="M266.534,74.378
	c0,0,12.886-1.21,11.501-10.184c0,0-0.933-4.844-7.012-6.499"/>
<path fill="#FFFFFF" stroke="#808B20" stroke-width="1.1609" stroke-miterlimit="10" d="M244.447,57.458
	c1.568-8.125,9.073-12.179,9.073-12.179c15.69-7.649,18.758,10.285,18.758,10.285s1.354,6.691-3.009,10.557"/>
<path fill="#FFFFFF" stroke="#808B20" stroke-width="1.3158" stroke-miterlimit="10" d="M246.666,73.155
	c1.457,7.343,11.525,7.238,11.525,7.238c14.729-0.801,13.146-12.133,13.146-12.133s0.027-3.575-2.869-0.814"/>
<path fill="#FFFFFF" stroke="#808B20" stroke-width="1.3158" stroke-miterlimit="10" d="M255.069,73.002
	c0,0-15.288,4.014-16.769-9.097c0,0-0.5-12.084,13.91-13.715"/>
<path fill="#FFFFFF" stroke="#808B20" stroke-width="1.3158" stroke-miterlimit="10" d="M251.968,69.331
	c0,0,3.533,8.602,15.039,2.363c0,0,5.498-3.279,4.197-9.836c0,0-1.355-7.06-6.884-8.424"/>
<path fill="#FFFFFF" stroke="#808B20" stroke-width="1.3158" stroke-miterlimit="10" d="M265.209,59.884
	c0,0,1.284-11.072-8.415-11.497c0,0-6.387-0.074-8.965,8.222"/>
<path fill="#FFFFFF" stroke="#808B20" stroke-width="1.3158" stroke-miterlimit="10" d="M252.881,69.151
	c0,0-7.888,0.544-8.534-5.746c0,0-1.295-6.524,7.655-7.636"/>
<path fill="#FFFFFF" stroke="#808B20" stroke-width="1.3158" stroke-miterlimit="10" d="M259.698,61.336
	c-2.807-5.143-6.276-0.21-6.276-0.21c-1.421,4.108,3.977,6.481,3.977,6.481c4.477,1.491,7.175-0.864,7.175-0.864
	c3.98-3.025,0.352-7.233,0.352-7.233s-10.247-11.699-14.928-0.12c0,0-3.281,12.507,7.401,8.217"/>
<polygon fill="#FFFFFF" stroke="#808B20" stroke-miterlimit="10" points="307.833,223.824 280.262,249.084 214.833,241.689 
	214.833,204.673 280.262,206.661 307.833,193.996 "/>
<line fill="#FFFFFF" stroke="#808B20" stroke-miterlimit="10" x1="279.833" y1="249" x2="279.833" y2="206"/>
<polygon fill="#FFFFFF" stroke="#808B20" stroke-width="1.2381" stroke-linejoin="bevel" stroke-miterlimit="10" points="
	307.542,193.752 255.165,193.133 214.306,204.429 279.685,206.65 "/>
<polygon fill="#808B20" points="240.333,244.62 240.333,205.164 258.828,199.268 233.791,199.172 242.616,196.565 264.785,197.057 
	274.95,193.377 280.632,193.126 271.878,197.043 298.333,197.841 298.333,231.697 293.333,236.203 293.333,200.25 266.779,199.514 
	249.01,205.803 248.932,245.557 "/>
</svg>
