<?xml version="1.0" encoding="utf-8"?>
<!-- Generator: Adobe Illustrator 16.0.0, SVG Export Plug-In . SVG Version: 6.00 Build 0)  -->
<!DOCTYPE svg PUBLIC "-//W3C//DTD SVG 1.1//EN" "http://www.w3.org/Graphics/SVG/1.1/DTD/svg11.dtd">
<svg version="1.1" id="Layer_1" xmlns="http://www.w3.org/2000/svg" xmlns:xlink="http://www.w3.org/1999/xlink" x="0px" y="0px"
	 width="740px" height="100px" viewBox="0 0 740 100" enable-background="new 0 0 740 100" xml:space="preserve">
<g>
	<g>
		<path fill="#FFFFFF" d="M14.003,77.5"/>
		<path fill="#FFFFFF" d="M398.832,39.943c-0.7,4.666-4.354,8.32-8.709,8.32c-3.344,0-4.821-1.633-6.454-3.654l-0.312,0.155v16.718
			c0,5.365,2.877,8.086,9.564,9.408l4.434-4.433l0.933,0.933L387.945,77.5c-9.719-1.479-14.074-7.23-14.074-14.386V51.217
			c0-1.314-0.077-2.099-0.622-2.8c5.364-2.332,12.985-6.997,17.497-10.807c0.854,1.167,2.566,2.644,4.51,2.644
			c0.986,0,2.068-0.297,2.876-0.778C398.579,39.21,398.906,39.45,398.832,39.943z"/>
		<polygon fill="#FFFFFF" points="334.681,26.723 329.083,32.4 323.25,27.035 328.927,21.125 		"/>
		<path fill="#FFFFFF" d="M342.458,69.335l-8.242,8.165c-4.2-1.479-7.388-4.411-7.388-9.254V49.195c0-2.213-0.87-3.782-2.877-4.82
			l-2.799,2.799l-0.855-0.855l8.787-8.787c5.673,3.044,7.231,6.476,7.231,10.419v18.816c0,2.006,0.856,3.268,2.877,4.045l2.333-2.41
			L342.458,69.335z"/>
		<path fill="#FFFFFF" d="M321.462,39.943c-0.7,4.666-4.354,8.32-8.709,8.32c-3.343,0-4.821-1.633-6.454-3.654l-0.311,0.155v16.718
			c0,5.365,2.877,8.086,9.564,9.408l4.433-4.433l0.933,0.933L310.576,77.5c-9.72-1.479-14.074-7.23-14.074-14.386V51.217
			c0-1.314-0.078-2.099-0.622-2.8c5.365-2.332,12.985-6.997,17.496-10.807c0.855,1.167,2.565,2.644,4.51,2.644
			c0.986,0,2.07-0.297,2.877-0.778C321.208,39.21,321.536,39.45,321.462,39.943z"/>
		<path fill="#FFFFFF" d="M295.18,69.646l-7.932,7.854c-4.354-1.633-7.62-4.542-7.62-9.176V52.229c0-4.898-0.7-6.765-4.744-8.476
			l-3.888,3.809v19.596c0,2.398,1.089,3.421,3.267,4.275l-6.066,6.065c-4.898-1.942-6.687-4.743-6.687-9.644V48.807
			c0-2.877-0.778-3.81-2.878-4.587l-2.1,2.099l-0.933-0.855l7.854-7.932c5.055,1.244,7.31,4.588,7.465,8.32l8.398-8.32
			c6.454,1.478,9.798,4.898,9.798,11.585v18.584c0,1.938,1.011,2.955,2.721,3.422l2.333-2.411L295.18,69.646z"/>
		<path fill="#FFFFFF" d="M229.24,39.865c-1.167,4.818-4.199,8.008-8.787,8.008c-2.698,0-4.588-1.243-5.91-2.643l-0.233,0.155
			v20.062c0,2.799,0.389,4.199,4.433,5.365l2.411-2.488l0.933,0.934l-8.32,8.242c-6.688-1.866-8.942-5.41-8.942-10.809V49.973
			c0-2.955-0.7-4.665-2.722-5.209l-2.488,2.488l-0.933-0.933l8.788-8.787c3.81,0.7,6.298,4.044,6.454,6.999l7.231-6.999
			c0.933,1.399,2.722,2.877,4.355,2.877c1.011,0,2.099-0.311,2.877-0.933C228.82,39.128,229.338,39.458,229.24,39.865z"/>
		<path fill="#FFFFFF" d="M181.34,18.87c-1.99,4.175-5.392,7.231-11.352,7.231c-3.266,0-9.242-2.255-11.586-2.255
			c-3.732,0-5.366,1.148-5.366,3.344c0,0.755,0.544,1.358,1.322,1.556c0.692,0.175,1.244,0.592,1.244,1.088
			c0,0.622-0.389,1.011-1.089,1.011c-1.711,0-3.344-1.943-3.344-5.288c0-5.6,4.828-9.643,10.576-9.643
			c4.46,0,10.427,3.967,13.451,3.967c2.333,0,3.966-0.623,5.677-1.867C181.453,17.592,181.679,18.16,181.34,18.87z"/>
		<path fill="#FFFFFF" d="M139.739,69.646l-7.931,7.854c-4.355-1.633-7.621-4.542-7.621-9.176V52.229c0-4.898-0.7-6.765-4.744-8.476
			l-3.888,3.809v19.596c0,2.398,1.089,3.421,3.267,4.275l-6.065,6.065c-4.899-1.942-6.687-4.743-6.687-9.644V48.807
			c0-2.877-0.778-3.81-2.877-4.587l-2.1,2.099l-0.933-0.855l7.853-7.932c5.054,1.244,7.309,4.588,7.465,8.32l8.398-8.32
			c6.455,1.478,9.798,4.898,9.798,11.585v18.584c0,1.938,1.011,2.955,2.722,3.422l2.333-2.411L139.739,69.646z"/>
		<path fill="#FFFFFF" d="M429.081,67.08c-4.907,2.24-12.694,6.704-18.274,10.42c-6.375-1.479-10.573-5.443-10.573-11.977V51.139
			c0-1.418-0.155-2.255-0.622-2.875c5.132-2.255,14.15-7.418,18.429-10.42c6.143,1.4,10.496,5.599,10.496,11.663v14.075
			C428.535,65.369,428.758,66.387,429.081,67.08z M419.051,71.668V51.994c0-5.054-3.423-7.774-8.942-8.475l-0.39,0.156v19.361
			c0,5.987,3.421,7.932,8.865,8.864L419.051,71.668z"/>
		<path fill="#FFFFFF" d="M369.828,39.554c0,0-3.917,6.181-9.176,13.374c4.666,1.166,7.854,3.582,7.854,8.01v5.677
			c0,0.562,0.241,1.946,0.7,2.645c-3.811,1.429-10.846,5.065-15.318,8.242c-1.555-1.478-2.876-2.101-5.054-2.101
			c-3.811,0-6.999,2.1-6.999,5.211c0,0.582,0.483,1.087,1.011,1.322c0.573,0.254,1.011,0.693,1.011,1.166
			c0,0.776-0.7,1.243-1.244,1.243c-1.633,0-2.177-1.788-2.177-3.888c0-3.499,2.971-6.5,6.065-10.653c0,0,4.609-6.271,5.677-7.62
			c-6.143-2.1-9.487-4.375-9.487-8.941v-3.188c0-1.356-0.078-2.489-0.622-3.5c4.043-1.321,11.819-6.219,15.707-8.941
			c1.106,1.591,3.576,2.877,5.287,2.877c2.411,0,4.356-0.701,6.221-1.71C369.848,38.47,370.365,38.771,369.828,39.554z
			 M364.929,44.453l-0.156-0.156c-1.867,1.522-3.997,2.721-6.142,2.721c-3.252,0-4.666-1.477-6.221-3.499l-0.312,0.078v6.764
			c0,2.77,1.326,3.577,5.133,4.823C360.137,51.377,364.929,44.453,364.929,44.453z M359.021,71.279v-6.766
			c0-3.188-0.856-3.966-3.344-4.742c-2.644,3.576-7.932,10.808-7.932,10.808l0.156,0.078c1.944-1.322,4.043-1.712,5.521-1.712
			c2.099,0,4.199,1.012,5.365,2.488L359.021,71.279z"/>
		<path fill="#FFFFFF" d="M257.699,69.957l-7.542,7.543c-3.032-0.934-6.687-3.266-7.387-7.311h-0.156l-9.719,7.311
			c-4.432-1.32-7.31-5.6-7.31-10.031c0-7.387,7.698-11.431,16.951-12.83v-2.565c0-4.354-1.633-7.386-9.486-7.542l-2.566,2.487
			l-0.934-0.855l8.631-8.631c7.543,0,13.841,4.898,13.841,12.363v17.417c0,2.697,1.245,3.5,2.488,3.967l2.255-2.178L257.699,69.957z
			 M242.537,68.945V55.883c-4.821,1.479-7.854,4.195-7.854,8.864c0,3.966,1.478,5.755,4.122,6.844L242.537,68.945z"/>
		<path fill="#FFFFFF" d="M207.856,21.669c-1.088,3.964-4.409,8.243-9.798,8.243c-1.653,0-3.083-0.32-4.588-1.012v11.12h6.221
			l-3.577,7.697h-2.645V77.5c0,0.343-0.388,0.544-0.699,0.544c-0.312,0-0.7-0.169-0.7-0.544V47.718h-4.665v10.653
			c0,11.021-4.872,13.545-16.874,21.384c-3.511-2.938-6.325-5.288-12.285-5.288c-8.883,0-11.976,3.016-11.976,6.999
			c0,2.659,1.205,3.296,2.177,3.732c0.544,0.243,1.089,0.612,1.089,1.243c0,0.699-0.467,1.09-1.166,1.09
			c-2.022,0-3.733-2.396-3.733-7.621c0-7.7,6.195-14.229,17.03-14.229c7.439,0,11.627,2.676,15.396,6.608V29.601L174.031,31v19.284
			c0,6.368-1.931,10.938-12.596,14.308c-0.489,0.154-0.934-0.232-0.389-0.621c3.057-2.184,3.966-3.308,3.966-8.244v-8.009H163.3
			c-3.856,0-4.307,1.37-4.588,3.11c-0.031,0.193-0.313,0.378-0.699,0c-0.725-0.707-1.556-2.187-1.556-4.198
			c0-4.753,2.772-6.609,7.31-6.609h1.244v-1.399c0-2.333-0.263-3.812-0.855-4.977c10.206-3.674,21.917-8.981,31.959-16.33
			c1.443,1.64,3.562,4.121,8.165,4.121c1.011,0,2.021-0.155,2.799-0.544C207.73,20.565,208.071,20.886,207.856,21.669z
			 M192.071,40.021V28.356c-1.976-1.13-3.419-2.735-4.199-4.51l-0.466,0.312v15.863H192.071z"/>
		<path fill="#FFFFFF" d="M102.26,69.957L94.717,77.5c-3.033-0.934-6.687-3.266-7.387-7.311h-0.155l-9.72,7.311
			c-4.432-1.32-7.309-5.6-7.309-10.031c0-7.387,7.698-11.431,16.951-12.83v-2.565c0-4.354-1.633-7.386-9.486-7.542l-2.566,2.487
			l-0.933-0.855l8.631-8.631c7.543,0,13.842,4.898,13.842,12.363v17.417c0,2.697,1.244,3.5,2.488,3.967l2.255-2.178L102.26,69.957z
			 M87.096,68.945V55.883c-4.821,1.479-7.854,4.195-7.854,8.864c0,3.966,1.478,5.755,4.121,6.844L87.096,68.945z"/>
		<path fill="#FFFFFF" d="M70.922,51.762c0,6.873-5.32,12.377-10.809,18.508c-2.786,3.111-5.686,6.291-8.397,9.33
			c-3.742-3.738-9.225-6.221-15.474-6.221c-10.024,0-15.318,3.428-15.318,7.932c0,2.178,0.699,3.227,1.555,3.578
			c0.949,0.389,1.71,0.748,1.71,1.631c0,0.744-0.622,1.013-1.244,1.013c-2.021,0-3.655-3.024-3.655-7.31
			c0-7.969,6.181-16.098,20.062-16.098c8.279,0,13.711,2.674,18.196,6.609c2.178-2.543,6.609-8.055,6.609-13.219
			c0-8.051-5.374-10.938-13.219-12.441l-3.655-0.7l-1.167,1.633l3.811,0.777c7.377,1.506,11.975,4.108,11.975,10.497
			c0,4.044-1.633,6.921-3.266,8.863c0.055-0.564,0.077-1.099,0.077-1.633c0-4.628-3.165-8.207-13.297-10.342l-4.432-0.934
			c-4.199,5.443-6.431,7.231-9.409,7.231c-1.72,0-2.489-0.622-2.489-1.399c0-0.855,0.7-1.321,1.633-1.321
			c0.855,0,1.321,1.089,2.177,1.089c1.556,0,3.499-1.943,6.688-5.91l-3.111-0.699c-7.727-1.737-11.43-4.744-11.43-9.563
			c0-3.031,1.243-4.706,2.333-5.288c1.717,3.943,5.713,5.87,13.53,7.464l3.81,0.778l1.166-1.633l-3.732-0.777
			c-11.077-2.309-14.385-5.61-14.385-12.442c0-7.7,6.532-14.152,17.107-14.152c6.692,0,11.757,2.013,16.407,5.209l2.1-2.644
			c0.215-0.271,0.471-0.311,0.7-0.311c0.312,0,0.6,0.171,0.622,0.466c0.009,0.12,0.028,0.252-0.077,0.389
			c-3.928,5.07-8.981,11.771-11.586,16.097C64.158,37.766,70.922,41.573,70.922,51.762z M55.916,29.056
			c-3.341-3.923-9.379-9.332-16.874-9.332c-4.48,0-7.154,2.148-7.154,6.144c0,3.135,3.031,6.19,11.197,7.854l8.398,1.711
			C52.791,33.616,55.916,29.056,55.916,29.056z"/>
		<path fill="#FFFFFF" d="M433.669,77.5"/>
	</g>
	<g>
		<path fill="#FFFFFF" d="M431.867,77.5"/>
		<path fill="#FFFFFF" d="M691.972,69.18l-8.32,8.32c-4.276-1.479-7.466-4.255-7.466-9.254V29.678c0-2.214-0.868-3.782-2.877-4.82
			l-2.799,2.722l-0.854-0.856l8.787-8.709c5.986,2.333,7.229,6.477,7.229,10.42V66.77c0,2.006,0.778,3.267,2.8,4.043l2.566-2.487
			L691.972,69.18z"/>
		<polygon fill="#FFFFFF" points="639.873,26.723 634.273,32.4 628.441,27.034 634.119,21.125 		"/>
		<path fill="#FFFFFF" d="M673.387,39.943c-0.699,4.666-4.354,8.319-8.709,8.319c-3.344,0-4.82-1.632-6.455-3.654l-0.311,0.155
			V61.48c0,5.365,2.878,8.088,9.564,9.408l4.433-4.432l0.933,0.934L662.5,77.5c-9.72-1.479-14.074-7.232-14.074-14.386V51.217
			c0-1.314-0.077-2.099-0.621-2.8c5.364-2.332,12.985-6.997,17.494-10.807c0.856,1.167,2.566,2.644,4.512,2.644
			c0.985,0,2.069-0.297,2.877-0.778C673.133,39.21,673.46,39.45,673.387,39.943z"/>
		<path fill="#FFFFFF" d="M647.57,69.335l-8.242,8.165c-4.199-1.479-7.387-4.41-7.387-9.254V49.195c0-2.213-0.87-3.782-2.877-4.82
			l-2.801,2.799l-0.854-0.855l8.787-8.787c5.673,3.044,7.23,6.476,7.23,10.419v18.816c0,2.006,0.855,3.268,2.877,4.045l2.334-2.41
			L647.57,69.335z"/>
		<path fill="#FFFFFF" d="M629.375,69.646l-7.932,7.854c-4.354-1.633-7.62-4.542-7.62-9.176V52.229c0-4.898-0.7-6.765-4.743-8.476
			l-3.889,3.809v19.596c0,2.398,1.09,3.421,3.267,4.275l-6.065,6.065c-4.897-1.942-6.688-4.743-6.688-9.644V48.807
			c0-2.877-0.777-3.81-2.877-4.587l-2.1,2.099l-0.934-0.855l7.854-7.932c5.055,1.244,7.311,4.588,7.466,8.32l8.396-8.32
			c6.455,1.478,9.8,4.898,9.8,11.585v18.584c0,1.938,1.01,2.955,2.721,3.422l2.333-2.411L629.375,69.646z"/>
		<path fill="#FFFFFF" d="M560.636,39.865c-1.165,4.817-4.198,8.008-8.787,8.008c-2.697,0-4.588-1.243-5.908-2.643l-0.233,0.155
			v20.062c0,2.799,0.389,4.199,4.433,5.365l2.41-2.488l0.935,0.934l-8.32,8.242c-6.688-1.866-8.942-5.41-8.942-10.809V49.973
			c0-2.955-0.7-4.665-2.722-5.209l-2.488,2.487l-0.933-0.932l8.787-8.787c3.809,0.7,6.298,4.044,6.454,6.999l7.229-6.999
			c0.935,1.399,2.724,2.877,4.354,2.877c1.012,0,2.1-0.311,2.878-0.933C560.216,39.128,560.735,39.458,560.636,39.865z"/>
		<path fill="#FFFFFF" d="M528.132,64.592c0,12.285-6.143,17.885-14.617,22.784c-0.784,0.454-1.562,0.069-0.699-0.778
			c4.274-4.197,5.831-7.543,5.831-17.34V51.684c0-4.433-1.089-6.608-4.819-7.853l-3.812,3.731v18.819
			c0,3.498,1.244,4.354,3.267,4.977l-6.065,6.144c-4.821-1.866-6.688-4.824-6.688-8.942V29.679c0-2.214-0.714-3.704-2.723-4.743
			l-2.255,2.255l-0.933-0.933l8.32-8.243c5.598,2.333,6.997,6.477,6.997,10.42v17.418l8.397-8.32
			c6.222,1.167,9.797,5.288,9.797,10.73L528.132,64.592L528.132,64.592z"/>
		<path fill="#FFFFFF" d="M717.942,50.906l-15.63,10.029v1.244c0,4.428,2.801,7,9.643,8.709l4.51-4.509l0.934,0.854L707.057,77.5
			c-8.864-2.488-14.229-5.594-14.229-14.152V51.684c0-1.557-0.154-2.565-0.544-3.267c4.82-2.332,13.188-7.353,17.419-10.807
			C711.723,41.133,715.22,47.251,717.942,50.906z M709.234,55.104c-1.789-2.644-4.966-8.106-6.532-11.118l-0.389,0.233v15.24
			L709.234,55.104z"/>
		<path fill="#FFFFFF" d="M588.396,67.08c-4.907,2.24-12.693,6.704-18.273,10.42c-6.377-1.479-10.575-5.443-10.575-11.977V51.139
			c0-1.418-0.155-2.255-0.622-2.875c5.132-2.254,14.152-7.417,18.43-10.419c6.144,1.4,10.497,5.599,10.497,11.663v14.075
			C587.854,65.369,588.074,66.387,588.396,67.08z M578.365,71.668V51.994c0-5.054-3.421-7.774-8.942-8.475l-0.389,0.156v19.361
			c0,5.987,3.422,7.932,8.864,8.864L578.365,71.668z"/>
		<path fill="#FFFFFF" d="M497.807,65.291c-3.85,7.837-11.403,14.152-22.938,14.152c-16.259,0-29.86-9.405-29.86-29.237
			c0-15.129,9.453-24.609,21.229-28.692c0.81-0.28,1.273,0.289,0.545,0.855c-7.621,5.91-11.742,13.935-11.742,22.861
			c0,8.686,2.226,15.604,6.688,20.139c1.926-1.555,2.721-3.014,2.721-5.133V35.355c0-2.105-0.095-3.174-1.088-4.199
			c6.278-3.021,14.706-9.584,19.828-13.609c2.646,2.572,4.135,4.414,10.341,3.656c0.886-0.109,0.978-0.099,0.701,0.699
			c-1.839,5.285-5.111,7.775-9.875,7.775c-1.727,0-3.269-0.535-4.822-1.477v43.233c6.637-0.225,13.222-3.728,17.495-6.843
			C497.649,64.141,498.081,64.734,497.807,65.291z M478.134,71.436V27.423c-0.953-0.735-1.782-1.634-2.411-2.644l-2.177,1.711
			v26.749c0,5.829-3.477,7.735-10.964,12.985C466.34,69.557,471.539,71.379,478.134,71.436z"/>
		<path fill="#FFFFFF" d="M721.52,77.5"/>
	</g>
</g>
</svg>
