<?xml version="1.0" encoding="utf-8"?>
<!-- Generator: Adobe Illustrator 16.0.0, SVG Export Plug-In . SVG Version: 6.00 Build 0)  -->
<!DOCTYPE svg PUBLIC "-//W3C//DTD SVG 1.1//EN" "http://www.w3.org/Graphics/SVG/1.1/DTD/svg11.dtd">
<svg version="1.1" id="Layer_1" xmlns="http://www.w3.org/2000/svg" xmlns:xlink="http://www.w3.org/1999/xlink" x="0px" y="0px"
	 width="108px" height="108px" viewBox="0 0 108 108" enable-background="new 0 0 108 108" xml:space="preserve">
<path fill="#FFFFFF" d="M89.761,75.798C84.537,86.431,74.287,95,58.639,95c-22.06,0-40.514-12.762-40.514-39.669
	c0-20.526,12.826-33.389,28.802-38.929c1.098-0.38,1.729,0.392,0.739,1.161c-10.34,8.018-15.932,18.907-15.932,31.018
	c0,11.785,3.02,21.171,9.075,27.324c2.613-2.11,3.691-4.09,3.691-6.963v-33.76c0-2.856-0.128-4.307-1.476-5.697
	c8.52-4.097,19.953-13.003,26.903-18.464c3.59,3.489,5.609,5.988,14.029,4.96c1.202-0.148,1.326-0.134,0.951,0.949
	c-2.493,7.171-6.935,10.549-13.397,10.549c-2.341,0-4.434-0.726-6.543-2.004v58.658c9.005-0.305,17.938-5.058,23.737-9.283
	C89.547,74.236,90.133,75.044,89.761,75.798z M63.069,84.133V24.42c-1.294-0.998-2.419-2.217-3.271-3.587l-2.953,2.321v36.292
	c0,7.909-4.717,10.496-14.875,17.618C47.067,81.586,54.122,84.058,63.069,84.133z"/>
</svg>
