<?xml version="1.0" encoding="utf-8"?>
<!-- Generator: Adobe Illustrator 16.0.0, SVG Export Plug-In . SVG Version: 6.00 Build 0)  -->
<!DOCTYPE svg PUBLIC "-//W3C//DTD SVG 1.1//EN" "http://www.w3.org/Graphics/SVG/1.1/DTD/svg11.dtd">
<svg version="1.1" id="Layer_1" xmlns="http://www.w3.org/2000/svg" xmlns:xlink="http://www.w3.org/1999/xlink" x="0px" y="0px"
	 width="30px" height="30px" viewBox="175 185 30 30" enable-background="new 175 185 30 30" xml:space="preserve">
<g>
	<path fill="#FFFFFF" d="M203,191.845c-0.971,0.431-2.015,0.722-3.109,0.853c1.118-0.67,1.977-1.731,2.381-2.996
		c-1.047,0.621-2.205,1.071-3.438,1.314c-0.987-1.052-2.395-1.709-3.952-1.709c-2.989,0-5.414,2.424-5.414,5.414
		c0,0.424,0.048,0.837,0.14,1.234c-4.5-0.226-8.489-2.381-11.159-5.657c-0.466,0.8-0.733,1.729-0.733,2.722
		c0,1.878,0.956,3.536,2.409,4.506c-0.888-0.028-1.722-0.271-2.452-0.677c0,0.023,0,0.045,0,0.068c0,2.623,1.866,4.811,4.343,5.308
		c-0.455,0.124-0.933,0.19-1.426,0.19c-0.349,0-0.688-0.034-1.019-0.098c0.689,2.151,2.688,3.717,5.057,3.761
		c-1.853,1.451-4.187,2.317-6.724,2.317c-0.437,0-0.868-0.025-1.292-0.076c2.396,1.536,5.242,2.433,8.299,2.433
		c9.958,0,15.404-8.25,15.404-15.404c0-0.235-0.006-0.468-0.016-0.701C201.356,193.884,202.274,192.931,203,191.845L203,191.845z"/>
</g>
</svg>
