<?xml version="1.0" encoding="utf-8"?>
<!-- Generator: Adobe Illustrator 16.0.0, SVG Export Plug-In . SVG Version: 6.00 Build 0)  -->
<!DOCTYPE svg PUBLIC "-//W3C//DTD SVG 1.1//EN" "http://www.w3.org/Graphics/SVG/1.1/DTD/svg11.dtd">
<svg version="1.1" id="Layer_1" xmlns="http://www.w3.org/2000/svg" xmlns:xlink="http://www.w3.org/1999/xlink" x="0px" y="0px"
	 width="740px" height="360px" viewBox="0 0 740 360" enable-background="new 0 0 740 360" xml:space="preserve">
<g>
	<path fill="#FFFFFF" stroke="#E76C68" stroke-width="1.5" stroke-miterlimit="10" d="M554.982,324.863v3.454
		c0,0-1.031,4.689,20.498,4.918c0,0,15.502,0.097,20.502-4.46v-3.912c0,0-6.701,4.369-20.502,4.369
		C575.48,329.232,558.982,328.866,554.982,324.863z"/>
	<path fill="#FFFFFF" stroke="#E76C68" stroke-miterlimit="10" d="M595.982,323.402v1.296c0,0-5.932,4.757-20.662,4.757
		c0,0-14.63,0.541-20.828-4.674l0.166-1.379H595.982z"/>
	<path fill="#FFFFFF" stroke="#E76C68" stroke-miterlimit="10" d="M555.262,324.988c0,0,3-0.369,4.15,1.35
		c0.975,0.861,1.746,2.127,6.349,0.242c0,0,2.351-0.771,4.801,1.318c0,0,1.749,1.934,3.948,0.354c0,0,1.9-1.581,3.351-0.359
		c0,0,2.899,1.433,5.463-0.666c0,0,1.736-1.78,3.436-0.455c0,0,2.445,2.344,4.683-0.451c0,0,1.513-2.059,4.166-2.197
		c0,0,3.945,0.279,2.587-3.721h-45.535C552.659,320.402,550.159,324.351,555.262,324.988"/>
	<path fill="#FFFFFF" stroke="#E76C68" stroke-miterlimit="10" d="M556.059,318.109c0,0-2.2,0.306-3.199,1.732
		c0,0-2,2.854,2.198,2.648c0,0,3.251-0.547,4.4,1.173c0,0,1.751,2.343,5.3,0.866c0,0,3.15-1.172,5.6,0.917
		c0,0,1.75,1.937,3.949,0.356c0,0,1.899-1.58,3.351-0.356c0,0,2.897,1.433,5.462-0.667c0,0,1.736-1.779,3.436-0.454
		c0,0,2.301,1.937,4.5-0.152c0,0,1.625-2.22,4.35-1.733c0,0,3.254,0.339,2.931-1.617c0,0-0.23-1.566-2.031-1.566"/>
	<path fill="#FFFFFF" stroke="#E76C68" stroke-miterlimit="10" d="M565.158,317.057l-9.399-3.03c0,0-1.999-0.53-1.999,0.624
		c0,0-1.367,0.584,0.232,1.332c0,0-0.6,0.512,0.066,1.021c0,0-0.2,1.225,1.001,0.919c0,0-1.217,1.546,0.999,1.274
		c0,0-0.149,0.99,1.066,0.662c0,0-0.316,1.675,1.465,1.377c0,0,0.346,1.418,2.146,1.171c0,0,1.089,0.907,3.122,0.593
		c0,0,6.3,2.262,14.731-1.764c0,0,12.591,2.013,13.44-0.942c0,0,2.225,0.179,2.724-1.249c0,0,2.05,0.783,1.852-0.541
		c0,0,1.123-0.227,0.574-0.889c0,0,1.149-0.768-0.126-0.945c0,0,0.975-0.525-0.398-0.807l-0.676-0.443"/>
	<path fill="#FFFFFF" stroke="#E76C68" stroke-miterlimit="10" d="M560.642,317.574c0,0-2.833,2.066,1.216,3.351
		c0,0,4.333,1.852,13.099-0.139"/>
	<path fill="#FFFFFF" stroke="#E76C68" stroke-miterlimit="10" d="M595.736,313.916c0,0,2.734,2.128-1.016,3.388
		c0,0-4.533,1.813-13.299-0.177"/>
	<polyline fill="#FFFFFF" stroke="#E76C68" stroke-miterlimit="10" points="559.458,317.039 559.058,317.447 575.756,321.193 
		582.53,326.669 590.33,320.25 592.68,316.225 	"/>
	<polyline fill="#FFFFFF" stroke="#E76C68" stroke-miterlimit="10" points="575.756,321.193 584.13,328.707 590.33,320.25 	"/>
	<path fill="#FFFFFF" stroke="#E76C68" stroke-miterlimit="10" d="M554.718,327.646"/>
	<path fill="#FFFFFF" stroke="#E76C68" stroke-width="1.5" stroke-miterlimit="10" d="M554.982,310.877v3.136
		c0,0-1.031,4.257,20.498,4.466c0,0,15.502,0.086,20.502-4.051v-3.551c0,0-6.701,3.967-20.502,3.967
		C575.48,314.844,558.982,314.511,554.982,310.877z"/>
	<path fill="#FFFFFF" stroke="#E76C68" stroke-miterlimit="10" d="M595.982,310.402v0.69c0,0-5.932,4.319-20.662,4.319
		c0,0-14.63,0.734-20.828-4.001l0.166-1.009H595.982z"/>
	<path fill="#FFFFFF" stroke="#E76C68" stroke-miterlimit="10" d="M595.745,310.641c0,0-3.01-0.281-4.118,1.46
		c-0.952,0.88-1.693,2.175-6.342,0.384c0,0-2.367-0.717-4.766,1.42c0,0-1.702,1.971-3.939,0.437c0,0-1.938-1.54-3.357-0.288
		c0,0-2.865,1.489-5.478-0.558c0,0-1.778-1.743-3.446-0.386c0,0-2.39,2.393-4.692-0.355c0,0-1.563-2.082-4.219-2.168
		c0,0-3.931,0.695-2.677-3.721l45.523-0.916C598.234,305.949,600.83,309.9,595.745,310.641"/>
	<path fill="#FFFFFF" stroke="#E76C68" stroke-miterlimit="10" d="M594.783,303.834c0,0,2.206,0.261,3.24,1.668
		c0,0,2.068,2.811-2.135,2.691c0,0-3.263-0.48-4.371,1.26c0,0-1.693,2.379-5.277,0.974c0,0-3.177-1.108-5.576,1.029
		c0,0-1.702,1.971-3.939,0.437c0,0-1.938-1.541-3.357-0.289c0,0-2.864,1.489-5.477-0.557c0,0-1.78-1.744-3.447-0.385
		c0,0-2.253,1.98-4.502-0.062c0,0-1.678-2.186-4.39-1.645c0,0-3.246,0.402-2.969-1.559c0,0,0.192-1.571,1.993-1.607"/>
	<path fill="#FFFFFF" stroke="#E76C68" stroke-miterlimit="10" d="M585.686,302.964l9.324-3.219c0,0,1.985-0.571,2.013,0.584
		c0,0,1.381,0.557-0.201,1.336c0,0,0.611,0.501-0.042,1.022c0,0,0.229,1.221-0.977,0.939c0,0,1.253,1.521-0.97,1.295
		c0,0,0.174,0.986-1.051,0.684c0,0,0.357,1.667-1.431,1.405c0,0-0.312,1.425-2.116,1.214c0,0-1.066,0.929-3.107,0.654
		c0,0-6.243,2.389-14.771-1.466c0,0-12.539,2.265-13.46-0.673c0,0-2.22,0.223-2.754-1.193c0,0-2.03,0.824-1.862-0.504
		c0,0-1.13-0.203-0.597-0.877c0,0-1.167-0.744,0.103-0.947c0,0-0.986-0.506,0.381-0.814l0.664-0.457"/>
	<path fill="#FFFFFF" stroke="#E76C68" stroke-miterlimit="10" d="M590.188,303.391c0,0,2.882,2.01-1.136,3.374
		c0,0-4.287,1.938-13.099,0.125"/>
	<path fill="#FFFFFF" stroke="#E76C68" stroke-miterlimit="10" d="M555.015,300.438c0,0-2.683,2.183,1.097,3.367
		c0,0,4.575,1.722,13.291-0.444"/>
	<polyline fill="#FFFFFF" stroke="#E76C68" stroke-miterlimit="10" points="591.358,302.832 591.769,303.232 575.164,307.313 
		568.523,312.924 560.571,306.662 558.127,302.686 	"/>
	<polyline fill="#FFFFFF" stroke="#E76C68" stroke-miterlimit="10" points="575.164,307.313 566.973,314.993 560.571,306.662 	"/>
	<path fill="#FFFFFF" stroke="#E76C68" stroke-width="1.5" stroke-miterlimit="10" d="M554.434,301.782
		c0,0-0.557-16.722,21.016-16.708c0,0,19.821-1.551,21.573,16.255C597.022,301.329,576.393,307.515,554.434,301.782z"/>
	<path fill="#FFFFFF" stroke="#E76C68" stroke-miterlimit="10" d="M562.809,298.719c0,0-1.393-2.424,0.325-3.164
		C563.134,295.555,564.656,295.246,562.809,298.719z"/>
	<path fill="#FFFFFF" stroke="#E76C68" stroke-miterlimit="10" d="M570.563,292.005c0,0-1-1.995,0.409-2.521
		C570.973,289.484,572.206,289.297,570.563,292.005z"/>
	<path fill="#FFFFFF" stroke="#E76C68" stroke-miterlimit="10" d="M581.362,294.2c0,0-1-1.995,0.41-2.521
		C581.772,291.68,583.004,291.492,581.362,294.2z"/>
	<path fill="#FFFFFF" stroke="#E76C68" stroke-miterlimit="10" d="M574.963,298.225c0,0-1-1.994,0.409-2.52
		C575.372,295.705,576.605,295.518,574.963,298.225z"/>
	<path fill="#FFFFFF" stroke="#E76C68" stroke-miterlimit="10" d="M588.217,298.917c0,0-1.622-1.616-0.457-2.513
		C587.76,296.404,588.869,295.879,588.217,298.917z"/>
	<path fill="#FFFFFF" stroke="#E76C68" stroke-width="1.4781" stroke-miterlimit="10" d="M558.998,296.98l-3.882,33.318
		c0,0-7.47,3.004-14.365,0l-4.081-33.332"/>
	<ellipse fill="#FFFFFF" stroke="#E76C68" stroke-miterlimit="10" cx="547.8" cy="297.008" rx="11.305" ry="1.777"/>
	<path fill="#FFFFFF" stroke="#E76C68" stroke-miterlimit="10" d="M538.35,310.639c0,0,5.407,10.102,17.15,9.326l0.7-4.461
		c0,0-9.763,1.146-18.601-9.878L538.35,310.639z"/>
	<polyline fill="none" stroke="#E76C68" stroke-width="1.8037" stroke-miterlimit="10" points="547.646,298.601 547.965,286.367 
		537.643,282.011 	"/>
</g>
</svg>
