<?xml version="1.0" encoding="utf-8"?>
<!-- Generator: Adobe Illustrator 16.0.0, SVG Export Plug-In . SVG Version: 6.00 Build 0)  -->
<!DOCTYPE svg PUBLIC "-//W3C//DTD SVG 1.1//EN" "http://www.w3.org/Graphics/SVG/1.1/DTD/svg11.dtd">
<svg version="1.1" id="Layer_1" xmlns="http://www.w3.org/2000/svg" xmlns:xlink="http://www.w3.org/1999/xlink" x="0px" y="0px"
	 width="160px" height="200px" viewBox="290 80 160 200" enable-background="new 290 80 160 200" xml:space="preserve">
<g>
	<g>
		<path fill="#FFFFFF" stroke="#809720" stroke-width="3.2666" stroke-miterlimit="10" d="M347.39,250.794l17.967-127.891
			l3.772,1.636v146.198h-24.5L347.39,250.794z"/>
	</g>
	
		<line fill="none" stroke="#809720" stroke-width="3.2666" stroke-linecap="round" stroke-miterlimit="10" x1="370.812" y1="92.259" x2="370.933" y2="84.1"/>
	<path fill="#FFFFFF" stroke="#809720" stroke-width="3" stroke-miterlimit="10" d="M433.954,164.435c0,0-75.498,0-140.189-10.879
		c0,0,11.498-67.172,80.104-62.354C373.867,91.202,430.487,100.201,433.954,164.435z"/>
	<path fill="#FFFFFF" stroke="#809720" stroke-width="2" stroke-miterlimit="10" d="M390.82,163.127c0,0,4.092-42.498-20.284-72.271
		c0,0-28.929,16.629-35.245,68.365C335.291,159.221,360.746,161.655,390.82,163.127z"/>
	<path fill="#809720" stroke="#FFFFFF" stroke-width="3.6565" stroke-miterlimit="10" d="M411.603,211.121
		c0,0,0.112-6.75-5.665-8.424c0,0,0.603,4.924,0.867,10.542"/>
	<path fill="#FFFFFF" stroke="#809720" stroke-width="1.679" stroke-miterlimit="10" d="M431,212.689c0,0,1.165-6.105-1.237-10.322
		c0,0-0.825-1.256-5.09-1.654c0,0-3.789-0.088-4.982,1.584c0,0-2.043,5.673,0.931,11.914"/>
	<path fill="#FFFFFF" stroke="#809720" stroke-width="2" stroke-miterlimit="10" d="M371.113,230.912c0,0-4.446-11.35-10.781-13.684
		c0,0,7.03,9.327,6.366,21.499c0,0-0.645,19.995,2.024,31.995h9.839l-1.896-2.443c0,0-2.217-1.11-0.552-13.67
		c0,0,15.005-1.944,27.337,2.391c0,0,1.712,2.441,1.989,11.555L403.39,271h7.891l0.33-13.836c0,0,1.611-1.89,4.45,0L416.555,271
		h8.278l-2.055-2.333c0,0-0.666-4.112,1.502-13.504c0,0,2.441-12.058,2.221-16.282c0,0,18.067-7.387,19.619-20.498
		c0,0,5.223-8.446-16.225-8.559c0,0-18.607-0.234-26.387,1.434c0,0-3.948-7.627-8.95-8.961c0,0,0.669,2.972,2.779,12.197
		c0,0,2.47,10.055-0.13,15.471C397.211,229.965,381.894,228.272,371.113,230.912z"/>
	<path fill="#FFFFFF" stroke="#809720" stroke-width="2" stroke-miterlimit="10" d="M427.985,240.782l-6.084,2.694v4.578
		l-1.295-0.376l-0.209-4.12c0,0-16.053-5.854-23.188-13.594c0,0-1.348-1.187,0.707-1.615c0,0,15.229,11.119,23.062,12.996
		c0,0,5.521-2.465,8.033-3.65C429.015,237.695,429.565,239.787,427.985,240.782z"/>
	<path fill="#FFFFFF" stroke="#809720" stroke-width="1.1193" stroke-miterlimit="10" d="M417.269,250.109
		c0,2.054,1.672,3.721,3.729,3.721c2.055,0,3.72-1.667,3.72-3.721c0-2.056-1.665-3.722-3.72-3.722
		C418.94,246.388,417.269,248.054,417.269,250.109z"/>
	<path fill="#FFFFFF" stroke="#809720" stroke-width="1.679" stroke-miterlimit="10" d="M446.687,212.715
		c0,0,2.407,6.277-6.117,6.502c0,0-3.561,0.137-2.363-4.086c0,0,0.902-3.125,2.789-4.064
		C440.995,211.066,445.296,209.131,446.687,212.715z"/>
	<path fill="#809720" stroke="#FFFFFF" stroke-width="3.6565" stroke-miterlimit="10" d="M412.819,217.918
		c0,0-0.097,2.09-1.963,2.065c0,0-1.896-0.051-1.922-2.065c0,0,0.227-1.895,2.094-1.895
		C411.028,216.024,412.745,216.125,412.819,217.918z"/>
	<path fill="#FFFFFF" stroke="#809720" stroke-width="1.679" stroke-miterlimit="10" d="M412.819,204.041
		c0,0-6.118,0.692-6.118,5.685c0,0,0,12.942,6.597,14.659c0,0,5.331,1.812,7.812-7.094c0,0,1.33-6.422-0.908-11.508
		C420.202,205.783,419.164,203.254,412.819,204.041z"/>
</g>
</svg>
