<?xml version="1.0" encoding="utf-8"?>
<!-- Generator: Adobe Illustrator 16.0.0, SVG Export Plug-In . SVG Version: 6.00 Build 0)  -->
<!DOCTYPE svg PUBLIC "-//W3C//DTD SVG 1.1//EN" "http://www.w3.org/Graphics/SVG/1.1/DTD/svg11.dtd">
<svg version="1.1" id="Layer_1" xmlns="http://www.w3.org/2000/svg" xmlns:xlink="http://www.w3.org/1999/xlink" x="0px" y="0px"
	 width="300px" height="330px" viewBox="220 15 300 330" enable-background="new 220 15 300 330" xml:space="preserve">
<g>
	<path fill="#FFFFFF" stroke="#EEA831" stroke-width="4" stroke-miterlimit="10" d="M487.808,78.296
		C466.045,202.936,483.027,331,483.027,331H274.92c0,0,10.727-153.784-14.235-250.755c0,0,91.096-9.596,138.394-43.228
		c0,0,30.135,32.115,85.804,39.236L487.808,78.296z"/>
	<path fill="#FFFFFF" stroke="#EEA831" stroke-width="2.6" stroke-miterlimit="10" d="M309.484,72.187
		c0,0-10.88-17.412-17.704-35.686c0,0-4.386-6.145,12.997-6.451c0,0,14.619,0.153,16.894-8.906c0,0,1.947-5.682,5.849,5.527
		c0,0,6.821,16.894,9.419,38.386"/>
	<polygon fill="#FFFFFF" stroke="#EEA831" stroke-width="4.3604" stroke-miterlimit="10" points="417.49,209.404 420.002,286.957 
		457.672,284.979 447.21,210.986 	"/>
	<polygon fill="#FFFFFF" stroke="#EEA831" stroke-width="4" stroke-miterlimit="10" points="307.779,225.344 300.872,304 
		333.934,304 338.121,223.521 	"/>
	<polygon fill="#FFFFFF" stroke="#EEA831" stroke-width="4.3604" stroke-miterlimit="10" points="296.686,157.56 308.172,199.906 
		330.631,197.145 336.117,149.734 	"/>
	<polygon fill="#FFFFFF" stroke="#EEA831" stroke-width="4.3604" stroke-miterlimit="10" points="364.627,168.596 402.754,168.244 
		393.755,206.736 356.887,207.126 	"/>
	<polygon fill="#FFFFFF" stroke="#EEA831" stroke-width="4.3604" stroke-miterlimit="10" points="424.789,150.106 414.857,193.137 
		456.6,195.855 455.777,151.456 	"/>
	<path fill="#FFFFFF" stroke="#EEA831" stroke-width="4" stroke-miterlimit="10" d="M346.756,140h80.362
		c0,0,5.438-65.21-35.992-67.859C391.126,72.141,344.301,63,346.756,140z"/>
	<polygon fill="#FFFFFF" stroke="#EEA831" stroke-width="4" stroke-miterlimit="10" points="357.09,235 354.116,313 403.258,313 
		402.648,235 	"/>
	<ellipse fill="#EEA831" cx="390.297" cy="273.701" rx="5.145" ry="4.859"/>
	
		<line fill="none" stroke="#EEA831" stroke-width="2.1802" stroke-miterlimit="10" x1="316.59" y1="154.107" x2="318.061" y2="198.691"/>
	
		<line fill="none" stroke="#EEA831" stroke-width="2.1802" stroke-miterlimit="10" x1="302.901" y1="179.281" x2="333.428" y2="172.981"/>
	
		<line fill="none" stroke="#EEA831" stroke-width="2.1802" stroke-miterlimit="10" x1="360.792" y1="187.684" x2="398.08" y2="187.055"/>
	
		<line fill="none" stroke="#EEA831" stroke-width="2.1802" stroke-miterlimit="10" x1="384.424" y1="168.413" x2="375.503" y2="206.941"/>
	
		<line fill="none" stroke="#EEA831" stroke-width="2.1802" stroke-miterlimit="10" x1="440.002" y1="150.769" x2="435.729" y2="194.467"/>
	
		<line fill="none" stroke="#EEA831" stroke-width="2.1802" stroke-miterlimit="10" x1="419.711" y1="170.921" x2="456.176" y2="172.981"/>
	
		<line fill="none" stroke="#EEA831" stroke-width="2.1802" stroke-miterlimit="10" x1="305.262" y1="251.164" x2="336.117" y2="249.367"/>
	
		<line fill="none" stroke="#EEA831" stroke-width="2.1802" stroke-miterlimit="10" x1="320.688" y1="250.266" x2="316.59" y2="301.596"/>
	
		<line fill="none" stroke="#EEA831" stroke-width="2.1802" stroke-miterlimit="10" x1="302.901" y1="277.636" x2="335.28" y2="275.932"/>
	<line fill="none" stroke="#EEA831" stroke-width="3" stroke-miterlimit="10" x1="418" y1="240.5" x2="451" y2="240.5"/>
	
		<line fill="none" stroke="#EEA831" stroke-width="2.0826" stroke-miterlimit="10" x1="434.021" y1="239.834" x2="440.002" y2="285.273"/>
	
		<line fill="none" stroke="#EEA831" stroke-width="2.1802" stroke-miterlimit="10" x1="419.186" y1="261.658" x2="453.266" y2="253.807"/>
	<polygon fill="#FFFFFF" stroke="#EEA831" stroke-width="3" stroke-miterlimit="10" points="348.01,321.5 350.205,313.5 
		408.279,313.5 409.85,321.5 	"/>
	<polyline fill="#FFFFFF" stroke="#EEA831" stroke-width="2.1802" stroke-miterlimit="10" points="338.591,329.512 340.475,322.389 
		417.49,321.201 419.27,329.512 	"/>
	<line fill="none" stroke="#EEA831" stroke-width="3" stroke-miterlimit="10" x1="349" y1="112.5" x2="425" y2="112.5"/>
	<line fill="none" stroke="#EEA831" stroke-width="3" stroke-miterlimit="10" x1="386.5" y1="140" x2="386.5" y2="73"/>
	<path fill="none" stroke="#EFA931" stroke-width="13.4295" stroke-miterlimit="10" d="M235,78.433
		c0,0,107.673-4.748,164.492-46.294c0,0,34.156,36.797,104.642,42.731"/>
	<path fill="none" stroke="#FFFFFF" stroke-width="6.5405" stroke-miterlimit="10" d="M237.513,78.433
		c0,0,105.896-4.748,161.565-46.294c0,0,33.066,36.797,102.125,42.731"/>
</g>
</svg>
