<?xml version="1.0" encoding="utf-8"?>
<!-- Generator: Adobe Illustrator 16.0.0, SVG Export Plug-In . SVG Version: 6.00 Build 0)  -->
<!DOCTYPE svg PUBLIC "-//W3C//DTD SVG 1.1//EN" "http://www.w3.org/Graphics/SVG/1.1/DTD/svg11.dtd">
<svg version="1.1" id="Layer_1" xmlns="http://www.w3.org/2000/svg" xmlns:xlink="http://www.w3.org/1999/xlink" x="0px" y="0px"
	 width="140px" height="140px" viewBox="0 0 140 140" enable-background="new 0 0 140 140" xml:space="preserve">
<g>
	<path fill="#FFFFFF" stroke="#259DC4" stroke-width="1.4837" stroke-miterlimit="10" d="M49.994,130.814c0,0,3.387,0.669,8.341,0
		c0.628-0.086,1.874-0.18,4.17,0.154c0,0,4.849,0.771,6.93-0.629c0,0,0.743-2.004-0.801-4.674
		C68.634,125.666,50.578,128.34,49.994,130.814z"/>
	<path fill="#FFFFFF" stroke="#259DC4" stroke-width="2" stroke-miterlimit="10" d="M87.459,93.062c0,0-15.104-8.791-36.819-12.574
		c0,0-7.809-1.502-9.812,2.616c0,0-2.345,3.538,1.029,9.735l12.646,19.806l10.812-4.282c0,0-2.018-6.364-5.493-11.93
		c0,0-1.372-1.842,0.287-0.506c0,0,9.133,7.699,16.077,8.15L87.459,93.062z"/>
	<path fill="#FFFFFF" stroke="#259DC4" stroke-width="1.4837" stroke-miterlimit="10" d="M88.594,90.584
		c0,0-0.825-4.871,0.709-7.289l15.821-2.418c0,0,1.2,5.783,0.485,11.684C104.891,98.459,88.594,90.584,88.594,90.584z"/>
	<path fill="#FFFFFF" stroke="#259DC4" stroke-width="2" stroke-miterlimit="10" d="M106.167,90.893c0,0-0.113,8.457-1.945,15.355
		c0,0-1.603,7.9-11.672,8.568c0,0-7.151-0.403-13.503,0.779c0,0-24.889,4.826-28.265,4.506l-0.8-0.166c0,0,1.26,0.333,2.289,0.444
		l-2.289,1.058c0,0,2.85-1.518,14.876-2.949c0,0,8.872-1.258,15.639-2.699c0,0,3.555-0.832,13.611-0.709l2.677,8.582
		c0,0-15.163-1.335-50.064,8.012c0,0-8.181,2.727-11.844-4.338c0,0-2.402-4.453,3.662-10.684c0,0,4.52-4.395,19.452-11.017
		c0,0,12.636-5.091,24.203-9.235c0,0,5.607-1.725,5.836-7.566c0,0,3.091-0.501,9.84,0.891c0,0,3.836,0.834,6.181,0.277
		C104.051,90.002,106.167,89.668,106.167,90.893z"/>
	<path fill="#FFFFFF" stroke="#259DC4" stroke-width="1.4837" stroke-miterlimit="10" d="M92.735,129.895
		c0,0-0.129-1.231,1.589-1.836c0,0,1.822-0.355,1.801-2.922c0,0,0.247-3.449-1.63-7.01c0,0-1.208-2.133-0.387-3.047
		c0,0,4.632-0.881,6.566-2.774c0,0,2.188,1.481,1.501,5.112c0,0-0.729,3.88-0.358,7.552c0,0,0.617,3.965-0.37,5.592
		c0,0-0.387,0.808-4.55,0.946C96.897,131.508,92.922,131.73,92.735,129.895z"/>
	<path fill="#FFFFFF" stroke="#259DC4" stroke-width="1.4837" stroke-miterlimit="10" d="M97.529,101.853c0,0-2.104,3.38-2.09,5.446
		c0,0,0,4.693,1.458,5.445c0,0,1.16,1.001,4.506-2.754c0,0,2.404-2.338,2.789-6.761C104.192,103.229,100.288,103.855,97.529,101.853
		z"/>
	<path fill="#FFFFFF" stroke="#259DC4" stroke-width="1.4837" stroke-miterlimit="10" d="M91.318,89.998
		c-1.486-0.329-2.58-0.887-2.58-0.887c-1.592-0.768-1.875-0.172-1.875-0.172c-0.864,1.396-0.551,2.955-0.551,2.955
		s0.097,0.693,1.786,0.526c0,0,1.891-0.145,3.564,0.488c0,0,3.175,1.35,9.126,1.836c0,0,1.119,0.071,2.246,0.046
		c0,0,2.446-0.012,3.33,0.219c0,0,0.457-0.834,0.271-2.759c0,0-2.38-1.312-9.107-1.667C97.529,90.584,93.122,90.398,91.318,89.998z"
		/>
	<path fill="#FFFFFF" stroke="#259DC4" stroke-miterlimit="10" d="M103.035,95.636c0,0,1.05-2.474,0-4.841
		c0,0,0.515-0.668,1.157,0.375c0,0,1.116,2.045,0.302,3.924C104.494,95.094,104.021,96.053,103.035,95.636z"/>
	<path fill="#FFFFFF" stroke="#259DC4" stroke-miterlimit="10" d="M92.374,93.928c0,0-0.663-2.333,0.615-4.232
		c0,0-0.378-0.648-1.091,0.186c0,0-1.264,1.537-0.674,3.404C91.225,93.285,91.568,94.182,92.374,93.928z"/>
	<polygon fill="#FFFFFF" stroke="#259DC4" stroke-width="1.4" stroke-miterlimit="10" points="47.878,21.148 38.859,18.906 
		36.704,27.215 45.861,29.588 	"/>
	<path fill="#FFFFFF" stroke="#259DC4" stroke-width="1.4" stroke-miterlimit="10" d="M51.934,7.481l6.537,2.591l-2.042,7.696
		h-1.819l-0.102,0.33c0,0,1.338-0.007,2.299,1.884c0,0,0.479,1.346,2.17,1.543c0,0,0.807-0.063,0.607,0.919L57.816,33.26
		c0,0-0.111,2.784-4.226,2.096c0,0-9.028-0.554-8.749-5.562c0,0,1.002-4.733,2.422-10.063c0,0,0.204-2.111,3.609-1.693
		c0,0,0.209-1.502,2.506-1.011l1.23-5.665c0,0-0.556-1.867-2.907-2.07L51.934,7.481z"/>
	<path fill="#FFFFFF" stroke="#259DC4" stroke-width="1.7" stroke-miterlimit="10" d="M59.635,60.793l-0.672,0.835
		c0,0-3.833-8.513-4.004-20.642c0,0,0.057-6.287,1.373-9.569c0,0,1.988-4.131,0.965-7.567c0,0-0.377-1.791-1.122-3.49
		c0,0-1.522-0.585-0.815,1.71c0,0,0.688,1.106,0.431,2.191c0,0-0.193,0.271-0.581,0.417c0,0-1.051-0.167-2.532-1.69
		c0,0-1.544-1.355-2.617-0.646c0,0-1.522,1.314-2.102,3.109c0,0-0.287,1.032-0.601,1.669c0,0-0.816,1.439-0.301,2.523
		c0,0,1.116,1.523,3.562,2.838c0,0,1.266,0.557,1.31,1.996c0,0-3.205,19.418-0.63,29.146c0,0,2.088,7.629,5.777,7.881
		c0,0,2.559,0.639,8.411-5.48L59.635,60.793z"/>
	<path fill="#FFFFFF" stroke="#259DC4" stroke-width="2" stroke-miterlimit="10" d="M59.814,59.755
		c-0.346,0.407-0.135,1.025,0.148,1.481c3.348,5.354,5.819,5.681,5.819,5.681c1.873-0.911,5.356-4.729,5.356-4.729
		c1.172,5.254,11.554,12.917,11.554,12.917c2.663,1.708,2.899,4.989,2.899,4.989c0.232,1.193,0.869,1.703,0.869,1.703
		c0.834,0.875,0.638,1.73,0.638,1.73c-0.13,1.078,0.353,1.71,0.353,1.71c0.439,0.679,0.424,1.37,0.424,1.37
		c0.672,0.031,1.405-0.379,1.405-0.379c1.696-1.086,3.601-0.732,3.601-0.732c4.862,0.434,7.79-1.766,7.79-1.766
		c2.856-1.656,5.185-0.814,5.185-0.814s0.353,0.125,0-2.162c0,0-2.286-20.855-13.706-35.32l-7.496-5.81
		c0,0-7.554-0.342-14.993,8.656C69.66,48.28,65.205,53.422,59.814,59.755z"/>
	<path fill="#FFFFFF" stroke="#259DC4" stroke-width="1.4837" stroke-miterlimit="10" d="M87.3,83.295c0,0,0.918-1.615,4.067-1.947
		c0,0,2.21-0.164,4.854-1.906c0,0,5.457-3.524,9.039-1.209"/>
	<path fill="#FFFFFF" stroke="#259DC4" stroke-width="1.4837" stroke-miterlimit="10" d="M85.644,78.653
		c0,0,2.132,0.415,4.902-2.155c0,0,7.101-6.763,13.762-2.637"/>
	<path fill="#FFFFFF" stroke="#259DC4" stroke-width="1.4837" stroke-miterlimit="10" d="M83.861,75.604
		c0,0,7.639-9.193,19.212-6.766"/>
	<path fill="#FFFFFF" stroke="#259DC4" stroke-width="1.4837" stroke-miterlimit="10" d="M80.347,72.787
		c0,0,2.814-6.396,8.707-6.893c0,0,4.284-0.125,7.57-1.824c0,0,2.494-1.244,4.802-0.229"/>
	<path fill="#FFFFFF" stroke="#259DC4" stroke-width="1.4837" stroke-miterlimit="10" d="M75.143,68.114c0,0,1.717,0.015,3.36-1.999
		c0,0,2.947-4.363,9.551-4.601c0,0,4.706-0.042,7.819-2.114c0,0,2.114-1.492,3.419-1.04"/>
	<path fill="#FFFFFF" stroke="#259DC4" stroke-width="1.4837" stroke-miterlimit="10" d="M71.978,63.353c0,0,2.336-3.81,8.005-3.81
		c0,0,4.476,0.279,8.1-2.543c0,0,4.789-4.094,8.71-3.862"/>
	<path fill="#FFFFFF" stroke="#259DC4" stroke-width="1.4837" stroke-miterlimit="10" d="M94.834,49.846
		c0,0-2.801-1.182-12.025,4.271c0,0-3.248,1.947-5.191,1.947c0,0-1.659-6.036-8.529-6.569"/>
	<path fill="#FFFFFF" stroke="#259DC4" stroke-width="1.4837" stroke-miterlimit="10" d="M92.51,46.451c0,0-2.703-1.001-5.292,0.555
		c0,0-1.163-4.924-7.618-5.908"/>
	<path fill="#FFFFFF" stroke="#259DC4" stroke-width="1.4837" stroke-miterlimit="10" d="M71.602,46.652
		c0,0,7.026-0.249,9.159,6.701"/>
	<path fill="#FFFFFF" stroke="#259DC4" stroke-width="1.4837" stroke-miterlimit="10" d="M74.815,43.821c0,0,7.021-0.714,9.569,6.62
		"/>
	<path fill="none" stroke="#259DC4" stroke-width="1.4837" stroke-miterlimit="10" d="M87.826,42.082c0,0,3.365,5.271-9.637,13.629
		c0,0-4.42,3.508-7.051,6.477"/>
	<path fill="#FFFFFF" stroke="#259DC4" stroke-width="1.4837" stroke-miterlimit="10" d="M66.43,52.579c0,0,5.307-0.249,7.758,6.016
		"/>
	<path fill="#FFFFFF" stroke="#259DC4" stroke-width="1.4837" stroke-miterlimit="10" d="M63.814,55.628c0,0,5.273,0.616,7.07,6.833
		"/>
	<path fill="#FFFFFF" stroke="#259DC4" stroke-width="1.4837" stroke-miterlimit="10" d="M68.199,64.674
		c0,0-1.915,0.105-2.849-2.542c0,0-1.159-3.548-4.332-3.286"/>
	<path fill="#FFFFFF" stroke="#259DC4" stroke-width="1.4" stroke-miterlimit="10" d="M39.063,18.672c0,0-0.272,4.42-2.292,8.412
		h-3.062c0,0,2.082-4.121,2.701-9.871L39.063,18.672z"/>
	<path fill="#FFFFFF" stroke="#259DC4" stroke-width="1.1" stroke-miterlimit="10" d="M82.079,39.445
		c-1.036-4.356-8.202-2.354-8.202-2.354c-4.656,0.939-6.523-0.167-6.523-0.167c-1.438-0.855-0.752-2.698-0.752-2.698
		c0.26-0.96,0.216-1.287,0.216-1.287c-0.021-0.98-0.559-1.449-0.559-1.449c-0.021-0.209,0.987-1.033,0.987-1.033
		c-0.922-0.459-1.395-1.211-1.395-1.211c0.815-0.604,0.836-1.126,0.836-1.126c0.216-0.585-0.943-0.96-0.943-0.96
		c-1.425-0.479-1.417-1.002-1.417-1.002c-0.214-0.876,3.649-2.962,3.649-2.962c1.414-1.001,1.284-2.628,1.284-2.628
		c0.085-3.59,1.462-5.592,1.462-5.592l19.397,4.59l0.429,19.027l-3.331,4.757L82.079,39.445z"/>
	<path fill="#FFFFFF" stroke="#259DC4" stroke-width="1.4837" stroke-miterlimit="10" d="M72.867,16.742
		c-0.742,1.99,0.594,4.529,0.594,4.529c-6.173-2.798-3.615-7.698-3.615-7.698c-4.187,0.985-2.879,5.855-2.879,5.855
		c-3.368-5.26,1.512-7.974,1.512-7.974s2.11-1.273,5.398-0.635c0,0,7.101-5.762,16.555-0.611c0,0,6.435,3.625,5.809,11.768
		c0,0-0.059,2.33-1.081,6.063c0,0-2.267,8.65,3.799,12.056c0,0-1.888,0.668-4.124-0.125c0,0,2.231,4.684,8.098,2.912
		c0,0-0.908,3.129-7.003,2.188c0,0,1.025,2.021,4.016,2.104c0,0-2.347,2.385-8.411-0.522c0,0-1.135-0.517-4.634-3.301
		c0,0-3.776-2.962-10.169-1.641c0,0,4.22-1.56,5.16-3.505c0,0-1.66,2.271-4.582,1.102c0,0,2.299-0.719,2.783-1.742
		c0,0-1.673,0.166-2.783-0.666c0,0,4.01-0.44,4.949-4.18c0,0-1.926,0.645-3.275-0.027c0,0,2.254-0.106,3.128-3.313
		c0,0-3.793-1.142-3.835-6.308c0,0-4.088-1.088-5.271-5.939L72.867,16.742z"/>
</g>
</svg>
