<?xml version="1.0" encoding="utf-8"?>
<!-- Generator: Adobe Illustrator 16.0.0, SVG Export Plug-In . SVG Version: 6.00 Build 0)  -->
<!DOCTYPE svg PUBLIC "-//W3C//DTD SVG 1.1//EN" "http://www.w3.org/Graphics/SVG/1.1/DTD/svg11.dtd">
<svg version="1.1" id="Layer_1" xmlns="http://www.w3.org/2000/svg" xmlns:xlink="http://www.w3.org/1999/xlink" x="0px" y="0px"
	 width="200px" height="120px" viewBox="270 120 200 120" enable-background="new 270 120 200 120" xml:space="preserve">
<g>
	<path fill="#FFFFFF" stroke="#4B3A22" stroke-width="3" stroke-miterlimit="10" d="M281.377,218.533h177.396
		c0,0-0.399-24.561-11.399-34.217v-23.418l-10.78-23.07l-66.906-4.764c0,0-22.019,8.479-36.288,37.06
		c0,0-51.784,2.851-51.784,30.684L281.377,218.533z"/>
	
		<line fill="none" stroke="#4B3A22" stroke-width="1.7789" stroke-miterlimit="10" x1="334.238" y1="170.124" x2="334.238" y2="211.746"/>
	
		<line fill="none" stroke="#4B3A22" stroke-width="1.7789" stroke-miterlimit="10" x1="386.2" y1="163.621" x2="386.2" y2="214.837"/>
	<path fill="#FFFFFF" stroke="#4B3A22" stroke-width="1.7789" stroke-miterlimit="10" d="M406.509,215.1c0,0,0-20.572,19.113-22.779
		v-32.232"/>
	<path fill="#FFFFFF" stroke="#4B3A22" stroke-width="2" stroke-miterlimit="10" d="M459.9,210.662
		c4.763,5.301,0.668,7.371,0.668,7.371H277.795l2.238-6.304L459.9,210.662z"/>
	<path fill="#FFFFFF" stroke="#4B3A22" stroke-width="2" stroke-miterlimit="10" d="M339.228,214.807
		c0,10.062-8.276,18.22-18.484,18.22c-10.214,0-18.487-8.157-18.487-18.22c0-10.064,8.273-18.224,18.487-18.224
		C330.952,196.584,339.228,204.742,339.228,214.807z"/>
	<ellipse fill="#4B3A22" cx="320.595" cy="214.807" rx="7.882" ry="7.771"/>
	<path fill="#FFFFFF" stroke="#4B3A22" stroke-width="2" stroke-miterlimit="10" d="M414.585,204.824
		c5.595-8.418,17.054-10.771,25.593-5.257c8.541,5.513,10.928,16.806,5.336,25.226c-5.596,8.416-17.055,10.771-25.598,5.258
		C411.378,224.536,408.989,213.242,414.585,204.824z"/>
	<path fill="#4B3A22" d="M423.936,210.551c2.389-3.59,7.271-4.594,10.914-2.241c3.642,2.352,4.658,7.168,2.274,10.756
		c-2.388,3.592-7.272,4.596-10.914,2.242C422.568,218.956,421.551,214.14,423.936,210.551z"/>
	<path fill="none" stroke="#4B3A22" stroke-width="2.187" stroke-miterlimit="10" d="M345.888,168.623c0,0,5.821-15.6,26.499-27.078
		l45.174,1.766c0,0,3.885,7.205,7.472,16.191C425.031,159.502,385.242,163.045,345.888,168.623z"/>
</g>
</svg>
