<?xml version="1.0" encoding="utf-8"?>
<!-- Generator: Adobe Illustrator 16.0.0, SVG Export Plug-In . SVG Version: 6.00 Build 0)  -->
<!DOCTYPE svg PUBLIC "-//W3C//DTD SVG 1.1//EN" "http://www.w3.org/Graphics/SVG/1.1/DTD/svg11.dtd">
<svg version="1.1" id="Layer_1" xmlns="http://www.w3.org/2000/svg" xmlns:xlink="http://www.w3.org/1999/xlink" x="0px" y="0px"
	 width="740px" height="360px" viewBox="0 0 740 360" enable-background="new 0 0 740 360" xml:space="preserve">
<g>
	<path fill="#FFFFFF" stroke="#4B3A22" stroke-width="3" stroke-miterlimit="10" d="M41.503,328.5H218.9c0,0-0.4-24.56-11.4-34.217
		v-23.418l-10.78-23.07l-66.906-4.764c0,0-22.019,8.48-36.288,37.06c0,0-51.784,2.851-51.784,30.683L41.503,328.5z"/>
	
		<line fill="#FFFFFF" stroke="#4B3A22" stroke-width="1.7789" stroke-miterlimit="10" x1="94.364" y1="280.091" x2="94.364" y2="321.713"/>
	
		<line fill="#FFFFFF" stroke="#4B3A22" stroke-width="1.7789" stroke-miterlimit="10" x1="146.326" y1="273.588" x2="146.326" y2="324.804"/>
	<path fill="#FFFFFF" stroke="#4B3A22" stroke-width="1.7789" stroke-miterlimit="10" d="M166.635,325.066
		c0,0,0-20.572,19.113-22.779v-32.232"/>
	<path fill="#FFFFFF" stroke="#4B3A22" stroke-width="2" stroke-miterlimit="10" d="M220.027,320.629
		c4.762,5.301,0.667,7.371,0.667,7.371H37.921l2.238-6.304L220.027,320.629z"/>
	<path fill="#FFFFFF" stroke="#4B3A22" stroke-width="2" stroke-miterlimit="10" d="M99.354,324.773
		c0,10.062-8.276,18.22-18.484,18.22c-10.214,0-18.487-8.157-18.487-18.22c0-10.064,8.273-18.223,18.487-18.223
		C91.078,306.551,99.354,314.709,99.354,324.773z"/>
	<ellipse fill="#4B3A22" cx="80.721" cy="324.774" rx="7.882" ry="7.771"/>
	<path fill="#FFFFFF" stroke="#4B3A22" stroke-width="2" stroke-miterlimit="10" d="M174.711,314.791
		c5.594-8.418,17.054-10.771,25.593-5.257c8.541,5.513,10.927,16.806,5.335,25.226c-5.595,8.416-17.054,10.771-25.597,5.258
		C171.504,334.503,169.115,323.209,174.711,314.791z"/>
	<path fill="#4B3A22" d="M184.062,320.518c2.388-3.59,7.271-4.594,10.913-2.242s4.659,7.168,2.275,10.756
		c-2.388,3.592-7.272,4.596-10.914,2.242C182.695,328.923,181.677,324.106,184.062,320.518z"/>
	<path fill="none" stroke="#4B3A22" stroke-width="2.187" stroke-miterlimit="10" d="M106.014,278.59c0,0,5.821-15.6,26.499-27.078
		l45.174,1.766c0,0,3.885,7.205,7.471,16.191C185.157,269.469,145.368,273.012,106.014,278.59z"/>
</g>
</svg>
