<?xml version="1.0" encoding="utf-8"?>
<!-- Generator: Adobe Illustrator 16.0.0, SVG Export Plug-In . SVG Version: 6.00 Build 0)  -->
<!DOCTYPE svg PUBLIC "-//W3C//DTD SVG 1.1//EN" "http://www.w3.org/Graphics/SVG/1.1/DTD/svg11.dtd">
<svg version="1.1" id="Layer_1" xmlns="http://www.w3.org/2000/svg" xmlns:xlink="http://www.w3.org/1999/xlink" x="0px" y="0px"
	 width="380px" height="300px" viewBox="0 0 380 300" enable-background="new 0 0 380 300" xml:space="preserve">
<path fill="#EF6C68" stroke="#FFFFFF" stroke-width="6" stroke-miterlimit="10" d="M41,221.144v28.01
	c0,0-4.04,43.293,140.497,45.147c0,0,109.503,0.775,140.503-36.171v-30.536c0,0-47.873,28.979-140.503,28.977
	C181.497,256.57,70,253.606,41,221.144z"/>
<path fill="#EF6C68" stroke="#FFFFFF" stroke-width="5.2661" stroke-miterlimit="10" d="M319.882,217.062l2.634,10.531
	c0,0-41.259,41.257-138.238,41.257c0,0-96.102,3.031-136.914-39.244l1.309-4.646L319.882,217.062z"/>
<path fill="#EF6C68" stroke="#FFFFFF" stroke-width="6" stroke-miterlimit="10" d="M52.646,228.177c0,0,19.756-6.003,27.326,7.937
	c6.416,6.979,11.495,15.744,41.799,0.458c0,0,15.469-7,31.597,9.939c0,0,11.521,15.293,26.001,2.485c0,0,12.508-13.01,22.053-3.095
	c0,0,19.09,11.513,35.961-5.504c0,0,11.434-14.473,22.625-3.731c0,0,16.101,18.979,30.823-3.687c0,0,9.962-10.688,27.432-11.816
	c0,0,25.977,8.837,17.022-24.163H35.515C35.515,197,19.058,223.006,52.646,228.177"/>
<path fill="#EF6C68" stroke="#FFFFFF" stroke-width="5.2661" stroke-miterlimit="10" d="M57.896,166.384
	c0,0-14.482,2.479-21.064,14.048c0,0-13.166,23.134,14.474,21.48c0,0,21.401-4.438,28.971,9.503c0,0,11.52,19.002,34.888,7.02
	c0,0,20.734-9.497,36.862,7.438c0,0,11.52,15.7,26.001,2.895c0,0,12.506-12.811,22.052-2.895c0,0,19.089,11.614,35.963-5.405
	c0,0,11.432-14.423,22.621-3.683c0,0,15.141,15.699,29.623-1.238c0,0,10.696-17.989,28.635-14.046c0,0,21.428,2.741,19.29-13.118
	c0,0-1.52-12.708-13.367-12.708"/>
<path fill="#EF6C68" stroke="#FFFFFF" stroke-width="5.2661" stroke-miterlimit="10" d="M117.797,165.954l-61.876-24.573
	c0,0-13.165-4.3-13.165,5.066c0,0-8.996,4.734,1.537,10.796c0,0-3.95,4.154,0.438,8.289c0,0-1.316,9.926,6.582,7.446
	c0,0-8.008,12.538,6.583,10.337c0,0-0.99,8.022,7.021,5.372c0,0-2.084,13.573,9.642,11.161c0,0,2.273,11.497,14.122,9.488
	c0,0,7.167,7.364,20.553,4.803c0,0,41.475,18.349,96.988-14.291c0,0,82.888,16.315,88.482-7.646c0,0,14.646,1.447,17.938-10.121
	c0,0,13.493,6.346,12.177-4.395c0,0,7.405-1.833,3.784-7.201c0,0,7.571-6.224-0.821-7.668c0,0,6.417-4.264-2.633-6.537l-4.443-3.6"
	/>
<path fill="#EF6C68" stroke="#FFFFFF" stroke-width="5.2661" stroke-miterlimit="10" d="M78.555,154.689
	c0,0-22.101,19.855,9.485,32.188c0,0,33.797,17.788,102.167-1.33"/>
<path fill="#EF6C68" stroke="#FFFFFF" stroke-width="5.2661" stroke-miterlimit="10" d="M319.11,135.343
	c0,0,17.995,17.256-6.689,27.475c0,0-29.843,14.707-87.548-1.43"/>
<polyline fill="#EF6C68" stroke="#FFFFFF" stroke-width="5.2661" stroke-miterlimit="10" points="80.276,157.709 77.644,161.012 
	187.572,191.396 232.169,235.788 283.515,183.734 298.983,151.1 "/>
<polyline fill="#EF6C68" stroke="#FFFFFF" stroke-width="5.2661" stroke-miterlimit="10" points="187.572,191.396 242.702,252.315 
	283.515,183.734 "/>
<path fill="#EF6C68" stroke="#FFFFFF" stroke-width="5.2661" stroke-miterlimit="10" d="M46.437,192.852"/>
<path fill="#EF6C68" stroke="#FFFFFF" stroke-width="5.2661" stroke-miterlimit="10" d="M46.046,143.767
	c0,0-3.628-135.591,136.917-135.484c0,0,128.141-8.899,139.552,135.484C322.516,143.767,189.108,190.247,46.046,143.767z"/>
<path fill="#EF6C68" stroke="#FFFFFF" stroke-width="5.2661" stroke-miterlimit="10" d="M99.7,118.924c0,0-9.164-19.65,2.142-25.658
	C101.842,93.266,111.863,90.761,99.7,118.924z"/>
<path fill="#EF6C68" stroke="#FFFFFF" stroke-width="5.2661" stroke-miterlimit="10" d="M150.751,64.484
	c0,0-6.582-16.174,2.698-20.435C153.449,44.049,161.565,42.531,150.751,64.484z"/>
<path fill="#EF6C68" stroke="#FFFFFF" stroke-width="5.2661" stroke-miterlimit="10" d="M221.843,82.285
	c0,0-6.582-16.173,2.698-20.435C224.541,61.851,232.658,60.332,221.843,82.285z"/>
<path fill="#EF6C68" stroke="#FFFFFF" stroke-width="5.2661" stroke-miterlimit="10" d="M179.715,114.92
	c0,0-6.582-16.174,2.696-20.434C182.412,94.486,190.53,92.967,179.715,114.92z"/>
<path fill="#EF6C68" stroke="#FFFFFF" stroke-width="5.2661" stroke-miterlimit="10" d="M266.976,120.532
	c0,0-10.681-13.104-3.02-20.376C263.956,100.156,271.265,95.895,266.976,120.532z"/>
</svg>
