<?xml version="1.0" encoding="utf-8"?>
<!-- Generator: Adobe Illustrator 16.0.0, SVG Export Plug-In . SVG Version: 6.00 Build 0)  -->
<!DOCTYPE svg PUBLIC "-//W3C//DTD SVG 1.1//EN" "http://www.w3.org/Graphics/SVG/1.1/DTD/svg11.dtd">
<svg version="1.1" id="Layer_1" xmlns="http://www.w3.org/2000/svg" xmlns:xlink="http://www.w3.org/1999/xlink" x="0px" y="0px"
	 width="380px" height="300px" viewBox="0 0 380 300" enable-background="new 0 0 380 300" xml:space="preserve">
<g>
	<path fill="#829F20" stroke="#FFFFFF" stroke-width="3" stroke-miterlimit="10" d="M230.02,295.095h-35.652V82.348l5.492-2.378
		l26.144,186.105L230.02,295.095z"/>
</g>
<line fill="#FFFFFF" stroke="#829F20" stroke-width="4" stroke-linecap="round" stroke-miterlimit="10" x1="193.373" y1="20.821" x2="193.198" y2="8.947"/>
<path fill="#829F20" stroke="#FFFFFF" stroke-width="3" stroke-miterlimit="10" d="M101.488,125.852c0,0,109.867,0,204.006-15.833
	c0,0-16.734-97.748-116.567-90.737C188.927,19.282,106.533,32.377,101.488,125.852z"/>
<path fill="#829F20" stroke="#FFFFFF" stroke-width="3" stroke-miterlimit="10" d="M164.258,123.948
	c0,0-5.954-61.842,29.517-105.168c0,0,42.098,24.198,51.289,99.485C245.063,118.265,208.021,121.808,164.258,123.948z"/>
<path fill="#829F20" stroke="#FFFFFF" stroke-width="2" stroke-miterlimit="10" d="M140.514,217.633c0,0-0.147-8.78,7.366-10.948
	c0,0-0.785,6.395-1.129,13.705"/>
<path fill="#829F20" stroke="#FFFFFF" stroke-width="2" stroke-miterlimit="10" d="M115.295,219.672c0,0-1.514-7.938,1.61-13.417
	c0,0,1.073-1.639,6.615-2.159c0,0,4.926-0.112,6.479,2.063c0,0,2.656,7.371-1.209,15.489"/>
<path fill="#829F20" stroke="#FFFFFF" stroke-width="2" stroke-miterlimit="10" d="M193.152,243.359c0,0,5.779-14.757,14.018-17.784
	c0,0-9.142,12.123-8.278,27.946c0,0,0.837,25.993-2.632,41.597h-12.789l2.462-3.176c0,0,2.881-1.446,0.718-17.772
	c0,0-19.507-2.53-35.539,3.106c0,0-2.227,3.175-2.587,15.022l2.666,3.18h-10.258l-0.429-17.986c0,0-2.096-2.459-5.786,0
	l-0.643,17.986h-10.762l2.671-3.033c0,0,0.865-5.35-1.954-17.553c0,0-3.175-15.682-2.887-21.173c0,0-23.489-9.604-25.506-26.647
	c0,0-6.79-10.982,21.094-11.123c0,0,24.19-0.306,34.303,1.863c0,0,5.134-9.92,11.636-11.653c0,0-0.87,3.864-3.616,15.856
	c0,0-3.208,13.072,0.17,20.111C159.224,242.127,179.138,239.93,193.152,243.359z"/>
<path fill="#829F20" stroke="#FFFFFF" stroke-width="2" stroke-miterlimit="10" d="M119.216,256.193l7.909,4.96v4.497l1.684-0.491
	l0.271-3.903c0,0,20.868-9.062,30.145-19.129c0,0,1.695-2.339-0.977-2.897c0,0-19.739,15.259-29.924,17.698
	c0,0-7.858-3.09-9.943-4.491C118.38,252.437,117.159,254.9,119.216,256.193z"/>
<path fill="#829F20" stroke="#FFFFFF" stroke-width="2" stroke-miterlimit="10" d="M133.146,268.407
	c0,2.723-2.214,4.933-4.937,4.933c-2.723,0-4.926-2.21-4.926-4.933s2.203-4.925,4.926-4.925
	C130.932,263.482,133.146,265.685,133.146,268.407z"/>
<path fill="#829F20" stroke="#FFFFFF" stroke-width="2" stroke-miterlimit="10" d="M94.902,219.705c0,0-3.13,8.163,7.954,8.451
	c0,0,4.627,0.176,3.073-5.311c0,0-1.175-4.062-3.627-5.281C102.302,217.564,96.709,215.045,94.902,219.705z"/>
<path fill="#829F20" stroke="#FFFFFF" stroke-width="2" stroke-miterlimit="10" d="M138.932,226.467c0,0,0.124,2.718,2.552,2.689
	c0,0,2.464-0.067,2.497-2.689c0,0-0.292-2.462-2.723-2.462C141.259,224.005,139.027,224.14,138.932,226.467z"/>
<path fill="#829F20" stroke="#FFFFFF" stroke-width="2" stroke-miterlimit="10" d="M138.932,208.424c0,0,7.954,0.904,7.954,7.389
	c0,0,0,16.829-8.575,19.061c0,0-6.933,2.356-10.158-9.219c0,0-1.729-8.35,1.181-14.959
	C129.333,210.695,130.683,207.407,138.932,208.424z"/>
</svg>
