<?xml version="1.0" encoding="utf-8"?>
<!-- Generator: Adobe Illustrator 16.0.0, SVG Export Plug-In . SVG Version: 6.00 Build 0)  -->
<!DOCTYPE svg PUBLIC "-//W3C//DTD SVG 1.1//EN" "http://www.w3.org/Graphics/SVG/1.1/DTD/svg11.dtd">
<svg version="1.1" id="Layer_1" xmlns="http://www.w3.org/2000/svg" xmlns:xlink="http://www.w3.org/1999/xlink" x="0px" y="0px"
	 width="380px" height="300px" viewBox="0 0 380 300" enable-background="new 0 0 380 300" xml:space="preserve">
<path fill="#F3AD31" d="M295.902,60.941c-20.077,114.991-4.409,229.559-4.409,229.559H99.496c0,0,9.896-138.297-13.133-227.762
	c0,0,84.042-9.562,127.679-40.59c0,0,28.125,24.769,79.162,36.553L295.902,60.941z"/>
<path fill="#F3AD31" stroke="#FFFFFF" stroke-width="2.0114" stroke-miterlimit="10" d="M131.384,53.886
	c0,0-10.037-16.064-16.333-32.924c0,0-4.047-5.669,11.99-5.951c0,0,13.489,0.142,15.586-8.216c0,0,1.798-5.243,5.396,5.1
	c0,0,6.293,15.584,8.69,35.413"/>
<polygon fill="#F3AD31" stroke="#FFFFFF" stroke-width="4.0228" stroke-miterlimit="10" points="231.029,180.48 233.347,252.03 
	268.1,250.204 258.448,181.941 "/>
<polygon fill="#F3AD31" stroke="#FFFFFF" stroke-width="4" stroke-miterlimit="10" points="129.811,195.561 123.438,268.5 
	153.942,268.5 157.806,194.065 "/>
<polygon fill="#F3AD31" stroke="#FFFFFF" stroke-width="4.0228" stroke-miterlimit="10" points="119.577,132.65 130.174,171.72 
	150.893,169.17 155.955,125.43 "/>
<polygon fill="#F3AD31" stroke="#FFFFFF" stroke-width="4.0228" stroke-miterlimit="10" points="182.258,142.831 217.435,142.507 
	209.132,178.019 175.118,178.379 "/>
<polygon fill="#F3AD31" stroke="#FFFFFF" stroke-width="4.0228" stroke-miterlimit="10" points="237.762,125.772 228.602,165.474 
	267.111,167.982 266.353,127.018 "/>
<path fill="#F3AD31" stroke="#FFFFFF" stroke-width="4" stroke-miterlimit="10" d="M165.771,117.5h74.14
	c0,0,5.018-60.163-33.205-62.606C206.706,54.894,163.506,44.5,165.771,117.5z"/>
<polygon fill="#F3AD31" stroke="#FFFFFF" stroke-width="4" stroke-miterlimit="10" points="175.305,205.5 172.561,276.5 
	217.897,276.5 217.337,205.5 "/>
<ellipse fill="#FFFFFF" cx="206.896" cy="238.844" rx="4.202" ry="3.97"/>
<line fill="#F3AD31" stroke="#FFFFFF" stroke-width="2.0114" stroke-miterlimit="10" x1="137.941" y1="129.465" x2="139.296" y2="170.598"/>
<line fill="#F3AD31" stroke="#FFFFFF" stroke-width="2.0114" stroke-miterlimit="10" x1="125.31" y1="152.69" x2="153.475" y2="146.877"/>
<line fill="#F3AD31" stroke="#FFFFFF" stroke-width="2.0114" stroke-miterlimit="10" x1="178.721" y1="160.441" x2="213.121" y2="159.861"/>
<line fill="#F3AD31" stroke="#FFFFFF" stroke-width="2.0114" stroke-miterlimit="10" x1="200.522" y1="142.662" x2="192.292" y2="178.209"/>
<line fill="#F3AD31" stroke="#FFFFFF" stroke-width="2.0114" stroke-miterlimit="10" x1="251.799" y1="126.384" x2="247.857" y2="166.698"/>
<line fill="#F3AD31" stroke="#FFFFFF" stroke-width="2.0114" stroke-miterlimit="10" x1="233.077" y1="144.977" x2="266.72" y2="146.877"/>
<line fill="#F3AD31" stroke="#FFFFFF" stroke-width="2.0114" stroke-miterlimit="10" x1="127.489" y1="219.008" x2="155.955" y2="217.35"/>
<line fill="#F3AD31" stroke="#FFFFFF" stroke-width="2.0114" stroke-miterlimit="10" x1="141.722" y1="218.178" x2="137.941" y2="265.537"/>
<line fill="#F3AD31" stroke="#FFFFFF" stroke-width="2.0114" stroke-miterlimit="10" x1="125.31" y1="243.432" x2="155.183" y2="241.857"/>
<line fill="#F3AD31" stroke="#FFFFFF" stroke-width="3" stroke-miterlimit="10" x1="230.5" y1="209" x2="260.5" y2="209"/>
<line fill="#F3AD31" stroke="#FFFFFF" stroke-width="1.9213" stroke-miterlimit="10" x1="246.281" y1="208.553" x2="251.799" y2="250.479"/>
<line fill="#F3AD31" stroke="#FFFFFF" stroke-width="2.0114" stroke-miterlimit="10" x1="232.593" y1="228.69" x2="264.035" y2="221.447"/>
<polygon fill="#F3AD31" stroke="#FFFFFF" stroke-width="3" stroke-miterlimit="10" points="166.927,285 168.952,277 222.532,277 
	223.981,285 "/>
<polyline fill="#F3AD31" stroke="#FFFFFF" stroke-width="2.0114" stroke-miterlimit="10" points="158.238,291.367 159.976,284.797 
	231.029,283.7 232.67,291.367 "/>
<line fill="#F3AD31" stroke="#FFFFFF" stroke-width="3" stroke-miterlimit="10" x1="166.5" y1="92" x2="236.5" y2="92"/>
<line fill="#F3AD31" stroke="#FFFFFF" stroke-width="3" stroke-miterlimit="10" x1="202" y1="117.5" x2="202" y2="54.5"/>
<path fill="none" stroke="#F4AE31" stroke-width="12.3899" stroke-miterlimit="10" d="M62.667,59.649
	c0,0,99.336-4.38,151.758-42.711c0,0,31.511,33.948,96.54,39.424"/>
<path fill="none" stroke="#FFFFFF" stroke-width="6.0342" stroke-miterlimit="10" d="M64.984,59.649c0,0,97.699-4.38,149.058-42.711
	c0,0,30.507,33.948,94.22,39.424"/>
</svg>
