<?xml version="1.0" encoding="utf-8"?>
<!-- Generator: Adobe Illustrator 16.0.0, SVG Export Plug-In . SVG Version: 6.00 Build 0)  -->
<!DOCTYPE svg PUBLIC "-//W3C//DTD SVG 1.1//EN" "http://www.w3.org/Graphics/SVG/1.1/DTD/svg11.dtd">
<svg version="1.1" id="Layer_1" xmlns="http://www.w3.org/2000/svg" xmlns:xlink="http://www.w3.org/1999/xlink" x="0px" y="0px"
	 width="380px" height="300px" viewBox="0 0 380 300" enable-background="new 0 0 380 300" xml:space="preserve">
<path fill="#25A5CC" stroke="#FFFFFF" stroke-width="5.0555" stroke-miterlimit="10" d="M364.209,230.634
	c0,26.019-14.799,53.393-40.785,53.393H69.312c-26,0-53.456-27.374-53.456-53.393V122.236c0-26.024,27.456-46.843,53.456-46.843
	h254.112c25.986,0,40.785,20.818,40.785,46.843V230.634z"/>
<rect x="54.766" y="62.335" fill="#25A5CC" stroke="#FFFFFF" stroke-width="3.7916" stroke-miterlimit="10" width="44.47" height="14.904"/>
<rect x="15.486" y="144.32" fill="#25A5CC" stroke="#FFFFFF" stroke-width="3.7916" stroke-miterlimit="10" width="348.354" height="67.059"/>
<polygon fill="#25A5CC" stroke="#FFFFFF" stroke-width="3.7916" stroke-miterlimit="10" points="172.192,69.806 181.968,21.377 
	268.716,21.377 276.634,69.806 "/>
<polygon fill="#25A5CC" stroke="#FFFFFF" stroke-width="3.7916" stroke-miterlimit="10" points="183.51,69.806 191.156,32.553 
	259.12,32.553 265.316,69.806 "/>
<path fill="#25A5CC" stroke="#FFFFFF" stroke-width="3.7916" stroke-miterlimit="10" d="M344.315,176.075
	c0,65.674-52.969,118.925-118.298,118.925c-65.34,0-118.309-53.251-118.309-118.925c0-65.69,52.968-118.936,118.309-118.936
	C291.347,57.139,344.315,110.385,344.315,176.075z"/>
<path fill="#25A5CC" stroke="#FFFFFF" stroke-width="3.7916" stroke-miterlimit="10" d="M330.646,176.075
	c0,58.082-46.847,105.175-104.628,105.175c-57.782,0-104.633-47.093-104.633-105.175c0-58.091,46.852-105.187,104.633-105.187
	C283.799,70.889,330.646,117.984,330.646,176.075z"/>
<path fill="#25A5CC" stroke="#FFFFFF" stroke-width="3.7916" stroke-miterlimit="10" d="M318.13,176.075
	c0,51.14-41.242,92.599-92.112,92.599c-50.875,0-92.111-41.459-92.111-92.599c0-51.148,41.236-92.606,92.111-92.606
	C276.888,83.469,318.13,124.927,318.13,176.075z"/>
<path fill="#25A5CC" stroke="#FFFFFF" stroke-width="3.7916" stroke-miterlimit="10" d="M272.093,176.068
	c0,25.586-20.625,46.327-46.075,46.327c-25.456,0-46.081-20.741-46.081-46.327c0-25.58,20.625-46.321,46.081-46.321
	C251.468,129.747,272.093,150.488,272.093,176.068z"/>
</svg>
