<?xml version="1.0" encoding="utf-8"?>
<!-- Generator: Adobe Illustrator 16.0.0, SVG Export Plug-In . SVG Version: 6.00 Build 0)  -->
<!DOCTYPE svg PUBLIC "-//W3C//DTD SVG 1.1//EN" "http://www.w3.org/Graphics/SVG/1.1/DTD/svg11.dtd">
<svg version="1.1" id="Layer_1" xmlns="http://www.w3.org/2000/svg" xmlns:xlink="http://www.w3.org/1999/xlink" x="0px" y="0px"
	 width="380px" height="300px" viewBox="0 0 380 300" enable-background="new 0 0 380 300" xml:space="preserve">
<path fill="#4B3A22" stroke="#FFFFFF" stroke-width="5" stroke-miterlimit="10" d="M11.479,255h358.833
	c0,0-4.312-50.29-25.312-70.11v-48.06l-20.682-47.346l-134.771-9.778c0,0-44.257,17.404-73.125,76.057
	c0,0-104.603,5.792-104.603,62.91L11.479,255z"/>
<line fill="#4B3A22" stroke="#FFFFFF" stroke-width="3.6246" stroke-miterlimit="10" x1="118.408" y1="155.763" x2="118.408" y2="241.188"/>
<line fill="#4B3A22" stroke="#FFFFFF" stroke-width="3.6246" stroke-miterlimit="10" x1="223.514" y1="142.417" x2="223.514" y2="247.53"/>
<path fill="#4B3A22" stroke="#FFFFFF" stroke-width="3.6246" stroke-miterlimit="10" d="M264.592,248.067
	c0,0,0-42.223,38.664-46.753v-66.148"/>
<path fill="#4B3A22" stroke="#FFFFFF" stroke-width="5" stroke-miterlimit="10" d="M372.593,239.415
	c9.632,10.882,1.347,15.585,1.347,15.585H4.232l4.527-13.168L372.593,239.415z"/>
<path fill="#4B3A22" stroke="#FFFFFF" stroke-width="3.6246" stroke-miterlimit="10" d="M128.499,247.466
	c0,20.655-16.741,37.396-37.39,37.396c-20.661,0-37.396-16.741-37.396-37.396c0-20.654,16.735-37.396,37.396-37.396
	C111.758,210.07,128.499,226.812,128.499,247.466z"/>
<path fill="#4B3A22" stroke="#FFFFFF" stroke-width="3.6246" stroke-miterlimit="10" d="M106.751,247.472
	c0,8.804-7.134,15.944-15.944,15.944c-8.803,0-15.943-7.141-15.943-15.944c0-8.811,7.14-15.949,15.943-15.949
	C99.617,231.522,106.751,238.661,106.751,247.472z"/>
<path fill="#4B3A22" stroke="#FFFFFF" stroke-width="3.6246" stroke-miterlimit="10" d="M280.926,226.979
	c11.318-17.278,34.497-22.106,51.768-10.788c17.281,11.318,22.106,34.49,10.794,51.771c-11.318,17.271-34.499,22.107-51.776,10.791
	C274.443,267.436,269.608,244.255,280.926,226.979z"/>
<path fill="#4B3A22" stroke="#FFFFFF" stroke-width="3.6246" stroke-miterlimit="10" d="M299.843,238.732
	c4.827-7.368,14.707-9.429,22.076-4.601c7.368,4.825,9.428,14.713,4.604,22.076c-4.832,7.372-14.713,9.432-22.079,4.604
	C297.075,255.985,295.016,246.099,299.843,238.732z"/>
<path fill="#4B3A22" stroke="#FFFFFF" stroke-width="3.6246" stroke-miterlimit="10" d="M141.966,152.685
	c0,0,11.777-32.015,53.605-55.575l91.376,3.626c0,0,7.858,14.784,15.109,33.226C302.057,133.961,221.576,141.235,141.966,152.685z"
	/>
</svg>
