<?xml version="1.0" encoding="utf-8"?>
<!-- Generator: Adobe Illustrator 16.0.0, SVG Export Plug-In . SVG Version: 6.00 Build 0)  -->
<!DOCTYPE svg PUBLIC "-//W3C//DTD SVG 1.1//EN" "http://www.w3.org/Graphics/SVG/1.1/DTD/svg11.dtd">
<svg version="1.1" id="Layer_1" xmlns="http://www.w3.org/2000/svg" xmlns:xlink="http://www.w3.org/1999/xlink" x="0px" y="0px"
	 width="380px" height="400px" viewBox="0 0 380 400" enable-background="new 0 0 380 400" xml:space="preserve">
<path fill="#F6AB32" d="M26,328.772v27.838c0,0-6.024,37.798,167.492,39.64c0,0,127.508,0.771,167.508-35.95v-31.527
	c0,0-56.3,35.215-167.508,35.21C193.492,363.982,58,361.039,26,328.772z"/>
<path fill="#FBDC8C" d="M361,323v4.447c0,0-49.981,38.331-168.692,38.331c0,0-118.987,7.362-168.945-34.657L23.619,323H361z"/>
<path fill="#4B3A22" d="M28.482,329.877c0,0,24.185-3.024,33.451,10.829c7.854,6.938,14.071,17.122,51.169,1.932
	c0,0,18.935-6.226,38.676,10.608c0,0,14.102,15.572,31.83,2.842c0,0,15.308-12.744,26.996-2.891c0,0,23.363,11.535,44.019-5.379
	c0,0,13.998-14.342,27.693-3.664c0,0,19.714,18.888,37.739-3.636c0,0,12.194-16.503,33.576-17.626c0,0,31.795,3.107,20.837-29.893
	H7.512C7.512,293-12.634,324.734,28.482,329.877"/>
<path fill="#BB6523" d="M34.908,274.349c0,0-17.727,2.464-25.786,13.964c0,0-16.115,22.989,17.718,21.35
	c0,0,26.198-4.412,35.464,9.442c0,0,14.102,18.886,42.706,6.979c0,0,25.383-9.441,45.125,7.391c0,0,14.103,15.604,31.829,2.875
	c0,0,15.311-12.727,26.996-2.875c0,0,23.363,11.544,44.019-5.37c0,0,13.997-14.336,27.694-3.665c0,0,18.532,15.606,36.262-1.228
	c0,0,13.092-17.88,35.053-13.96c0,0,26.229,2.726,23.613-13.037c0,0-1.857-12.628-16.364-12.628"/>
<path fill="#829F20" d="M108.236,273.924l-75.746-24.425c0,0-16.115-4.273-16.115,5.038c0,0-11.012,4.706,1.88,10.727
	c0,0-4.835,4.13,0.536,8.237c0,0-1.61,9.869,8.06,7.407c0,0-9.805,12.459,8.057,10.271c0,0-1.209,7.973,8.595,5.337
	c0,0-2.551,13.491,11.804,11.095c0,0,2.783,11.428,17.287,9.432c0,0,8.773,7.317,25.158,4.77c0,0,50.771,18.24,118.728-14.201
	c0,0,101.461,16.215,108.314-7.601c0,0,17.926,1.439,21.951-10.058c0,0,16.522,6.307,14.912-4.371c0,0,9.065-1.819,4.628-7.158
	c0,0,9.267-6.186-1.003-7.619c0,0,7.854-4.239-3.224-6.496l-5.441-3.577"/>
<path fill="#CC4646" d="M201.262,300.494c0,0-98.077,31.312-135.934,0.748l-1.126-17.231l96.95-1.452L201.262,300.494z"/>
<path fill="#EF6C68" d="M71.844,270.036c0,0-22.833,16.658,9.801,27.004c0,0,34.921,14.92,105.559-1.117"/>
<path fill="#CC4646" d="M225.247,268.061c0,0,97.746,32.633,135.604,2.071l1.457-15.607l-96.947-4.4L225.247,268.061z"/>
<path fill="#EF6C68" d="M354.665,240.549c0,0,22.028,17.154-8.188,27.307c0,0-36.532,14.616-107.17-1.421"/>
<polyline fill="#FCD638" points="62.305,265.726 59.082,269.013 193.648,299.207 248.239,343.329 311.092,291.594 330.027,259.158 
	"/>
<polyline fill="#FEE050" points="193.648,299.207 261.131,359.756 311.092,291.594 "/>
<path fill="#829F20" d="M24.104,318.976"/>
<path fill="#F6AB32" d="M26,216.06v25.273c0,0-6.024,34.312,167.492,35.986c0,0,127.508,0.704,167.508-32.636V216.06
	c0,0-56.3,31.968-167.508,31.968C193.492,248.027,58,245.349,26,216.06z"/>
<path fill="#FBDC8C" d="M361,213v4.804c0,0-49.981,34.798-168.692,34.798c0,0-118.987,6.303-168.945-31.85L23.619,213H361z"/>
<path fill="#4B3A22" d="M354.729,216.16c0,0-24.245-2.271-33.175,11.767c-7.687,7.095-13.654,17.529-51.106,3.084
	c0,0-19.079-5.776-38.41,11.456c0,0-13.724,15.881-31.753,3.513c0,0-15.612-12.418-27.057-2.33c0,0-23.084,12.007-44.139-4.487
	c0,0-14.337-14.048-27.777-3.101c0,0-19.25,19.273-37.812-2.88c0,0-12.601-16.771-34.004-17.461c0,0-31.673,5.608-21.565-29.989
	l366.863-7.379C374.793,178.352,395.711,210.191,354.729,216.16"/>
<path fill="#BB6523" d="M346.983,161.301c0,0,17.78,2.107,26.114,13.438c0,0,16.664,22.665-17.203,21.703
	c0,0-26.294-3.885-35.225,10.152c0,0-13.643,19.165-42.531,7.837c0,0-25.602-8.931-44.936,8.299c0,0-13.723,15.883-31.752,3.514
	c0,0-15.612-12.419-27.055-2.332c0,0-23.085,12.01-44.142-4.484c0,0-14.336-14.05-27.775-3.103c0,0-18.152,15.971-36.28-0.502
	c0,0-13.52-17.612-35.378-13.253c0,0-26.16,3.252-23.92-12.558c0,0,1.55-12.663,16.052-12.955"/>
<path fill="#829F20" d="M273.664,160.35l75.139-25.942c0,0,16.012-4.598,16.233,4.709c0,0,11.124,4.484-1.622,10.765
	c0,0,4.929,4.034-0.339,8.246c0,0,1.849,9.833-7.877,7.565c0,0,10.099,12.26-7.811,10.431c0,0,1.4,7.949-8.466,5.511
	c0,0,2.877,13.436-11.533,11.329c0,0-2.508,11.479-17.055,9.776c0,0-8.599,7.49-25.039,5.277c0,0-50.32,19.253-119.039-11.812
	c0,0-101.049,18.25-108.469-5.419c0,0-17.892,1.798-22.196-9.617c0,0-16.363,6.641-15.008-4.067c0,0-9.107-1.638-4.804-7.064
	c0,0-9.414-5.996,0.825-7.639c0,0-7.958-4.078,3.065-6.558l5.354-3.686"/>
<path fill="#CC4646" d="M182.298,183.786c0,0,98.806,29.328,135.923-1.985l0.707-17.25l-96.959,0.5L182.298,183.786z"/>
<path fill="#EF6C68" d="M310.952,150.731c0,0,23.229,16.193-9.147,27.191c0,0-34.552,15.622-105.56,1.008"/>
<path fill="#CC4646" d="M156.535,156.841c0,0-96.934,34.592-135.517,4.798l-1.833-15.571l96.82-6.35L156.535,156.841z"/>
<path fill="#EF6C68" d="M26.489,131.94c0,0-21.61,17.591,8.844,27.135c0,0,36.875,13.878,107.108-3.576"/>
<polyline fill="#FCD638" points="319.386,146.231 322.685,149.45 188.878,182.344 135.359,227.553 71.279,177.096 51.569,145.048 
	"/>
<polyline fill="#FEE050" points="188.878,182.344 122.864,244.232 71.279,177.096 "/>
<path fill="#F6B031" d="M23.625,135.771c0,0-4.441-134.761,167.605-134.655c0,0,156.859-8.846,170.828,134.655
	C362.059,135.771,198.749,181.966,23.625,135.771z"/>
<path fill="#FBDC8C" d="M89.305,111.081c0,0-11.217-19.532,2.623-25.503C91.927,85.578,104.194,83.089,89.305,111.081z"/>
<path fill="#FBDC8C" d="M151.798,56.972c0,0-8.056-16.075,3.303-20.309C155.102,36.664,165.037,35.155,151.798,56.972z"/>
<path fill="#FBDC8C" d="M238.82,70.666c0,0-8.053-16.075,3.308-20.31C242.128,50.356,252.062,48.846,238.82,70.666z"/>
<path fill="#FBDC8C" d="M187.254,107.101c0,0-8.058-16.075,3.3-20.31C190.554,86.791,200.489,85.282,187.254,107.101z"/>
<path fill="#FBDC8C" d="M294.07,112.678c0,0-13.073-13.024-3.692-20.253C290.378,92.425,299.32,88.192,294.07,112.678z"/>
</svg>
