<?xml version="1.0" encoding="utf-8"?>
<!-- Generator: Adobe Illustrator 16.0.0, SVG Export Plug-In . SVG Version: 6.00 Build 0)  -->
<!DOCTYPE svg PUBLIC "-//W3C//DTD SVG 1.1//EN" "http://www.w3.org/Graphics/SVG/1.1/DTD/svg11.dtd">
<svg version="1.1" id="Layer_1" xmlns="http://www.w3.org/2000/svg" xmlns:xlink="http://www.w3.org/1999/xlink" x="0px" y="0px"
	 width="300px" height="380px" viewBox="40 -40 300 380" enable-background="new 40 -40 300 380" xml:space="preserve">
<g>
	<path d="M185.304,85.086l6.433-2.786l30.64,218.097H338.5v34.01H185.304V85.086z"/>
</g>
<line fill="none" stroke="#EF6C68" stroke-width="5.5708" stroke-linecap="round" stroke-miterlimit="10" x1="181.357" y1="-0.941" x2="181.145" y2="-14.856"/>
<path fill="#EF6C68" d="M73.674,122.143c0,0,128.748,0,239.075-18.554c0,0-19.612-114.551-136.604-106.333
	C176.145-2.744,79.587,12.602,73.674,122.143z"/>
<path fill="#FEE050" d="M147.23,119.914c0,0-6.974-72.474,34.591-123.249c0,0,49.332,28.358,60.106,116.586
	C241.928,113.251,198.523,117.404,147.23,119.914z"/>
<path fill="#E5C376" d="M87.5,316.5h27.587c0,0,24.016,2.16,33.881-5.428c0,0,1.21,11.441-0.297,19.495l-4.159,4.933h15.752
	c0,0,1.816-18.197-0.417-38.408L87.5,307.426V316.5z"/>
<path fill="#E5C376" d="M106.103,230.868c0,0-0.212-12.039,10.097-15.021c0,0-1.074,8.78-1.55,18.799"/>
<path opacity="0.9" fill="#3A3A3A" stroke="#CC4646" stroke-width="3.9554" stroke-miterlimit="10" d="M71.506,233.664
	c0,0-2.079-10.886,2.214-18.403c0,0,1.472-2.242,9.078-2.955c0,0,6.751-0.155,8.881,2.823c0,0,3.642,10.119-1.66,21.25"/>
<path fill="#FBDC8C" d="M178.3,266.158c0,0,7.926-20.236,19.22-24.398c0,0-12.537,16.631-11.348,38.331
	c0,0,1.143,35.655-3.615,57.054H165.02l3.373-4.354c0,0,3.96-1.986,0.984-24.377c0,0-26.749-3.469-48.744,4.26
	c0,0-3.055,4.357-3.552,20.606l3.661,4.358h-14.066l-0.598-24.669c0,0-2.87-3.369-7.926,0l-0.887,24.669H82.503l3.667-4.162
	c0,0,1.186-7.333-2.677-24.075c0,0-4.36-21.502-3.963-29.032c0,0-32.216-13.17-34.989-36.553c0,0-9.31-15.063,28.931-15.259
	c0,0,33.188-0.419,47.058,2.557c0,0,7.039-13.606,15.956-15.984c0,0-1.191,5.305-4.95,21.75c0,0-4.413,17.932,0.226,27.589
	C131.762,264.468,159.074,261.45,178.3,266.158z"/>
<path fill="#D1B062" d="M168.957,264.494c0,0-2.168,18.235-22.844,11.131c0,0-5.741,11.5-18.589,11.28
	c0,0-11.906,0.204-16.291-12.118l21.043-10.69C132.276,264.097,156.329,262.259,168.957,264.494z"/>
<path fill="#CC4646" d="M76.891,283.758l10.848,6.801v6.165l2.307-0.671l0.368-5.348c0,0,32.745-12.959,45.463-26.767
	c0,0-1.79-2.682-5.457-3.449c0,0-27.075,20.926-41.046,24.269c0,0-10.777-4.231-13.636-6.152
	C75.738,278.605,74.065,281.982,76.891,283.758z"/>
<path fill="#BB6523" d="M95.989,300.511c0,3.734-3.028,6.766-6.762,6.766c-3.737,0-6.762-3.031-6.762-6.766
	c0-3.732,3.025-6.759,6.762-6.759C92.961,293.752,95.989,296.778,95.989,300.511z"/>
<path fill="#4B3A22" d="M43.54,233.71c0,0-4.295,11.193,10.914,11.591c0,0,6.34,0.245,4.21-7.282c0,0-1.613-5.573-4.972-7.248
	C53.692,230.771,46.013,227.321,43.54,233.71z"/>
<path fill="#D1B062" d="M57.995,266.519c0,0,1.98,4.175,7.412,5.426c0,0,13.054-3.337,14.724-17.124
	C80.131,254.82,70.526,270.896,57.995,266.519z"/>
<path fill="#D1B062" d="M91.335,245.089c0,0,0.797,16.827,15.817,16.619c0,0,15.225-0.396,15.423-16.619
	c0,0-1.8-15.222-16.823-15.222C105.752,229.867,91.931,230.669,91.335,245.089z"/>
<path fill="#D1B062" d="M186.292,285.719c0,0,0.599,21.405-1.485,36.854C184.806,322.573,169.377,304.515,186.292,285.719z"/>
<path fill="#EFEFEF" d="M103.929,242.986c0,0,0.174,3.729,3.506,3.686c0,0,3.374-0.093,3.422-3.686c0,0-0.4-3.376-3.732-3.376
	C107.125,239.61,104.062,239.787,103.929,242.986z"/>
<path opacity="0.9" fill="#3A3A3A" stroke="#CC4646" stroke-width="3.9554" stroke-miterlimit="10" d="M103.929,218.241
	c0,0,10.905,1.238,10.905,10.135c0,0,0,23.078-11.762,26.14c0,0-9.501,3.229-13.927-12.647c0,0-2.375-11.448,1.621-20.521
	C90.767,221.348,92.617,216.838,103.929,218.241z"/>
<path fill="none" stroke="#CC4646" stroke-width="3.9554" stroke-miterlimit="10" d="M114.595,233.977
	c0,0,13.105-3.179,16.941,2.902"/>
</svg>
