<?xml version="1.0" encoding="utf-8"?>
<!-- Generator: Adobe Illustrator 16.0.0, SVG Export Plug-In . SVG Version: 6.00 Build 0)  -->
<!DOCTYPE svg PUBLIC "-//W3C//DTD SVG 1.1//EN" "http://www.w3.org/Graphics/SVG/1.1/DTD/svg11.dtd">
<svg version="1.1" id="Layer_1" xmlns="http://www.w3.org/2000/svg" xmlns:xlink="http://www.w3.org/1999/xlink" x="0px" y="0px"
	 width="300px" height="380px" viewBox="0 0 300 380" enable-background="new 0 0 300 380" xml:space="preserve">
<g>
	<path fill="#FFFFFF" d="M145.112,106.046l6.365-2.756L181.79,319.06h114.883v33.646H145.112V106.046z"/>
</g>
<line fill="#809C20" stroke="#FFFFFF" stroke-width="2.6774" stroke-miterlimit="10" x1="142.971" y1="29.205" x2="142.771" y2="15.438"/>
<path fill="#FFFFFF" stroke="#809C20" stroke-width="2.6774" stroke-miterlimit="10" d="M42.398,150.976
	c0,0,120.244,0,223.288-18.356c0,0-18.318-113.327-127.583-105.198C138.103,27.421,47.919,42.603,42.398,150.976z"/>
<path fill="#FFFFFF" stroke="#809C20" stroke-width="2.6774" stroke-miterlimit="10" d="M111.098,148.77
	c0,0-6.515-71.701,32.306-121.933c0,0,46.074,28.056,56.138,115.341C199.542,142.178,159.004,146.287,111.098,148.77z"/>
<path fill="#FFFFFF" stroke="#809C20" stroke-width="2.7556" stroke-miterlimit="10" d="M32.53,253.039
	c0,0-2.057-10.771,2.19-18.208c0,0,1.455-2.217,8.98-2.923c0,0,6.679-0.153,8.785,2.793c0,0,3.604,10.012-1.641,21.022"/>
<path fill="#FFFFFF" stroke="#809C20" stroke-width="2.7556" stroke-miterlimit="10" d="M138.184,285.187
	c0,0,7.841-20.021,19.016-24.14c0,0-12.404,16.453-11.228,37.924c0,0,1.13,35.273-3.576,56.444h-17.349l3.337-4.31
	c0,0,3.917-1.963,0.974-24.116c0,0-26.463-3.432-48.223,4.214c0,0-3.022,4.312-3.515,20.388l3.622,4.312H67.325l-0.592-24.406
	c0,0-2.839-3.335-7.842,0l-0.877,24.406H43.41l3.627-4.117c0,0,1.174-7.256-2.648-23.818c0,0-4.313-21.273-3.921-28.721
	c0,0-31.873-13.032-34.614-36.164c0,0-9.213-14.903,28.621-15.096c0,0,32.834-0.416,46.555,2.528c0,0,6.965-13.461,15.786-15.813
	c0,0-1.179,5.248-4.897,21.518c0,0-4.366,17.739,0.223,27.295C92.142,283.514,119.162,280.528,138.184,285.187z"/>
<path fill="#FFFFFF" stroke="#809C20" stroke-width="2.7556" stroke-miterlimit="10" d="M37.858,302.598l10.731,6.726v6.104
	l2.282-0.665l0.363-5.292c0,0,32.396-12.818,44.979-26.48c0,0-1.771-2.651-5.398-3.41c0,0-26.787,20.701-40.608,24.01
	c0,0-10.662-4.188-13.49-6.089C36.717,297.5,35.062,300.84,37.858,302.598z"/>
<path fill="#FFFFFF" stroke="#809C20" stroke-width="2.7556" stroke-miterlimit="10" d="M56.751,319.171
	c0,3.695-2.995,6.693-6.689,6.693c-3.698,0-6.69-2.998-6.69-6.693c0-3.691,2.992-6.688,6.69-6.688
	C53.757,312.483,56.751,315.479,56.751,319.171z"/>
<path fill="#FFFFFF" stroke="#809C20" stroke-width="2.7556" stroke-miterlimit="10" d="M4.863,253.084
	c0,0-4.249,11.074,10.797,11.467c0,0,6.272,0.243,4.166-7.203c0,0-1.596-5.515-4.919-7.173
	C14.906,250.175,7.309,246.763,4.863,253.084z"/>
<path fill="#FFFFFF" stroke="#809C20" stroke-width="1.929" stroke-miterlimit="10" d="M19.163,285.541c0,0,1.959,4.131,7.333,5.369
	c0,0,12.914-3.301,14.566-16.941C41.063,273.969,31.561,289.873,19.163,285.541z"/>
<path fill="#FFFFFF" stroke="#809C20" stroke-width="2.7556" stroke-miterlimit="10" d="M64.607,262.262
	c0,0,0.172,3.689,3.469,3.646c0,0,3.337-0.093,3.386-3.646c0,0-0.396-3.34-3.693-3.34C67.769,258.922,64.739,259.097,64.607,262.262
	z"/>
<path fill="#FFFFFF" stroke="#809C20" stroke-width="2.7556" stroke-miterlimit="10" d="M64.607,237.78
	c0,0,10.789,1.225,10.789,10.026c0,0,0,22.832-11.636,25.862c0,0-9.4,3.194-13.778-12.515c0,0-2.349-11.325,1.604-20.301
	C51.585,240.854,53.415,236.392,64.607,237.78z"/>
</svg>
