<?xml version="1.0" encoding="utf-8"?>
<!-- Generator: Adobe Illustrator 16.0.0, SVG Export Plug-In . SVG Version: 6.00 Build 0)  -->
<!DOCTYPE svg PUBLIC "-//W3C//DTD SVG 1.1//EN" "http://www.w3.org/Graphics/SVG/1.1/DTD/svg11.dtd">
<svg version="1.1" id="Layer_1" xmlns="http://www.w3.org/2000/svg" xmlns:xlink="http://www.w3.org/1999/xlink" x="0px" y="0px"
	 width="380px" height="300px" viewBox="0 0 380 300" enable-background="new 0 0 380 300" xml:space="preserve">
<path fill="#B86523" stroke="#4B3A22" stroke-width="2" stroke-miterlimit="10" d="M285.088,63.167
	c-20.059,114.876-2.395,232.333-2.395,232.333H90.889c0,0,7.876-141.162-15.129-230.537c0,0,83.958-8.557,127.551-39.554
	c0,0,27.773,29.455,79.081,36.019L285.088,63.167z"/>
<path fill="#B86523" stroke="#4B3A22" stroke-width="4.0188" stroke-miterlimit="10" d="M120.735,54.09
	c0,0-10.027-16.047-16.316-32.891c0,0-4.042-5.663,11.978-5.945c0,0,13.475,0.142,15.57-8.208c0,0,1.795-5.237,5.391,5.094
	c0,0,6.287,15.57,8.681,35.378"/>
<path fill="none" stroke="#4B3A22" stroke-width="16.0751" stroke-miterlimit="10" d="M52.086,63.867
	c0,0,99.237-4.376,151.606-42.668c0,0,31.479,33.915,96.442,39.384"/>
<path fill="none" stroke="#FBDD50" stroke-width="10.0469" stroke-miterlimit="10" d="M54.402,63.867c0,0,97.6-4.376,148.909-42.668
	c0,0,30.476,33.915,94.124,39.384"/>
<polygon fill="#FFFFFF" stroke="#4B3A22" stroke-width="4.0188" stroke-miterlimit="10" points="222.29,186.586 224.604,258.064 
	259.323,256.24 249.68,188.047 "/>
<polygon fill="#FFFFFF" stroke="#4B3A22" stroke-width="4" stroke-miterlimit="10" points="119.163,199.639 112.798,272.5 
	143.27,272.5 147.129,198.143 "/>
<polygon fill="#FFFFFF" stroke="#4B3A22" stroke-width="4.0188" stroke-miterlimit="10" points="109.289,138.415 119.028,177.666 
	139.777,175.566 145.778,131.991 "/>
<polygon fill="#FFFFFF" stroke="#4B3A22" stroke-width="4.0188" stroke-miterlimit="10" points="169.549,146.966 206.699,146.642 
	198.404,182.118 164.425,182.477 "/>
<polygon fill="#FFFFFF" stroke="#4B3A22" stroke-width="4.0188" stroke-miterlimit="10" points="227.006,129.924 217.854,169.585 
	256.325,172.091 255.567,131.168 "/>
<path fill="#FFFFFF" stroke="#4B3A22" stroke-width="4" stroke-miterlimit="10" d="M153.077,121.5h74.066
	c0,0,5.012-60.103-33.172-62.543C193.972,58.957,151.148,51.5,153.077,121.5z"/>
<polygon fill="#FBDD50" stroke="#4B3A22" stroke-width="4" stroke-miterlimit="10" points="164.612,211.5 161.871,282.5 
	207.161,282.5 206.602,211.5 "/>
<ellipse fill="#4B3A22" cx="196.171" cy="242.882" rx="4.197" ry="3.967"/>
<line fill="#FFFFFF" stroke="#4B3A22" stroke-width="2.0094" stroke-miterlimit="10" x1="127.697" y1="135.63" x2="128.16" y2="176.743"/>
<line fill="#FFFFFF" stroke="#4B3A22" stroke-width="2.0094" stroke-miterlimit="10" x1="114.582" y1="158.553" x2="142.838" y2="153.359"/>
<line fill="#FFFFFF" stroke="#4B3A22" stroke-width="2.0094" stroke-miterlimit="10" x1="168.024" y1="164.558" x2="202.39" y2="163.979"/>
<line fill="#FFFFFF" stroke="#4B3A22" stroke-width="2.0094" stroke-miterlimit="10" x1="187.794" y1="146.796" x2="181.582" y2="182.309"/>
<line fill="#FFFFFF" stroke="#4B3A22" stroke-width="2.0094" stroke-miterlimit="10" x1="241.028" y1="130.536" x2="237.09" y2="170.809"/>
<line fill="#FFFFFF" stroke="#4B3A22" stroke-width="2.0094" stroke-miterlimit="10" x1="222.326" y1="149.109" x2="255.934" y2="151.008"/>
<line fill="#FFFFFF" stroke="#4B3A22" stroke-width="2.0094" stroke-miterlimit="10" x1="116.844" y1="223.066" x2="145.281" y2="221.409"/>
<line fill="#FFFFFF" stroke="#4B3A22" stroke-width="2.0094" stroke-miterlimit="10" x1="131.062" y1="222.237" x2="127.285" y2="269.549"/>
<line fill="#FFFFFF" stroke="#4B3A22" stroke-width="2.0094" stroke-miterlimit="10" x1="114.667" y1="247.464" x2="144.51" y2="245.893"/>
<line fill="#FFFFFF" stroke="#4B3A22" stroke-width="2" stroke-miterlimit="10" x1="222.5" y1="213.5" x2="251.5" y2="213.5"/>
<line fill="#FFFFFF" stroke="#4B3A22" stroke-width="2.0094" stroke-miterlimit="10" x1="237.526" y1="210.109" x2="243.038" y2="256.515"/>
<line fill="#FFFFFF" stroke="#4B3A22" stroke-width="2.0094" stroke-miterlimit="10" x1="223.852" y1="234.747" x2="255.263" y2="227.512"/>
<polygon fill="#FFFFFF" stroke="#4B3A22" stroke-width="4" stroke-miterlimit="10" points="156.243,288.5 158.265,280.5 
	211.791,280.5 213.239,288.5 "/>
<polyline fill="#FFFFFF" stroke="#4B3A22" stroke-width="4.0188" stroke-miterlimit="10" points="147.561,296.362 149.298,287.788 
	220.279,286.693 221.919,296.362 "/>
<line fill="#FFFFFF" stroke="#4B3A22" stroke-width="2" stroke-miterlimit="10" x1="152.5" y1="94.5" x2="224.5" y2="94.5"/>
<line fill="#FFFFFF" stroke="#4B3A22" stroke-width="2.0094" stroke-miterlimit="10" x1="190.131" y1="120.818" x2="190.131" y2="58.527"/>
</svg>
