<?xml version="1.0" encoding="utf-8"?>
<!-- Generator: Adobe Illustrator 16.0.0, SVG Export Plug-In . SVG Version: 6.00 Build 0)  -->
<!DOCTYPE svg PUBLIC "-//W3C//DTD SVG 1.1//EN" "http://www.w3.org/Graphics/SVG/1.1/DTD/svg11.dtd">
<svg version="1.1" id="Layer_1" xmlns="http://www.w3.org/2000/svg" xmlns:xlink="http://www.w3.org/1999/xlink" x="0px" y="0px"
	 width="380px" height="300px" viewBox="0 0 380 300" enable-background="new 0 0 380 300" xml:space="preserve">
<rect x="42.5" y="48.5" fill="#25A5CC" width="50" height="16"/>
<path fill="#103B54" d="M377.5,227.753c0,27.712-18.41,54.747-46.227,54.747H59.249C31.425,282.5,3.5,255.465,3.5,227.753V112.332
	C3.5,84.617,31.425,59.5,59.249,59.5h272.025c27.816,0,46.227,25.117,46.227,52.832V227.753z"/>
<rect x="3.5" y="134.5" fill="#25A5CC" width="374" height="72"/>
<polygon fill="#93CCDE" stroke="#103B54" stroke-width="2.7455" stroke-miterlimit="10" points="173.353,58.296 183.81,3.387 
	276.68,3.387 285.151,58.296 "/>
<polygon fill="#FFFFFF" points="185.464,58.296 193.649,15.284 266.404,15.284 273.042,58.296 "/>
<path fill="#FFFFFF" stroke="#0A3352" stroke-width="5.4909" stroke-miterlimit="10" d="M357.605,169.657
	c0,69.935-56.7,126.637-126.641,126.637c-69.939,0-126.64-56.702-126.64-126.637c0-69.947,56.701-126.643,126.64-126.643
	C300.905,43.015,357.605,99.71,357.605,169.657z"/>
<path fill="#0A3352" d="M342.969,169.657c0,61.854-50.149,111.997-112.004,111.997c-61.85,0-112.004-50.143-112.004-111.997
	c0-61.856,50.155-112.005,112.004-112.005C292.819,57.652,342.969,107.801,342.969,169.657z"/>
<path fill="#93CCDE" d="M329.569,169.657c0,54.455-44.146,98.601-98.604,98.601c-54.458,0-98.6-44.146-98.6-98.601
	c0-54.459,44.142-98.608,98.6-98.608C285.423,71.049,329.569,115.198,329.569,169.657z"/>
<path fill="#FFFFFF" d="M280.555,169.657c0,27.383-22.203,49.585-49.59,49.585s-49.585-22.202-49.585-49.585
	c0-27.389,22.198-49.592,49.585-49.592S280.555,142.268,280.555,169.657z"/>
</svg>
