<?xml version="1.0" encoding="utf-8"?>
<!-- Generator: Adobe Illustrator 16.0.0, SVG Export Plug-In . SVG Version: 6.00 Build 0)  -->
<!DOCTYPE svg PUBLIC "-//W3C//DTD SVG 1.1//EN" "http://www.w3.org/Graphics/SVG/1.1/DTD/svg11.dtd">
<svg version="1.1" id="Layer_1" xmlns="http://www.w3.org/2000/svg" xmlns:xlink="http://www.w3.org/1999/xlink" x="0px" y="0px"
	 width="380px" height="300px" viewBox="0 0 380 300" enable-background="new 0 0 380 300" xml:space="preserve">
<path fill="#FFFFFF" stroke="#829F20" stroke-width="6" stroke-miterlimit="10" d="M372.326,255.062
	c9.807,11.078-1.775,14.438-1.775,14.438H6.732l6.187-12.691L372.326,255.062z"/>
<path fill="#829F20" d="M9.913,257.5h365.323c0,0-1.736-40.32-25.736-59.667v-58.361l-21.072-48.203l-137.22-9.956
	c0,0-45.057,17.719-74.445,77.433c0,0-106.499,6.329-106.499,64.479L9.913,257.5z"/>
<line fill="none" stroke="#4B3A22" stroke-width="2.0358" stroke-miterlimit="10" x1="118.777" y1="158.746" x2="118.777" y2="245.718"/>
<line fill="none" stroke="#4B3A22" stroke-width="2.0358" stroke-miterlimit="10" x1="225.784" y1="145.16" x2="225.784" y2="252.173"/>
<path fill="none" stroke="#4B3A22" stroke-width="2.0358" stroke-miterlimit="10" d="M267.608,252.723c0,0,0-42.986,39.362-47.601
	v-67.346"/>
<path fill="#4B3A22" d="M129.053,252.11c0,21.027-17.045,38.066-38.069,38.066c-21.034,0-38.073-17.039-38.073-38.066
	c0-21.031,17.04-38.075,38.073-38.075C112.007,214.035,129.053,231.079,129.053,252.11z"/>
<path fill="#FFFFFF" stroke="#4B3A22" stroke-width="3.6901" stroke-miterlimit="10" d="M106.911,252.11
	c0,8.967-7.265,16.236-16.233,16.236c-8.963,0-16.231-7.27-16.231-16.236c0-8.965,7.268-16.234,16.231-16.234
	C99.646,235.876,106.911,243.146,106.911,252.11z"/>
<path fill="#4B3A22" d="M284.237,231.251c11.521-17.586,35.118-22.506,52.703-10.983c17.592,11.521,22.509,35.116,10.987,52.71
	c-11.52,17.583-35.117,22.503-52.711,10.986C277.636,272.437,272.711,248.839,284.237,231.251z"/>
<path fill="#FFFFFF" d="M303.494,243.217c4.915-7.501,14.977-9.598,22.475-4.683c7.504,4.912,9.6,14.974,4.691,22.472
	c-4.921,7.507-14.982,9.601-22.48,4.688C300.679,260.779,298.582,250.718,303.494,243.217z"/>
<path fill="#4B3A22" d="M142.763,155.613c0,0,11.989-32.595,54.571-56.581l93.031,3.69c0,0,11.146,21.341,18.527,40.117
	C308.893,142.84,223.812,143.954,142.763,155.613z"/>
</svg>
