<?xml version="1.0" encoding="utf-8"?>
<!-- Generator: Adobe Illustrator 16.0.0, SVG Export Plug-In . SVG Version: 6.00 Build 0)  -->
<!DOCTYPE svg PUBLIC "-//W3C//DTD SVG 1.1//EN" "http://www.w3.org/Graphics/SVG/1.1/DTD/svg11.dtd">
<svg version="1.1" id="Layer_1" xmlns="http://www.w3.org/2000/svg" xmlns:xlink="http://www.w3.org/1999/xlink" x="0px" y="0px"
	 width="380px" height="300px" viewBox="0 0 380 300" enable-background="new 0 0 380 300" xml:space="preserve">
<path fill="#FFFFFF" stroke="#EF6C68" stroke-width="6.5378" stroke-miterlimit="10" d="M45.792,220.184v28.432
	c0,0-3.639,43.963,144.477,45.842c0,0,111.665,0.8,144.506-36.733v-31.007c0,0-49.572,29.418-144.506,29.418
	C190.27,256.135,78.635,253.129,45.792,220.184z"/>
<path fill="#FFFFFF" stroke="#EF6C68" stroke-width="5.3724" stroke-miterlimit="10" d="M332.886,216.033l2.679,10.684
	c0,0-42.281,41.895-141.686,41.895c0,0-98.495,3.092-140.315-39.855l1.343-4.724L332.886,216.033z"/>
<path fill="#FFFFFF" stroke="#EF6C68" stroke-width="6.5378" stroke-miterlimit="10" d="M59.005,225.295
	c0,0,20.226-5.087,27.985,9.084c6.558,7.038,11.774,16.484,42.83,0.936c0,0,15.876-6.854,32.379,10.339
	c0,0,11.824,15.667,26.635,2.666c0,0,12.839-13.166,22.63-3.072c0,0,19.56,11.737,36.852-5.579c0,0,11.707-14.65,23.19-3.757
	c0,0,16.493,19.263,31.586-3.738c0,0,10.216-12.889,28.117-14.01c0,0,26.615,12.477,17.446-26.553H41.412
	C41.412,191.61,24.544,220.023,59.005,225.295"/>
<path fill="#FFFFFF" stroke="#EF6C68" stroke-width="5.3724" stroke-miterlimit="10" d="M64.375,164.551
	c0,0-14.863,2.524-21.625,14.263c0,0-13.468,23.505,14.848,21.824c0,0,21.935-4.489,29.682,9.638c0,0,11.83,19.306,35.792,7.137
	c0,0,21.234-9.638,37.762,7.538c0,0,11.798,15.962,26.659,2.979c0,0,12.827-13.023,22.588-2.979c0,0,19.583,11.836,36.844-5.506
	c0,0,11.707-14.607,23.21-3.713c0,0,15.514,15.943,30.341-1.264c0,0,10.976-18.276,29.351-14.262c0,0,21.959,2.803,19.768-13.319
	c0,0-1.533-12.889-13.708-12.889"/>
<path fill="#FFFFFF" stroke="#EF6C68" stroke-width="5.3724" stroke-miterlimit="10" d="M125.744,164.139L62.34,139.167
	c0,0-13.5-4.382-13.5,5.157c0,0-9.206,4.791,1.574,10.94c0,0-4.046,4.236,0.446,8.437c0,0-1.349,10.068,6.749,7.543
	c0,0-8.209,12.729,6.765,10.5c0,0-1.022,8.166,7.172,5.456c0,0-2.131,13.794,9.915,11.355c0,0,2.303,11.651,14.458,9.607
	c0,0,7.334,7.476,21.062,4.89c0,0,42.515,18.64,99.398-14.497c0,0,84.939,16.541,90.672-7.796c0,0,15.021,1.466,18.401-10.272
	c0,0,13.837,6.441,12.471-4.452c0,0,7.592-1.828,3.891-7.309c0,0,7.778-6.331-0.831-7.797c0,0,6.564-4.311-2.715-6.626l-4.552-3.671
	"/>
<path fill="#FFFFFF" stroke="#EF6C68" stroke-width="5.3724" stroke-miterlimit="10" d="M85.532,152.678
	c0,0-22.644,20.174,9.711,32.694c0,0,34.646,18.073,104.725-1.35"/>
<path fill="#FFFFFF" stroke="#EF6C68" stroke-width="5.3724" stroke-miterlimit="10" d="M332.092,133.04
	c0,0,18.425,17.519-6.873,27.89c0,0-30.593,14.946-89.725-1.447"/>
<polyline fill="#FFFFFF" stroke="#EF6C68" stroke-width="5.3724" stroke-miterlimit="10" points="87.28,155.744 84.596,159.095 
	197.265,189.935 242.995,235.043 295.592,182.163 311.45,149.048 "/>
<polyline fill="#FFFFFF" stroke="#EF6C68" stroke-width="5.3724" stroke-miterlimit="10" points="197.265,189.935 253.778,251.824 
	295.592,182.163 "/>
<path fill="#FFFFFF" stroke="#EF6C68" stroke-width="5.3724" stroke-miterlimit="10" d="M53.616,191.425"/>
<path fill="#FFFFFF" stroke="#EF6C68" stroke-width="5.3724" stroke-miterlimit="10" d="M52.216,141.575
	c0,0,1.4-111.075,140.32-116.589c0,0,126.964-5.308,143.028,116.589C335.564,141.575,198.829,188.813,52.216,141.575z"/>
<path fill="#FFFFFF" stroke="#EF6C68" stroke-width="4.4327" stroke-miterlimit="10" d="M109.708,123.982
	c0,0-7.754-16.46,1.814-21.496C111.522,102.486,120.002,100.409,109.708,123.982z"/>
<path fill="#FFFFFF" stroke="#EF6C68" stroke-width="4.9417" stroke-miterlimit="10" d="M160.057,75.647
	c0,0-6.213-15.104,2.532-19.109C162.589,56.538,170.23,55.145,160.057,75.647z"/>
<path fill="#FFFFFF" stroke="#EF6C68" stroke-width="4.9417" stroke-miterlimit="10" d="M229.067,90.272
	c0,0-6.22-15.107,2.55-19.095C231.617,71.178,239.263,69.767,229.067,90.272z"/>
<path fill="#FFFFFF" stroke="#EF6C68" stroke-width="6.0012" stroke-miterlimit="10" d="M187.928,131.458
	c0,0-7.566-18.339,3.082-23.182C191.01,108.276,200.281,106.56,187.928,131.458z"/>
<path fill="#FFFFFF" stroke="#EF6C68" stroke-width="4.9417" stroke-miterlimit="10" d="M270.625,129.001
	c0,0-10.065-12.256-2.855-19.046C267.77,109.955,274.641,105.983,270.625,129.001z"/>
</svg>
