<?xml version="1.0" encoding="utf-8"?>
<!-- Generator: Adobe Illustrator 16.0.0, SVG Export Plug-In . SVG Version: 6.00 Build 0)  -->
<!DOCTYPE svg PUBLIC "-//W3C//DTD SVG 1.1//EN" "http://www.w3.org/Graphics/SVG/1.1/DTD/svg11.dtd">
<svg version="1.1" id="Layer_1" xmlns="http://www.w3.org/2000/svg" xmlns:xlink="http://www.w3.org/1999/xlink" x="0px" y="0px"
	 width="380px" height="300px" viewBox="0 0 380 300" enable-background="new 0 0 380 300" xml:space="preserve">
<path fill="#FFFFFF" stroke="#EF6C68" stroke-width="6.269" stroke-miterlimit="10" d="M49.442,224.237v27.264
	c0,0-3.49,42.155,138.537,43.957c0,0,107.073,0.767,138.565-35.223v-29.732c0,0-47.534,28.208-138.565,28.208
	C187.98,258.71,80.935,255.828,49.442,224.237z"/>
<path fill="#FFFFFF" stroke="#EF6C68" stroke-width="5.1515" stroke-miterlimit="10" d="M324.732,220.258l2.57,10.244
	c0,0-40.543,40.172-135.861,40.172c0,0-94.446,2.966-134.547-38.216l1.288-4.529L324.732,220.258z"/>
<path fill="#FFFFFF" stroke="#EF6C68" stroke-width="6.269" stroke-miterlimit="10" d="M62.112,229.139
	c0,0,19.395-4.878,26.835,8.71c6.288,6.749,11.29,15.807,41.069,0.897c0,0,15.223-6.572,31.048,9.915c0,0,11.338,15.021,25.54,2.556
	c0,0,12.311-12.624,21.699-2.945c0,0,18.756,11.254,35.338-5.35c0,0,11.226-14.048,22.235-3.603c0,0,15.815,18.471,30.288-3.585
	c0,0,9.796-12.358,26.961-13.434c0,0,25.521,11.964,16.729-25.461H45.242C45.242,196.838,29.068,224.084,62.112,229.139"/>
<path fill="#FFFFFF" stroke="#EF6C68" stroke-width="5.1515" stroke-miterlimit="10" d="M67.261,170.892
	c0,0-14.252,2.421-20.736,13.678c0,0-12.914,22.537,14.238,20.927c0,0,21.033-4.306,28.461,9.24c0,0,11.344,18.513,34.321,6.845
	c0,0,20.361-9.242,36.209,7.228c0,0,11.313,15.306,25.563,2.856c0,0,12.299-12.487,21.659-2.856c0,0,18.778,11.35,35.329-5.279
	c0,0,11.226-14.007,22.256-3.561c0,0,14.876,15.287,29.095-1.212c0,0,10.524-17.525,28.144-13.676c0,0,21.057,2.688,18.955-12.771
	c0,0-1.47-12.359-13.145-12.359"/>
<path fill="#FFFFFF" stroke="#EF6C68" stroke-width="5.1515" stroke-miterlimit="10" d="M126.107,170.496L65.31,146.551
	c0,0-12.945-4.202-12.945,4.945c0,0-8.828,4.595,1.509,10.49c0,0-3.879,4.062,0.428,8.091c0,0-1.293,9.654,6.472,7.232
	c0,0-7.872,12.205,6.487,10.068c0,0-0.98,7.83,6.877,5.232c0,0-2.043,13.227,9.507,10.888c0,0,2.208,11.172,13.864,9.212
	c0,0,7.033,7.169,20.196,4.688c0,0,40.767,17.873,95.311-13.9c0,0,81.447,15.86,86.944-7.476c0,0,14.404,1.405,17.645-9.851
	c0,0,13.269,6.177,11.958-4.268c0,0,7.28-1.753,3.731-7.009c0,0,7.458-6.071-0.797-7.476c0,0,6.294-4.135-2.604-6.354l-4.365-3.521"
	/>
<path fill="#FFFFFF" stroke="#EF6C68" stroke-width="5.1515" stroke-miterlimit="10" d="M87.549,159.507
	c0,0-21.713,19.345,9.312,31.351c0,0,33.222,17.33,100.419-1.296"/>
<path fill="#FFFFFF" stroke="#EF6C68" stroke-width="5.1515" stroke-miterlimit="10" d="M323.972,140.676
	c0,0,17.667,16.798-6.591,26.744c0,0-29.335,14.331-86.036-1.389"/>
<polyline fill="#FFFFFF" stroke="#EF6C68" stroke-width="5.1515" stroke-miterlimit="10" points="89.224,162.447 86.651,165.661 
	194.688,195.232 238.538,238.485 288.972,187.78 304.179,156.026 "/>
<polyline fill="#FFFFFF" stroke="#EF6C68" stroke-width="5.1515" stroke-miterlimit="10" points="194.688,195.232 248.877,254.577 
	288.972,187.78 "/>
<path fill="#FFFFFF" stroke="#EF6C68" stroke-width="5.1515" stroke-miterlimit="10" d="M56.945,196.661"/>
<path fill="#FFFFFF" stroke="#EF6C68" stroke-width="5.1515" stroke-miterlimit="10" d="M55.602,148.861
	c0,0,1.343-104.591,134.551-109.878c0,0,121.744-7.007,137.148,109.878C327.302,148.861,196.188,194.156,55.602,148.861z"/>
<path fill="#FFFFFF" stroke="#EF6C68" stroke-width="4.2505" stroke-miterlimit="10" d="M110.73,131.991
	c0,0-7.435-15.783,1.739-20.612C112.47,111.378,120.601,109.387,110.73,131.991z"/>
<path fill="#FFFFFF" stroke="#EF6C68" stroke-width="4.7385" stroke-miterlimit="10" d="M159.01,85.643
	c0,0-5.958-14.483,2.428-18.323C161.438,67.32,168.764,65.984,159.01,85.643z"/>
<path fill="#FFFFFF" stroke="#EF6C68" stroke-width="4.7385" stroke-miterlimit="10" d="M225.182,99.667
	c0,0-6.963-14.486,1.446-18.31C226.628,81.353,233.165,81.342,225.182,99.667z"/>
<path fill="#FFFFFF" stroke="#EF6C68" stroke-width="5.7545" stroke-miterlimit="10" d="M185.735,139.16
	c0,0-7.255-17.585,2.955-22.229C188.69,116.93,197.58,115.285,185.735,139.16z"/>
<path fill="#FFFFFF" stroke="#EF6C68" stroke-width="4.7385" stroke-miterlimit="10" d="M265.032,136.803
	c0,0-9.651-11.752-2.738-18.263C262.294,118.541,268.882,114.731,265.032,136.803z"/>
</svg>
