<?xml version="1.0" encoding="utf-8"?>
<!-- Generator: Adobe Illustrator 16.0.0, SVG Export Plug-In . SVG Version: 6.00 Build 0)  -->
<!DOCTYPE svg PUBLIC "-//W3C//DTD SVG 1.1//EN" "http://www.w3.org/Graphics/SVG/1.1/DTD/svg11.dtd">
<svg version="1.1" id="Layer_1" xmlns="http://www.w3.org/2000/svg" xmlns:xlink="http://www.w3.org/1999/xlink" x="0px" y="0px"
	 width="380px" height="400px" viewBox="0 0 380 400" enable-background="new 0 0 380 400" xml:space="preserve">
<path fill="#FFFFFF" stroke="#EC6C68" stroke-width="3" stroke-miterlimit="10" d="M20,328.346v27.679
	c0,0-4.549,37.586,167.994,39.418c0,0,126.006,0.767,168.006-35.749v-31.348c0,0-57.426,35.016-168.006,35.013
	C187.994,363.358,53,360.43,20,328.346z"/>
<path fill="#FFFFFF" stroke="#EC6C68" stroke-width="3" stroke-miterlimit="10" d="M356,323v4.025c0,0-48.464,38.117-166.508,38.117
	c0,0-117.699,7.518-167.377-34.266L22.988,323H356z"/>
<path fill="#FFFFFF" stroke="#EC6C68" stroke-width="3" stroke-miterlimit="10" d="M27.824,330.055c0,0,24.048-3.312,33.262,10.463
	c7.81,6.898,13.992,16.872,50.88,1.765c0,0,18.83-6.264,38.459,10.476c0,0,14.023,15.444,31.65,2.784
	c0,0,15.224-12.688,26.845-2.889c0,0,23.233,11.458,43.771-5.362c0,0,13.92-14.262,27.536-3.648c0,0,19.604,18.778,37.528-3.619
	c0,0,12.122-15.795,33.387-16.906c0,0,31.618,5.883,20.718-29.117H6.971C6.971,294-13.061,324.941,27.824,330.055"/>
<path fill="#FFFFFF" stroke="#EC6C68" stroke-width="2.9321" stroke-miterlimit="10" d="M34.214,274.228
	c0,0-17.627,2.448-25.641,13.881c0,0-16.024,22.864,17.619,21.232c0,0,26.051-4.387,35.265,9.389c0,0,14.022,18.78,42.467,6.94
	c0,0,25.24-9.388,44.871,7.352c0,0,14.022,15.513,31.649,2.856c0,0,15.225-12.655,26.843-2.856c0,0,23.234,11.476,43.774-5.345
	c0,0,13.917-14.252,27.536-3.642c0,0,18.429,15.517,36.06-1.223c0,0,13.019-17.778,34.854-13.882c0,0,26.082,2.712,23.479-12.961
	c0,0-1.846-12.56-16.269-12.56"/>
<path fill="#FFFFFF" stroke="#EC6C68" stroke-width="2.9321" stroke-miterlimit="10" d="M107.128,273.803L31.81,249.517
	c0,0-16.025-4.249-16.025,5.009c0,0-10.949,4.678,1.87,10.668c0,0-4.807,4.106,0.534,8.189c0,0-1.602,9.812,8.013,7.364
	c0,0-9.749,12.391,8.012,10.214c0,0-1.203,7.929,8.547,5.309c0,0-2.537,13.416,11.737,11.033c0,0,2.767,11.361,17.19,9.377
	c0,0,8.725,7.276,25.017,4.745c0,0,50.485,18.136,118.06-14.122c0,0,100.891,16.123,107.705-7.56c0,0,17.827,1.432,21.83-10.002
	c0,0,16.427,6.274,14.827-4.344c0,0,9.014-1.811,4.604-7.118c0,0,9.214-6.15-1-7.576c0,0,7.812-4.215-3.203-6.46l-5.413-3.557"/>
<path fill="#FFFFFF" stroke="#EC6C68" stroke-width="2.9321" stroke-miterlimit="10" d="M199.632,300.224
	c0,0-97.525,31.137-135.169,0.745l-1.12-17.135l96.406-1.442L199.632,300.224z"/>
<path fill="#FFFFFF" stroke="#EC6C68" stroke-width="2.9321" stroke-miterlimit="10" d="M70.942,269.938
	c0,0-22.706,16.565,9.745,26.85c0,0,34.724,14.84,104.965-1.109"/>
<path fill="#FFFFFF" stroke="#EC6C68" stroke-width="2.9321" stroke-miterlimit="10" d="M223.482,267.971
	c0,0,97.195,32.454,134.843,2.062l1.449-15.52l-96.405-4.375L223.482,267.971z"/>
<path fill="#FFFFFF" stroke="#EC6C68" stroke-width="2.9321" stroke-miterlimit="10" d="M352.175,240.616
	c0,0,21.904,17.058-8.144,27.154c0,0-36.324,14.535-106.565-1.415"/>
<polyline fill="#FFFFFF" stroke="#EC6C68" stroke-width="2.9321" stroke-miterlimit="10" points="61.457,265.652 58.251,268.919 
	192.061,298.943 246.347,342.819 308.846,291.376 327.676,259.121 "/>
<polyline fill="#FFFFFF" stroke="#EC6C68" stroke-width="2.9321" stroke-miterlimit="10" points="192.061,298.943 259.166,359.152 
	308.846,291.376 "/>
<path fill="#FFFFFF" stroke="#EC6C68" stroke-width="2.9321" stroke-miterlimit="10" d="M23.47,318.602"/>
<path fill="#FFFFFF" stroke="#EC6C68" stroke-width="3" stroke-miterlimit="10" d="M20,216.265v25.132
	c0,0-4.549,34.12,167.994,35.782c0,0,126.006,0.7,168.006-32.453v-28.461c0,0-57.426,31.789-168.006,31.789
	C187.994,248.054,53,245.391,20,216.265z"/>
<path fill="#FFFFFF" stroke="#EC6C68" stroke-width="3" stroke-miterlimit="10" d="M356,216v1.999c0,0-48.464,34.604-166.508,34.604
	c0,0-117.699,7.651-167.377-30.282L22.988,216H356z"/>
<path fill="#FFFFFF" stroke="#EC6C68" stroke-width="2.9321" stroke-miterlimit="10" d="M352.237,214.377
	c0,0-24.11-2.259-32.988,11.697c-7.643,7.056-13.578,17.433-50.819,3.07c0,0-18.973-5.745-38.193,11.39
	c0,0-13.647,15.791-31.575,3.493c0,0-15.525-12.347-26.907-2.316c0,0-22.954,11.938-43.891-4.463c0,0-14.257-13.969-27.62-3.082
	c0,0-19.144,19.167-37.601-2.863c0,0-12.53-16.676-33.813-17.363c0,0-31.494,5.574-21.443-29.82l364.803-7.339
	C372.189,176.78,392.99,208.441,352.237,214.377"/>
<path fill="#FFFFFF" stroke="#EC6C68" stroke-width="2.9321" stroke-miterlimit="10" d="M344.535,159.825
	c0,0,17.681,2.094,25.968,13.363c0,0,16.57,22.537-17.105,21.58c0,0-26.148-3.861-35.027,10.098c0,0-13.567,19.056-42.292,7.791
	c0,0-25.459-8.879-44.685,8.252c0,0-13.646,15.796-31.572,3.494c0,0-15.524-12.348-26.906-2.319c0,0-22.954,11.942-43.89-4.459
	c0,0-14.258-13.97-27.621-3.086c0,0-18.05,15.883-36.077-0.499c0,0-13.443-17.512-35.179-13.177c0,0-26.012,3.233-23.785-12.489
	c0,0,1.541-12.591,15.961-12.88"/>
<path fill="#FFFFFF" stroke="#EC6C68" stroke-width="2.9321" stroke-miterlimit="10" d="M271.628,160.868l74.718-25.795
	c0,0,15.92-4.572,16.141,4.683c0,0,11.06,4.459-1.613,10.704c0,0,4.901,4.012-0.337,8.201c0,0,1.838,9.776-7.835,7.521
	c0,0,10.045,12.192-7.766,10.373c0,0,1.395,7.905-8.419,5.481c0,0,2.862,13.36-11.467,11.264c0,0-2.494,11.414-16.96,9.722
	c0,0-8.547,7.448-24.896,5.249c0,0-50.037,19.145-118.371-11.747c0,0-100.481,18.15-107.858-5.389c0,0-17.792,1.789-22.071-9.562
	c0,0-16.271,6.604-14.924-4.043c0,0-9.055-1.629-4.777-7.025c0,0-9.361-5.961,0.82-7.597c0,0-7.913-4.054,3.048-6.521l5.323-3.663"
	/>
<path fill="#FFFFFF" stroke="#EC6C68" stroke-width="2.9321" stroke-miterlimit="10" d="M179.781,189.144
	c0,0,98.25,29.166,135.158-1.974l0.704-17.154l-96.415,0.497L179.781,189.144z"/>
<path fill="#FFFFFF" stroke="#EC6C68" stroke-width="2.9321" stroke-miterlimit="10" d="M307.713,156.275
	c0,0,23.098,16.102-9.099,27.039c0,0-34.356,15.533-104.967,1.002"/>
<path fill="#FFFFFF" stroke="#EC6C68" stroke-width="2.9321" stroke-miterlimit="10" d="M155.159,157.379
	c0,0-96.39,34.397-134.757,4.772l-1.824-15.486l96.275-6.313L155.159,157.379z"/>
<path fill="#FFFFFF" stroke="#EC6C68" stroke-width="2.9321" stroke-miterlimit="10" d="M25.841,132.618
	c0,0-21.488,17.492,8.794,26.983c0,0,36.667,13.799,106.507-3.557"/>
<polyline fill="#FFFFFF" stroke="#EC6C68" stroke-width="2.9321" stroke-miterlimit="10" points="317.093,151.8 320.374,155.001 
	187.317,187.711 134.099,232.666 70.381,182.492 50.781,150.625 "/>
<polyline fill="#FFFFFF" stroke="#EC6C68" stroke-width="2.9321" stroke-miterlimit="10" points="187.317,187.711 121.674,249.25 
	70.381,182.492 "/>
<path fill="#FFFFFF" stroke="#EC6C68" stroke-width="2.9321" stroke-miterlimit="10" d="M22.995,143.388
	c0,0-4.417-134.004,166.659-133.898c0,0,155.979-8.796,169.871,133.898C359.525,143.388,197.135,189.323,22.995,143.388z"/>
<path fill="#FFFFFF" stroke="#EC6C68" stroke-width="2.9321" stroke-miterlimit="10" d="M88.304,118.837
	c0,0-11.153-19.422,2.609-25.36C90.913,93.478,103.11,91.002,88.304,118.837z"/>
<path fill="#FFFFFF" stroke="#EC6C68" stroke-width="2.9321" stroke-miterlimit="10" d="M150.447,65.033
	c0,0-8.011-15.985,3.284-20.195C153.731,44.837,163.61,43.338,150.447,65.033z"/>
<path fill="#FFFFFF" stroke="#EC6C68" stroke-width="2.9321" stroke-miterlimit="10" d="M236.98,82.625
	c0,0-8.009-15.984,3.288-20.195C240.269,62.43,250.147,60.93,236.98,82.625z"/>
<path fill="#FFFFFF" stroke="#EC6C68" stroke-width="2.9321" stroke-miterlimit="10" d="M185.702,114.879
	c0,0-8.012-15.985,3.282-20.196C188.984,94.683,198.864,93.183,185.702,114.879z"/>
<path fill="#FFFFFF" stroke="#EC6C68" stroke-width="2.9321" stroke-miterlimit="10" d="M291.917,120.424
	c0,0-13-12.951-3.671-20.138C288.246,100.287,297.141,96.076,291.917,120.424z"/>
</svg>
