<?xml version="1.0" encoding="utf-8"?>
<!-- Generator: Adobe Illustrator 16.0.0, SVG Export Plug-In . SVG Version: 6.00 Build 0)  -->
<!DOCTYPE svg PUBLIC "-//W3C//DTD SVG 1.1//EN" "http://www.w3.org/Graphics/SVG/1.1/DTD/svg11.dtd">
<svg version="1.1" id="Layer_1" xmlns="http://www.w3.org/2000/svg" xmlns:xlink="http://www.w3.org/1999/xlink" x="0px" y="0px"
	 width="380px" height="300px" viewBox="0 0 380 300" enable-background="new 0 0 380 300" xml:space="preserve">
<path fill="#FFFFFF" stroke="#EF6C68" stroke-width="5.5408" stroke-miterlimit="10" d="M64.494,222.51v24.098
	c0,0-3.084,37.258,122.445,38.851c0,0,94.636,0.678,122.47-31.132v-26.278c0,0-42.013,24.932-122.47,24.932
	C186.94,252.979,92.329,250.432,64.494,222.51z"/>
<path fill="#FFFFFF" stroke="#EF6C68" stroke-width="4.5531" stroke-miterlimit="10" d="M307.809,218.993l2.271,9.054
	c0,0-35.834,35.506-120.08,35.506c0,0-83.476,2.622-118.918-33.776l1.138-4.003L307.809,218.993z"/>
<path fill="#FFFFFF" stroke="#EF6C68" stroke-width="5.5408" stroke-miterlimit="10" d="M75.692,226.842
	c0,0,17.142-4.31,23.718,7.699c5.558,5.965,9.979,13.971,36.299,0.793c0,0,13.454-5.81,27.441,8.763c0,0,10.021,13.276,22.573,2.259
	c0,0,10.881-11.157,19.178-2.603c0,0,16.577,9.946,31.233-4.729c0,0,9.923-12.416,19.652-3.185c0,0,13.979,16.326,26.771-3.168
	c0,0,8.657-10.923,23.829-11.874c0,0,22.557,10.574,14.785-22.504H60.782C60.782,198.293,46.487,222.375,75.692,226.842"/>
<path fill="#FFFFFF" stroke="#EF6C68" stroke-width="4.5531" stroke-miterlimit="10" d="M80.244,175.361
	c0,0-12.597,2.14-18.328,12.09c0,0-11.414,19.919,12.584,18.495c0,0,18.59-3.805,25.155,8.167c0,0,10.026,16.362,30.334,6.05
	c0,0,17.996-8.168,32.003,6.389c0,0,9.999,13.528,22.594,2.524c0,0,10.871-11.036,19.144-2.524c0,0,16.596,10.032,31.225-4.666
	c0,0,9.922-12.38,19.671-3.146c0,0,13.148,13.511,25.716-1.072c0,0,9.301-15.489,24.874-12.087c0,0,18.612,2.375,16.754-11.288
	c0,0-1.299-10.923-11.618-10.923"/>
<path fill="#FFFFFF" stroke="#EF6C68" stroke-width="4.5531" stroke-miterlimit="10" d="M132.254,175.012L78.52,153.848
	c0,0-11.441-3.714-11.441,4.371c0,0-7.803,4.061,1.333,9.271c0,0-3.428,3.59,0.378,7.15c0,0-1.143,8.532,5.721,6.392
	c0,0-6.958,10.788,5.733,8.899c0,0-0.866,6.92,6.078,4.624c0,0-1.806,11.69,8.403,9.623c0,0,1.952,9.875,12.253,8.143
	c0,0,6.216,6.336,17.85,4.143c0,0,36.032,15.797,84.24-12.285c0,0,71.986,14.019,76.845-6.606c0,0,12.731,1.241,15.596-8.708
	c0,0,11.728,5.461,10.568-3.771c0,0,6.435-1.55,3.298-6.195c0,0,6.592-5.365-0.704-6.607c0,0,5.562-3.654-2.302-5.616l-3.857-3.112"
	/>
<path fill="#FFFFFF" stroke="#EF6C68" stroke-width="4.5531" stroke-miterlimit="10" d="M98.175,165.299
	c0,0-19.191,17.098,8.23,27.709c0,0,29.363,15.316,88.755-1.145"/>
<path fill="#FFFFFF" stroke="#EF6C68" stroke-width="4.5531" stroke-miterlimit="10" d="M307.136,148.655
	c0,0,15.615,14.847-5.825,23.638c0,0-25.928,12.666-76.043-1.228"/>
<polyline fill="#FFFFFF" stroke="#EF6C68" stroke-width="4.5531" stroke-miterlimit="10" points="99.656,167.897 97.381,170.738 
	192.869,196.874 231.626,235.103 276.202,190.287 289.643,162.222 "/>
<polyline fill="#FFFFFF" stroke="#EF6C68" stroke-width="4.5531" stroke-miterlimit="10" points="192.869,196.874 240.764,249.326 
	276.202,190.287 "/>
<path fill="#FFFFFF" stroke="#EF6C68" stroke-width="4.5531" stroke-miterlimit="10" d="M71.125,198.137"/>
<path fill="#FFFFFF" stroke="#EF6C68" stroke-width="4.5531" stroke-miterlimit="10" d="M69.939,155.89
	c0,0,1.187-92.442,118.922-97.115c0,0,107.603-6.193,121.217,97.115C310.079,155.89,194.194,195.923,69.939,155.89z"/>
<path fill="#FFFFFF" stroke="#EF6C68" stroke-width="3.7568" stroke-miterlimit="10" d="M118.664,140.979
	c0,0-6.572-13.95,1.537-18.218C120.202,122.76,127.388,121,118.664,140.979z"/>
<path fill="#FFFFFF" stroke="#EF6C68" stroke-width="4.1881" stroke-miterlimit="10" d="M161.335,100.015
	c0,0-5.266-12.801,2.146-16.195C163.481,83.82,169.957,82.639,161.335,100.015z"/>
<path fill="#FFFFFF" stroke="#EF6C68" stroke-width="4.1881" stroke-miterlimit="10" d="M219.82,112.41
	c0,0-6.153-12.803,1.278-16.184C221.099,96.223,226.877,96.213,219.82,112.41z"/>
<path fill="#FFFFFF" stroke="#EF6C68" stroke-width="5.0861" stroke-miterlimit="10" d="M184.956,147.315
	c0,0-6.412-15.542,2.612-19.647C187.568,127.667,195.426,126.213,184.956,147.315z"/>
<path fill="#FFFFFF" stroke="#EF6C68" stroke-width="4.1881" stroke-miterlimit="10" d="M255.043,145.231
	c0,0-8.531-10.387-2.421-16.141C252.622,129.091,258.445,125.724,255.043,145.231z"/>
</svg>
