<?xml version="1.0" encoding="utf-8"?>
<!-- Generator: Adobe Illustrator 16.0.0, SVG Export Plug-In . SVG Version: 6.00 Build 0)  -->
<!DOCTYPE svg PUBLIC "-//W3C//DTD SVG 1.1//EN" "http://www.w3.org/Graphics/SVG/1.1/DTD/svg11.dtd">
<svg version="1.1" id="Layer_1" xmlns="http://www.w3.org/2000/svg" xmlns:xlink="http://www.w3.org/1999/xlink" x="0px" y="0px"
	 width="380px" height="300px" viewBox="0 0 380 300" enable-background="new 0 0 380 300" xml:space="preserve">
<g>
	<path fill="#FFFFFF" stroke="#829F20" stroke-width="4.899" stroke-miterlimit="10" d="M231.115,296.006h-36.746V76.77l5.652-2.468
		l26.954,191.789L231.115,296.006z"/>
</g>
<line fill="#FFFFFF" stroke="#829F20" stroke-width="4.899" stroke-linecap="round" stroke-miterlimit="10" x1="193.354" y1="27.1" x2="193.172" y2="14.872"/>
<path fill="#FFFFFF" stroke="#829F20" stroke-width="5.0428" stroke-miterlimit="10" d="M92.748,135.384
	c0,0,119.708,1.275,222.107-13.997c0,0-19.35-101.158-128.066-95.064C186.788,26.324,97.167,38.866,92.748,135.384z"/>
<path fill="#FFFFFF" stroke="#829F20" stroke-width="4.899" stroke-miterlimit="10" d="M163.339,133.371
	c0,0-6.132-63.714,30.421-108.371c0,0,43.373,24.947,52.858,102.542C246.619,127.542,208.435,131.189,163.339,133.371z"/>
<path fill="#FFFFFF" stroke="#829F20" stroke-width="3.663" stroke-miterlimit="10" d="M103.7,210.696c0,0-1.71-8.973,1.833-15.146
	c0,0,1.19-1.897,7.47-2.444c0,0,5.578-0.103,7.329,2.328c0,0,2.994,8.312-1.375,17.503"/>
<path fill="#FFFFFF" stroke="#829F20" stroke-width="3.3392" stroke-miterlimit="10" d="M191.727,237.475
	c0,0,6.521-16.672,15.836-20.092c0,0-10.335,13.69-9.352,31.588c0,0,0.944,29.39-2.982,47.018h-14.45l2.782-3.567
	c0,0,3.26-1.627,0.808-20.091c0,0-22.05-2.877-40.185,3.501c0,0-2.512,3.584-2.924,17.002l3.013,3.562h-11.585l-0.494-20.316
	c0,0-2.348-2.771-6.544,0l-0.708,20.316h-12.169l3.014-3.42c0,0,0.978-6.055-2.199-19.857c0,0-3.597-17.71-3.285-23.924
	c0,0-26.554-10.865-28.812-30.125c0,0-7.683-12.41,23.823-12.569c0,0,27.356-0.373,38.782,2.099c0,0,5.807-11.19,13.165-13.165
	c0,0-0.99,4.356-4.086,17.911c0,0-3.625,14.798,0.189,22.727C153.364,236.071,175.878,233.607,191.727,237.475z"/>
<path fill="#FFFFFF" stroke="#829F20" stroke-width="4.5788" stroke-miterlimit="10" d="M108.151,251.988l9.055,4.606l-0.134,6.09
	l1.921-0.566l0.412-5.4c0,0,23.477-9.233,33.959-20.646c0,0,1.921-2.611-1.102-3.267c0,0-22.321,17.264-33.83,20.04
	c0,0-9.227-1.609-11.59-3.202C106.842,249.643,105.811,250.539,108.151,251.988z"/>
<path fill="#FFFFFF" stroke="#829F20" stroke-width="4.5788" stroke-miterlimit="10" d="M123.879,265.785
	c0,3.118-2.51,5.6-5.565,5.6c-3.082,0-5.565-2.481-5.565-5.6c0-3.054,2.484-5.542,5.565-5.542
	C121.369,260.243,123.879,262.731,123.879,265.785z"/>
<path fill="#FFFFFF" stroke="#829F20" stroke-width="4.5788" stroke-miterlimit="10" d="M80.654,210.78c0,0-3.549,9.167,8.991,9.515
	c0,0,5.235,0.205,3.467-5.989c0,0-1.321-4.587-4.092-5.979C89.02,208.326,82.699,205.497,80.654,210.78z"/>
<path fill="#FFFFFF" stroke="#829F20" stroke-width="5.374" stroke-miterlimit="10" d="M130.419,218.396
	c0,0,0.153,3.054,2.894,3.042c0,0,2.788-0.105,2.812-3.042c0,0-0.323-2.789-3.077-2.789
	C133.048,215.607,130.531,215.75,130.419,218.396z"/>
<path fill="#FFFFFF" stroke="#829F20" stroke-width="3.663" stroke-miterlimit="10" d="M130.419,197.998c0,0,9.002,1.02,9.002,8.336
	c0,0,0,19.055-9.698,21.567c0,0-7.83,2.64-11.485-10.442c0,0-1.952-9.433,1.333-16.915
	C119.571,200.544,121.08,196.854,130.419,197.998z"/>
</svg>
