<?xml version="1.0" encoding="utf-8"?>
<!-- Generator: Adobe Illustrator 16.0.0, SVG Export Plug-In . SVG Version: 6.00 Build 0)  -->
<!DOCTYPE svg PUBLIC "-//W3C//DTD SVG 1.1//EN" "http://www.w3.org/Graphics/SVG/1.1/DTD/svg11.dtd">
<svg version="1.1" id="Layer_1" xmlns="http://www.w3.org/2000/svg" xmlns:xlink="http://www.w3.org/1999/xlink" x="0px" y="0px"
	 width="380px" height="300px" viewBox="0 0 380 300" enable-background="new 0 0 380 300" xml:space="preserve">
<path fill="#FFFFFF" stroke="#F4AE31" stroke-width="3.4579" stroke-miterlimit="10" d="M281.972,91.058
	c-17.501,100.234-3.844,202.442-3.844,202.442H110.771c0,0,8.626-122.892-11.448-200.875c0,0,73.258-7.326,111.294-34.374
	c0,0,24.234,25.632,69.003,31.359L281.972,91.058z"/>
<path fill="#FFFFFF" d="M138.566,86.926c0,0-8.75-14.002-14.237-28.699c0,0-3.527-4.941,10.452-5.187c0,0,11.758,0.123,13.586-7.162
	c0,0,1.566-4.57,4.703,4.444c0,0,5.486,13.585,7.575,30.869"/>
<polygon fill="#FFFFFF" stroke="#F4AE31" stroke-width="3.5066" stroke-miterlimit="10" points="225.424,197.274 227.444,259.644 
	257.738,258.051 249.324,198.548 "/>
<polygon fill="#FFFFFF" stroke="#F4AE31" stroke-width="3.4579" stroke-miterlimit="10" points="137.195,209.363 131.64,271.888 
	158.229,271.888 161.597,207.533 "/>
<polygon fill="#FFFFFF" stroke="#F4AE31" stroke-width="3.5066" stroke-miterlimit="10" points="128.273,155.582 137.511,189.638 
	155.571,187.415 159.984,149.289 "/>
<polygon fill="#FFFFFF" stroke="#F4AE31" stroke-width="3.5066" stroke-miterlimit="10" points="182.912,164.457 213.574,164.175 
	206.336,195.129 176.688,195.442 "/>
<polygon fill="#FFFFFF" stroke="#F4AE31" stroke-width="3.5066" stroke-miterlimit="10" points="231.294,149.587 223.308,184.194 
	256.876,186.38 256.214,150.674 "/>
<path fill="#FFFFFF" stroke="#F4AE31" stroke-width="3.4579" stroke-miterlimit="10" d="M168.539,141.352h64.626
	c0,0,4.375-52.443-28.943-54.572C204.222,86.779,166.564,77.38,168.539,141.352z"/>
<polygon fill="#FFFFFF" stroke="#F4AE31" stroke-width="3.4579" stroke-miterlimit="10" points="176.852,217.426 174.459,278.804 
	213.978,278.804 213.488,217.426 "/>
<ellipse fill="#F4AE31" cx="204.387" cy="248.148" rx="3.664" ry="3.461"/>
<line fill="none" stroke="#F4AE31" stroke-width="1.7533" stroke-miterlimit="10" x1="144.281" y1="152.806" x2="145.463" y2="188.661"/>
<line fill="none" stroke="#F4AE31" stroke-width="1.7533" stroke-miterlimit="10" x1="133.272" y1="173.05" x2="157.82" y2="167.984"/>
<line fill="none" stroke="#F4AE31" stroke-width="1.7533" stroke-miterlimit="10" x1="179.829" y1="179.806" x2="209.812" y2="179.301"/>
<line fill="none" stroke="#F4AE31" stroke-width="1.7533" stroke-miterlimit="10" x1="198.832" y1="164.31" x2="191.657" y2="195.295"/>
<line fill="none" stroke="#F4AE31" stroke-width="1.7533" stroke-miterlimit="10" x1="243.528" y1="150.121" x2="240.091" y2="185.262"/>
<line fill="none" stroke="#F4AE31" stroke-width="1.7533" stroke-miterlimit="10" x1="227.21" y1="166.327" x2="256.534" y2="167.984"/>
<line fill="none" stroke="#F4AE31" stroke-width="1.7533" stroke-miterlimit="10" x1="135.17" y1="230.857" x2="159.984" y2="229.413"/>
<line fill="none" stroke="#F4AE31" stroke-width="1.7533" stroke-miterlimit="10" x1="147.577" y1="230.135" x2="144.281" y2="271.415"/>
<line fill="none" stroke="#F4AE31" stroke-width="1.7533" stroke-miterlimit="10" x1="133.272" y1="252.146" x2="159.312" y2="250.775"/>
<line fill="none" stroke="#F4AE31" stroke-width="1.729" stroke-miterlimit="10" x1="225.484" y1="219.154" x2="251.419" y2="219.154"/>
<line fill="none" stroke="#F4AE31" stroke-width="1.7072" stroke-miterlimit="10" x1="238.718" y1="218.238" x2="243.528" y2="258.291"/>
<line fill="none" stroke="#F4AE31" stroke-width="1.7533" stroke-miterlimit="10" x1="226.786" y1="239.298" x2="254.193" y2="232.983"/>
<polygon fill="#FFFFFF" stroke="#F4AE31" stroke-width="3.4579" stroke-miterlimit="10" points="169.548,286.584 171.313,278.804 
	218.017,278.804 219.28,286.584 "/>
<polyline fill="#FFFFFF" stroke="#F4AE31" stroke-width="3.5066" stroke-miterlimit="10" points="161.973,291.306 163.489,285.579 
	225.424,284.622 226.854,291.306 "/>
<line fill="none" stroke="#F4AE31" stroke-width="1.729" stroke-miterlimit="10" x1="169.293" y1="116.282" x2="230.671" y2="116.282"/>
<line fill="none" stroke="#F4AE31" stroke-width="1.729" stroke-miterlimit="10" x1="199.55" y1="139.623" x2="199.55" y2="85.16"/>
<path fill="none" stroke="#F4AE31" stroke-width="10.8" stroke-miterlimit="10" d="M78.667,91.949c0,0,86.589-3.818,132.283-37.23
	c0,0,27.468,29.592,84.151,34.365"/>
<path fill="none" stroke="#FFFFFF" stroke-width="5.2598" stroke-miterlimit="10" d="M80.687,91.949c0,0,85.162-3.818,129.93-37.23
	c0,0,26.593,29.592,82.128,34.365"/>
</svg>
