<?xml version="1.0" encoding="utf-8"?>
<!-- Generator: Adobe Illustrator 16.0.0, SVG Export Plug-In . SVG Version: 6.00 Build 0)  -->
<!DOCTYPE svg PUBLIC "-//W3C//DTD SVG 1.1//EN" "http://www.w3.org/Graphics/SVG/1.1/DTD/svg11.dtd">
<svg version="1.1" id="Layer_1" xmlns="http://www.w3.org/2000/svg" xmlns:xlink="http://www.w3.org/1999/xlink" x="0px" y="0px"
	 width="380px" height="300px" viewBox="0 0 380 300" enable-background="new 0 0 380 300" xml:space="preserve">
<path fill="#FFFFFF" stroke="#4B3A22" stroke-width="4.5849" stroke-miterlimit="10" d="M26.047,255.422h330.249
	c0,0,5.437-44.474-24.495-62.923v-45.818l-18.725-43.333l-123.242-8.95c0,0-40.452,15.929-66.872,69.611
	c0,0-96.627,5.596-96.627,57.87L26.047,255.422z"/>
<line fill="none" stroke="#4B3A22" stroke-width="3.3173" stroke-miterlimit="10" x1="124.831" y1="164.009" x2="124.831" y2="242.19"/>
<line fill="none" stroke="#4B3A22" stroke-width="3.3173" stroke-miterlimit="10" x1="221.025" y1="151.794" x2="221.025" y2="247.994"/>
<path fill="#FFFFFF" stroke="#4B3A22" stroke-width="3.3173" stroke-miterlimit="10" d="M258.622,248.489
	c0,0,0-38.646,35.386-42.792v-55.591"/>
<path fill="#FFFFFF" stroke="#4B3A22" stroke-width="4.5849" stroke-miterlimit="10" d="M357.467,240.864
	c8.816,9.956,1.234,14.558,1.234,14.558H20.333l4.143-12.2L357.467,240.864z"/>
<path fill="#FFFFFF" stroke="#4B3A22" stroke-width="3.3173" stroke-miterlimit="10" d="M134.066,247.938
	c0,18.903-15.322,34.226-34.221,34.226c-18.908,0-34.226-15.322-34.226-34.226c0-18.904,15.318-34.226,34.226-34.226
	C118.744,213.712,134.066,229.033,134.066,247.938z"/>
<path fill="#4B3A22" stroke="#FFFFFF" stroke-width="3.3173" stroke-miterlimit="10" d="M114.163,247.941
	c0,8.059-6.53,14.593-14.593,14.593c-8.059,0-14.593-6.534-14.593-14.593c0-8.061,6.534-14.597,14.593-14.597
	C107.632,233.345,114.163,239.881,114.163,247.941z"/>
<path fill="#FFFFFF" stroke="#4B3A22" stroke-width="3.3173" stroke-miterlimit="10" d="M273.572,229.189
	c10.357-15.816,31.572-20.233,47.378-9.876c15.815,10.358,20.234,31.568,9.88,47.384c-10.358,15.804-31.572,20.233-47.387,9.876
	C267.636,266.214,263.214,244.999,273.572,229.189z"/>
<path fill="#4B3A22" stroke="#FFFFFF" stroke-width="3.3173" stroke-miterlimit="10" d="M290.886,239.942
	c4.418-6.743,13.462-8.627,20.204-4.209c6.742,4.417,8.628,13.466,4.216,20.202c-4.423,6.749-13.468,8.635-20.209,4.216
	C288.353,255.734,286.468,246.688,290.886,239.942z"/>
<path fill="#4B3A22" d="M151.342,164.009c0,0,10.777-27.169,49.06-48.732l83.63,3.318c0,0,4.857,14.633,11.493,31.512
	C295.525,150.106,223.433,155.524,151.342,164.009z"/>
</svg>
