<?xml version="1.0" encoding="utf-8"?>
<!-- Generator: Adobe Illustrator 16.0.0, SVG Export Plug-In . SVG Version: 6.00 Build 0)  -->
<!DOCTYPE svg PUBLIC "-//W3C//DTD SVG 1.1//EN" "http://www.w3.org/Graphics/SVG/1.1/DTD/svg11.dtd">
<svg version="1.1" id="Layer_1" xmlns="http://www.w3.org/2000/svg" xmlns:xlink="http://www.w3.org/1999/xlink" x="0px" y="0px"
	 width="380px" height="300px" viewBox="0 0 380 300" enable-background="new 0 0 380 300" xml:space="preserve">
<path fill="#FFFFFF" stroke="#4B3A22" stroke-width="5" stroke-miterlimit="10" d="M10.565,263h360.147
	c0,0,5.929-48.5-26.713-68.619v-49.967l-20.419-47.256l-134.401-9.76c0,0-44.113,17.371-72.925,75.913
	c0,0-105.375,6.102-105.375,63.109L10.565,263z"/>
<line fill="#FFFFFF" stroke="#4B3A22" stroke-width="3.6176" stroke-miterlimit="10" x1="118.291" y1="163.311" x2="118.291" y2="248.571"/>
<line fill="#FFFFFF" stroke="#4B3A22" stroke-width="3.6176" stroke-miterlimit="10" x1="223.196" y1="149.99" x2="223.196" y2="254.901"/>
<path fill="#FFFFFF" stroke="#4B3A22" stroke-width="3.6176" stroke-miterlimit="10" d="M264.195,255.439c0,0,0-42.143,38.59-46.665
	V148.15"/>
<path fill="#FFFFFF" stroke="#4B3A22" stroke-width="5" stroke-miterlimit="10" d="M371.989,247.125
	c9.614,10.858,1.346,15.875,1.346,15.875H4.333l4.518-13.304L371.989,247.125z"/>
<path fill="#FFFFFF" stroke="#4B3A22" stroke-width="3.6176" stroke-miterlimit="10" d="M128.363,254.838
	c0,20.615-16.709,37.324-37.319,37.324c-20.62,0-37.325-16.709-37.325-37.324s16.705-37.324,37.325-37.324
	C111.654,217.514,128.363,234.223,128.363,254.838z"/>
<path fill="#4B3A22" stroke="#FFFFFF" stroke-width="3.6176" stroke-miterlimit="10" d="M106.657,254.843
	c0,8.788-7.121,15.914-15.914,15.914c-8.788,0-15.914-7.126-15.914-15.914c0-8.791,7.126-15.918,15.914-15.918
	C99.536,238.925,106.657,246.052,106.657,254.843z"/>
<path fill="#FFFFFF" stroke="#4B3A22" stroke-width="3.6176" stroke-miterlimit="10" d="M280.499,234.392
	c11.296-17.247,34.431-22.065,51.668-10.769c17.247,11.296,22.065,34.426,10.774,51.673c-11.296,17.235-34.431,22.065-51.678,10.77
	C274.026,274.77,269.203,251.634,280.499,234.392z"/>
<path fill="#4B3A22" stroke="#FFFFFF" stroke-width="3.6176" stroke-miterlimit="10" d="M299.38,246.119
	c4.818-7.353,14.681-9.408,22.034-4.59c7.353,4.817,9.408,14.685,4.597,22.032c-4.823,7.359-14.687,9.415-22.039,4.597
	C296.618,263.341,294.562,253.474,299.38,246.119z"/>
<path fill="#4B3A22" d="M147.203,163.311c0,0,11.753-29.629,53.502-53.144l91.201,3.619c0,0,5.297,15.958,12.534,34.365
	C304.44,148.15,225.821,154.059,147.203,163.311z"/>
</svg>
