<?xml version="1.0" encoding="utf-8"?>
<!-- Generator: Adobe Illustrator 16.0.0, SVG Export Plug-In . SVG Version: 6.00 Build 0)  -->
<!DOCTYPE svg PUBLIC "-//W3C//DTD SVG 1.1//EN" "http://www.w3.org/Graphics/SVG/1.1/DTD/svg11.dtd">
<svg version="1.1" id="Layer_1" xmlns="http://www.w3.org/2000/svg" xmlns:xlink="http://www.w3.org/1999/xlink" x="0px" y="0px"
	 width="740px" height="360px" viewBox="0 0 740 360" enable-background="new 0 0 740 360" xml:space="preserve">
<g>
	<path fill="#FFFFFF" stroke="#EEA831" stroke-width="4" stroke-miterlimit="10" d="M417.808,78.296
		C396.045,202.935,413.027,331,413.027,331H204.92c0,0,10.727-153.784-14.235-250.755c0,0,91.096-9.596,138.394-43.228
		c0,0,30.135,32.115,85.804,39.236L417.808,78.296z"/>
	<path fill="#FFFFFF" stroke="#EEA831" stroke-width="2.6" stroke-miterlimit="10" d="M239.484,72.187
		c0,0-10.88-17.412-17.704-35.686c0,0-4.386-6.145,12.997-6.451c0,0,14.619,0.153,16.894-8.906c0,0,1.947-5.682,5.849,5.527
		c0,0,6.821,16.894,9.419,38.386"/>
	<polygon fill="#FFFFFF" stroke="#EEA831" stroke-width="4.3604" stroke-miterlimit="10" points="347.49,209.404 350.002,286.957 
		387.672,284.978 377.21,210.986 	"/>
	<polygon fill="#FFFFFF" stroke="#EEA831" stroke-width="4" stroke-miterlimit="10" points="237.779,225.344 230.872,304 
		263.934,304 268.121,223.521 	"/>
	<polygon fill="#FFFFFF" stroke="#EEA831" stroke-width="4.3604" stroke-miterlimit="10" points="226.686,157.56 238.172,199.906 
		260.631,197.145 266.117,149.734 	"/>
	<polygon fill="#FFFFFF" stroke="#EEA831" stroke-width="4.3604" stroke-miterlimit="10" points="294.627,168.596 332.754,168.244 
		323.755,206.736 286.887,207.126 	"/>
	<polygon fill="#FFFFFF" stroke="#EEA831" stroke-width="4.3604" stroke-miterlimit="10" points="354.789,150.106 344.858,193.137 
		386.6,195.856 385.777,151.456 	"/>
	<path fill="#FFFFFF" stroke="#EEA831" stroke-width="4" stroke-miterlimit="10" d="M276.756,140h80.362
		c0,0,5.438-65.21-35.992-67.859C321.126,72.141,274.301,63,276.756,140z"/>
	<polygon fill="#FFFFFF" stroke="#EEA831" stroke-width="4" stroke-miterlimit="10" points="287.09,235 284.116,313 333.258,313 
		332.648,235 	"/>
	<ellipse fill="#EEA831" cx="320.297" cy="273.701" rx="5.145" ry="4.859"/>
	
		<line fill="#FFFFFF" stroke="#EEA831" stroke-width="2.1802" stroke-miterlimit="10" x1="246.59" y1="154.107" x2="248.061" y2="198.692"/>
	
		<line fill="#FFFFFF" stroke="#EEA831" stroke-width="2.1802" stroke-miterlimit="10" x1="232.901" y1="179.281" x2="263.428" y2="172.981"/>
	
		<line fill="#FFFFFF" stroke="#EEA831" stroke-width="2.1802" stroke-miterlimit="10" x1="290.792" y1="187.684" x2="328.08" y2="187.055"/>
	
		<line fill="#FFFFFF" stroke="#EEA831" stroke-width="2.1802" stroke-miterlimit="10" x1="314.424" y1="168.413" x2="305.503" y2="206.941"/>
	
		<line fill="#FFFFFF" stroke="#EEA831" stroke-width="2.1802" stroke-miterlimit="10" x1="370.002" y1="150.769" x2="365.729" y2="194.467"/>
	
		<line fill="#FFFFFF" stroke="#EEA831" stroke-width="2.1802" stroke-miterlimit="10" x1="349.711" y1="170.921" x2="386.176" y2="172.981"/>
	
		<line fill="#FFFFFF" stroke="#EEA831" stroke-width="2.1802" stroke-miterlimit="10" x1="235.262" y1="251.164" x2="266.117" y2="249.367"/>
	
		<line fill="#FFFFFF" stroke="#EEA831" stroke-width="2.1802" stroke-miterlimit="10" x1="250.688" y1="250.266" x2="246.59" y2="301.596"/>
	
		<line fill="#FFFFFF" stroke="#EEA831" stroke-width="2.1802" stroke-miterlimit="10" x1="232.901" y1="277.636" x2="265.28" y2="275.932"/>
	<line fill="#FFFFFF" stroke="#EEA831" stroke-width="3" stroke-miterlimit="10" x1="348" y1="240.5" x2="381" y2="240.5"/>
	
		<line fill="#FFFFFF" stroke="#EEA831" stroke-width="2.0826" stroke-miterlimit="10" x1="364.022" y1="239.834" x2="370.002" y2="285.274"/>
	
		<line fill="#FFFFFF" stroke="#EEA831" stroke-width="2.1802" stroke-miterlimit="10" x1="349.186" y1="261.658" x2="383.266" y2="253.807"/>
	<polygon fill="#FFFFFF" stroke="#EEA831" stroke-width="3" stroke-miterlimit="10" points="278.01,321.5 280.205,313.5 
		338.279,313.5 339.85,321.5 	"/>
	<polyline fill="#FFFFFF" stroke="#EEA831" stroke-width="2.1802" stroke-miterlimit="10" points="268.591,329.512 270.475,322.389 
		347.49,321.201 349.269,329.512 	"/>
	<line fill="#FFFFFF" stroke="#EEA831" stroke-width="3" stroke-miterlimit="10" x1="279" y1="112.5" x2="355" y2="112.5"/>
	<line fill="#FFFFFF" stroke="#EEA831" stroke-width="3" stroke-miterlimit="10" x1="316.5" y1="140" x2="316.5" y2="73"/>
	<path fill="none" stroke="#EFA931" stroke-width="13.4295" stroke-miterlimit="10" d="M165,78.433
		c0,0,107.673-4.748,164.492-46.294c0,0,34.156,36.797,104.642,42.731"/>
	<path fill="none" stroke="#FFFFFF" stroke-width="6.5405" stroke-miterlimit="10" d="M167.513,78.433
		c0,0,105.896-4.748,161.565-46.294c0,0,33.066,36.797,102.125,42.731"/>
</g>
<g>
	<path fill="#FFFFFF" stroke="#259DC4" stroke-width="1.4837" stroke-miterlimit="10" d="M639.994,337.814c0,0,3.387,0.669,8.341,0
		c0.628-0.086,1.874-0.18,4.17,0.154c0,0,4.849,0.771,6.93-0.629c0,0,0.743-2.004-0.801-4.674
		C658.634,332.666,640.578,335.34,639.994,337.814z"/>
	<path fill="#FFFFFF" stroke="#259DC4" stroke-width="2" stroke-miterlimit="10" d="M677.459,300.062
		c0,0-15.104-8.791-36.819-12.574c0,0-7.809-1.502-9.812,2.616c0,0-2.345,3.538,1.029,9.735l12.646,19.806l10.812-4.282
		c0,0-2.018-6.364-5.493-11.93c0,0-1.372-1.842,0.287-0.506c0,0,9.133,7.699,16.077,8.15L677.459,300.062z"/>
	<path fill="#FFFFFF" stroke="#259DC4" stroke-width="1.4837" stroke-miterlimit="10" d="M678.594,297.584
		c0,0-0.825-4.871,0.709-7.289l15.821-2.418c0,0,1.2,5.783,0.485,11.684C694.891,305.459,678.594,297.584,678.594,297.584z"/>
	<path fill="#FFFFFF" stroke="#259DC4" stroke-width="2" stroke-miterlimit="10" d="M696.167,297.893c0,0-0.113,8.457-1.945,15.355
		c0,0-1.603,7.9-11.672,8.568c0,0-7.151-0.403-13.503,0.779c0,0-24.889,4.826-28.265,4.506l-0.8-0.166c0,0,1.26,0.333,2.289,0.444
		l-2.289,1.058c0,0,2.85-1.518,14.876-2.949c0,0,8.872-1.258,15.639-2.699c0,0,3.555-0.832,13.611-0.709l2.677,8.582
		c0,0-15.163-1.335-50.064,8.012c0,0-8.181,2.727-11.844-4.338c0,0-2.402-4.453,3.662-10.684c0,0,4.52-4.395,19.452-11.017
		c0,0,12.636-5.091,24.203-9.235c0,0,5.607-1.725,5.836-7.566c0,0,3.091-0.501,9.84,0.891c0,0,3.836,0.834,6.181,0.277
		C694.051,297.002,696.167,296.668,696.167,297.893z"/>
	<path fill="#FFFFFF" stroke="#259DC4" stroke-width="1.4837" stroke-miterlimit="10" d="M682.735,336.895
		c0,0-0.129-1.231,1.589-1.836c0,0,1.822-0.355,1.801-2.922c0,0,0.247-3.449-1.63-7.01c0,0-1.208-2.133-0.387-3.047
		c0,0,4.632-0.881,6.566-2.774c0,0,2.188,1.481,1.501,5.112c0,0-0.729,3.88-0.358,7.552c0,0,0.617,3.965-0.37,5.592
		c0,0-0.387,0.808-4.55,0.946C686.897,338.508,682.922,338.73,682.735,336.895z"/>
	<path fill="#FFFFFF" stroke="#259DC4" stroke-width="1.4837" stroke-miterlimit="10" d="M687.529,308.853
		c0,0-2.104,3.38-2.09,5.446c0,0,0,4.693,1.458,5.445c0,0,1.16,1.001,4.506-2.754c0,0,2.404-2.338,2.789-6.761
		C694.192,310.229,690.288,310.855,687.529,308.853z"/>
	<path fill="#FFFFFF" stroke="#259DC4" stroke-width="1.4837" stroke-miterlimit="10" d="M681.318,296.998
		c-1.486-0.329-2.58-0.887-2.58-0.887c-1.592-0.768-1.875-0.172-1.875-0.172c-0.864,1.396-0.551,2.955-0.551,2.955
		s0.097,0.693,1.786,0.526c0,0,1.891-0.145,3.564,0.488c0,0,3.175,1.35,9.126,1.836c0,0,1.119,0.071,2.246,0.046
		c0,0,2.446-0.012,3.33,0.219c0,0,0.457-0.834,0.271-2.759c0,0-2.38-1.312-9.107-1.667
		C687.529,297.584,683.122,297.398,681.318,296.998z"/>
	<path fill="#FFFFFF" stroke="#259DC4" stroke-miterlimit="10" d="M693.035,302.636c0,0,1.05-2.474,0-4.841
		c0,0,0.515-0.668,1.157,0.375c0,0,1.116,2.045,0.302,3.924C694.494,302.094,694.021,303.053,693.035,302.636z"/>
	<path fill="#FFFFFF" stroke="#259DC4" stroke-miterlimit="10" d="M682.374,300.928c0,0-0.663-2.333,0.615-4.232
		c0,0-0.378-0.648-1.091,0.186c0,0-1.264,1.537-0.674,3.404C681.225,300.285,681.568,301.182,682.374,300.928z"/>
	<polygon fill="#FFFFFF" stroke="#259DC4" stroke-width="1.4" stroke-miterlimit="10" points="637.878,228.148 628.859,225.906 
		626.704,234.215 635.861,236.588 	"/>
	<path fill="#FFFFFF" stroke="#259DC4" stroke-width="1.4" stroke-miterlimit="10" d="M641.934,214.481l6.537,2.591l-2.042,7.696
		h-1.819l-0.102,0.33c0,0,1.338-0.007,2.299,1.884c0,0,0.479,1.346,2.17,1.543c0,0,0.807-0.063,0.607,0.919l-1.768,10.815
		c0,0-0.111,2.784-4.226,2.096c0,0-9.028-0.554-8.749-5.562c0,0,1.002-4.733,2.422-10.063c0,0,0.204-2.111,3.609-1.693
		c0,0,0.209-1.502,2.506-1.011l1.23-5.665c0,0-0.556-1.867-2.907-2.07L641.934,214.481z"/>
	<path fill="#FFFFFF" stroke="#259DC4" stroke-width="1.7" stroke-miterlimit="10" d="M649.635,267.793l-0.672,0.835
		c0,0-3.833-8.513-4.004-20.642c0,0,0.057-6.287,1.373-9.569c0,0,1.988-4.131,0.965-7.567c0,0-0.377-1.791-1.122-3.49
		c0,0-1.522-0.585-0.815,1.71c0,0,0.688,1.106,0.431,2.191c0,0-0.193,0.271-0.581,0.417c0,0-1.051-0.167-2.532-1.69
		c0,0-1.544-1.355-2.617-0.646c0,0-1.522,1.314-2.102,3.109c0,0-0.287,1.032-0.601,1.669c0,0-0.816,1.439-0.301,2.523
		c0,0,1.116,1.523,3.562,2.838c0,0,1.266,0.557,1.31,1.996c0,0-3.205,19.418-0.63,29.146c0,0,2.088,7.629,5.777,7.881
		c0,0,2.559,0.639,8.411-5.48L649.635,267.793z"/>
	<path fill="#FFFFFF" stroke="#259DC4" stroke-width="2" stroke-miterlimit="10" d="M649.814,266.755
		c-0.346,0.407-0.135,1.025,0.148,1.481c3.348,5.354,5.819,5.681,5.819,5.681c1.873-0.911,5.356-4.729,5.356-4.729
		c1.172,5.254,11.554,12.917,11.554,12.917c2.663,1.708,2.899,4.989,2.899,4.989c0.232,1.193,0.869,1.703,0.869,1.703
		c0.834,0.875,0.638,1.73,0.638,1.73c-0.13,1.078,0.353,1.71,0.353,1.71c0.439,0.679,0.424,1.37,0.424,1.37
		c0.672,0.031,1.405-0.379,1.405-0.379c1.696-1.086,3.601-0.732,3.601-0.732c4.862,0.434,7.79-1.766,7.79-1.766
		c2.856-1.656,5.185-0.814,5.185-0.814s0.353,0.125,0-2.162c0,0-2.286-20.855-13.706-35.32l-7.496-5.81
		c0,0-7.554-0.342-14.993,8.656C659.66,255.28,655.205,260.422,649.814,266.755z"/>
	<path fill="#FFFFFF" stroke="#259DC4" stroke-width="1.4837" stroke-miterlimit="10" d="M677.3,290.295
		c0,0,0.918-1.615,4.067-1.947c0,0,2.21-0.164,4.854-1.906c0,0,5.457-3.524,9.039-1.209"/>
	<path fill="#FFFFFF" stroke="#259DC4" stroke-width="1.4837" stroke-miterlimit="10" d="M675.644,285.653
		c0,0,2.132,0.415,4.902-2.155c0,0,7.101-6.763,13.762-2.637"/>
	<path fill="#FFFFFF" stroke="#259DC4" stroke-width="1.4837" stroke-miterlimit="10" d="M673.861,282.604
		c0,0,7.639-9.193,19.212-6.766"/>
	<path fill="#FFFFFF" stroke="#259DC4" stroke-width="1.4837" stroke-miterlimit="10" d="M670.347,279.787
		c0,0,2.814-6.396,8.707-6.893c0,0,4.284-0.125,7.57-1.824c0,0,2.494-1.244,4.802-0.229"/>
	<path fill="#FFFFFF" stroke="#259DC4" stroke-width="1.4837" stroke-miterlimit="10" d="M665.143,275.114
		c0,0,1.717,0.015,3.36-1.999c0,0,2.947-4.363,9.551-4.601c0,0,4.706-0.042,7.819-2.114c0,0,2.114-1.492,3.419-1.04"/>
	<path fill="#FFFFFF" stroke="#259DC4" stroke-width="1.4837" stroke-miterlimit="10" d="M661.978,270.353
		c0,0,2.336-3.81,8.005-3.81c0,0,4.476,0.279,8.1-2.543c0,0,4.789-4.094,8.71-3.862"/>
	<path fill="#FFFFFF" stroke="#259DC4" stroke-width="1.4837" stroke-miterlimit="10" d="M684.834,256.846
		c0,0-2.801-1.182-12.025,4.271c0,0-3.248,1.947-5.191,1.947c0,0-1.659-6.036-8.529-6.569"/>
	<path fill="#FFFFFF" stroke="#259DC4" stroke-width="1.4837" stroke-miterlimit="10" d="M682.51,253.451
		c0,0-2.703-1.001-5.292,0.555c0,0-1.163-4.924-7.618-5.908"/>
	<path fill="#FFFFFF" stroke="#259DC4" stroke-width="1.4837" stroke-miterlimit="10" d="M661.602,253.652
		c0,0,7.026-0.249,9.159,6.701"/>
	<path fill="#FFFFFF" stroke="#259DC4" stroke-width="1.4837" stroke-miterlimit="10" d="M664.815,250.821
		c0,0,7.021-0.714,9.569,6.62"/>
	<path fill="none" stroke="#259DC4" stroke-width="1.4837" stroke-miterlimit="10" d="M677.826,249.082
		c0,0,3.365,5.271-9.637,13.629c0,0-4.42,3.508-7.051,6.477"/>
	<path fill="#FFFFFF" stroke="#259DC4" stroke-width="1.4837" stroke-miterlimit="10" d="M656.43,259.579
		c0,0,5.307-0.249,7.758,6.016"/>
	<path fill="#FFFFFF" stroke="#259DC4" stroke-width="1.4837" stroke-miterlimit="10" d="M653.814,262.628
		c0,0,5.273,0.616,7.07,6.833"/>
	<path fill="#FFFFFF" stroke="#259DC4" stroke-width="1.4837" stroke-miterlimit="10" d="M658.199,271.674
		c0,0-1.915,0.105-2.849-2.542c0,0-1.159-3.548-4.332-3.286"/>
	<path fill="#FFFFFF" stroke="#259DC4" stroke-width="1.4" stroke-miterlimit="10" d="M629.063,225.672c0,0-0.272,4.42-2.292,8.412
		h-3.062c0,0,2.082-4.121,2.701-9.871L629.063,225.672z"/>
	<path fill="#FFFFFF" stroke="#259DC4" stroke-width="1.1" stroke-miterlimit="10" d="M672.079,246.445
		c-1.036-4.356-8.202-2.354-8.202-2.354c-4.656,0.939-6.523-0.167-6.523-0.167c-1.438-0.855-0.752-2.698-0.752-2.698
		c0.26-0.96,0.216-1.287,0.216-1.287c-0.021-0.98-0.559-1.449-0.559-1.449c-0.021-0.209,0.987-1.033,0.987-1.033
		c-0.922-0.459-1.395-1.211-1.395-1.211c0.815-0.604,0.836-1.126,0.836-1.126c0.216-0.585-0.943-0.96-0.943-0.96
		c-1.425-0.479-1.417-1.002-1.417-1.002c-0.214-0.876,3.649-2.962,3.649-2.962c1.414-1.001,1.284-2.628,1.284-2.628
		c0.085-3.59,1.462-5.592,1.462-5.592l19.397,4.59l0.429,19.027l-3.331,4.757L672.079,246.445z"/>
	<path fill="#FFFFFF" stroke="#259DC4" stroke-width="1.4837" stroke-miterlimit="10" d="M662.867,223.742
		c-0.742,1.99,0.594,4.529,0.594,4.529c-6.173-2.798-3.615-7.698-3.615-7.698c-4.187,0.985-2.879,5.855-2.879,5.855
		c-3.368-5.26,1.512-7.974,1.512-7.974s2.11-1.273,5.398-0.635c0,0,7.101-5.762,16.555-0.611c0,0,6.435,3.625,5.809,11.768
		c0,0-0.059,2.33-1.081,6.063c0,0-2.267,8.65,3.799,12.056c0,0-1.888,0.668-4.124-0.125c0,0,2.231,4.684,8.098,2.912
		c0,0-0.908,3.129-7.003,2.188c0,0,1.025,2.021,4.016,2.104c0,0-2.347,2.385-8.411-0.522c0,0-1.135-0.517-4.634-3.301
		c0,0-3.776-2.962-10.169-1.641c0,0,4.22-1.56,5.16-3.505c0,0-1.66,2.271-4.582,1.102c0,0,2.299-0.719,2.783-1.742
		c0,0-1.673,0.166-2.783-0.666c0,0,4.01-0.44,4.949-4.18c0,0-1.926,0.645-3.275-0.027c0,0,2.254-0.106,3.128-3.313
		c0,0-3.793-1.142-3.835-6.308c0,0-4.088-1.088-5.271-5.939L662.867,223.742z"/>
</g>
<g>
	<g>
		<path fill="#FFFFFF" stroke="#809720" stroke-width="3.2666" stroke-miterlimit="10" d="M441.229,310.272l17.966-127.89
			l3.773,1.635v146.199h-24.5L441.229,310.272z"/>
	</g>
	
		<line fill="#FFFFFF" stroke="#809720" stroke-width="3.2666" stroke-linecap="round" stroke-miterlimit="10" x1="464.65" y1="151.738" x2="464.771" y2="143.578"/>
	<path fill="#FFFFFF" stroke="#809720" stroke-width="3" stroke-miterlimit="10" d="M527.793,223.913c0,0-75.498,0-140.189-10.879
		c0,0,11.498-67.172,80.103-62.354C467.706,150.68,524.326,159.679,527.793,223.913z"/>
	<path fill="#FFFFFF" stroke="#809720" stroke-width="2" stroke-miterlimit="10" d="M484.659,222.605
		c0,0,4.092-42.497-20.284-72.271c0,0-28.929,16.629-35.245,68.365C429.13,218.699,454.585,221.134,484.659,222.605z"/>
	<path fill="#809720" stroke="#FFFFFF" stroke-width="3.6565" stroke-miterlimit="10" d="M505.441,270.6c0,0,0.113-6.75-5.665-8.424
		c0,0,0.603,4.924,0.868,10.542"/>
	<path fill="#FFFFFF" stroke="#809720" stroke-width="1.679" stroke-miterlimit="10" d="M524.839,272.168
		c0,0,1.165-6.105-1.237-10.322c0,0-0.826-1.256-5.09-1.655c0,0-3.789-0.087-4.983,1.584c0,0-2.043,5.673,0.931,11.915"/>
	<path fill="#FFFFFF" stroke="#809720" stroke-width="2" stroke-miterlimit="10" d="M464.952,290.391c0,0-4.446-11.35-10.781-13.684
		c0,0,7.03,9.327,6.366,21.499c0,0-0.644,19.995,2.025,31.995h9.838l-1.896-2.443c0,0-2.217-1.111-0.552-13.67
		c0,0,15.005-1.944,27.337,2.391c0,0,1.712,2.441,1.989,11.554l-2.05,2.446h7.891l0.33-13.836c0,0,1.612-1.89,4.45,0l0.495,13.836
		h8.278l-2.055-2.333c0,0-0.666-4.113,1.502-13.504c0,0,2.442-12.058,2.221-16.282c0,0,18.067-7.387,19.619-20.498
		c0,0,5.223-8.447-16.225-8.559c0,0-18.607-0.234-26.386,1.434c0,0-3.949-7.628-8.951-8.962c0,0,0.669,2.972,2.78,12.197
		c0,0,2.469,10.056-0.13,15.472C491.05,289.443,475.732,287.751,464.952,290.391z"/>
	<path fill="#FFFFFF" stroke="#809720" stroke-width="2" stroke-miterlimit="10" d="M521.824,300.261l-6.084,2.694v4.578
		l-1.295-0.376l-0.209-4.12c0,0-16.052-5.853-23.187-13.594c0,0-1.348-1.186,0.707-1.615c0,0,15.228,11.119,23.062,12.996
		c0,0,5.522-2.465,8.034-3.65C522.854,297.174,523.404,299.266,521.824,300.261z"/>
	<path fill="#FFFFFF" stroke="#809720" stroke-width="1.1193" stroke-miterlimit="10" d="M511.107,309.588
		c0,2.054,1.672,3.721,3.729,3.721c2.055,0,3.72-1.667,3.72-3.721c0-2.056-1.665-3.722-3.72-3.722
		C512.779,305.866,511.107,307.532,511.107,309.588z"/>
	<path fill="#FFFFFF" stroke="#809720" stroke-width="1.679" stroke-miterlimit="10" d="M540.525,272.194
		c0,0,2.408,6.276-6.117,6.501c0,0-3.56,0.137-2.363-4.085c0,0,0.902-3.126,2.789-4.065
		C534.834,270.545,539.135,268.609,540.525,272.194z"/>
	<path fill="#809720" stroke="#FFFFFF" stroke-width="3.6565" stroke-miterlimit="10" d="M506.658,277.396
		c0,0-0.096,2.09-1.963,2.066c0,0-1.896-0.051-1.922-2.066c0,0,0.227-1.894,2.094-1.894
		C504.867,275.503,506.584,275.604,506.658,277.396z"/>
	<path fill="#FFFFFF" stroke="#809720" stroke-width="1.679" stroke-miterlimit="10" d="M506.658,263.52
		c0,0-6.118,0.692-6.118,5.684c0,0,0,12.942,6.597,14.659c0,0,5.331,1.812,7.812-7.093c0,0,1.33-6.422-0.908-11.508
		C514.041,265.262,513.003,262.732,506.658,263.52z"/>
</g>
<g>
	<path fill="#FFFFFF" stroke="#4B3A22" stroke-width="3" stroke-miterlimit="10" d="M41.503,328.5H218.9c0,0-0.4-24.56-11.4-34.217
		v-23.418l-10.78-23.07l-66.906-4.764c0,0-22.019,8.48-36.288,37.06c0,0-51.784,2.851-51.784,30.683L41.503,328.5z"/>
	
		<line fill="#FFFFFF" stroke="#4B3A22" stroke-width="1.7789" stroke-miterlimit="10" x1="94.364" y1="280.091" x2="94.364" y2="321.713"/>
	
		<line fill="#FFFFFF" stroke="#4B3A22" stroke-width="1.7789" stroke-miterlimit="10" x1="146.326" y1="273.588" x2="146.326" y2="324.804"/>
	<path fill="#FFFFFF" stroke="#4B3A22" stroke-width="1.7789" stroke-miterlimit="10" d="M166.635,325.066
		c0,0,0-20.572,19.113-22.779v-32.232"/>
	<path fill="#FFFFFF" stroke="#4B3A22" stroke-width="2" stroke-miterlimit="10" d="M220.027,320.629
		c4.762,5.301,0.667,7.371,0.667,7.371H37.921l2.238-6.304L220.027,320.629z"/>
	<path fill="#FFFFFF" stroke="#4B3A22" stroke-width="2" stroke-miterlimit="10" d="M99.354,324.773
		c0,10.062-8.276,18.22-18.484,18.22c-10.214,0-18.487-8.157-18.487-18.22c0-10.064,8.273-18.223,18.487-18.223
		C91.078,306.551,99.354,314.709,99.354,324.773z"/>
	<ellipse fill="#4B3A22" cx="80.721" cy="324.774" rx="7.882" ry="7.771"/>
	<path fill="#FFFFFF" stroke="#4B3A22" stroke-width="2" stroke-miterlimit="10" d="M174.711,314.791
		c5.594-8.418,17.054-10.771,25.593-5.257c8.541,5.513,10.927,16.806,5.335,25.226c-5.595,8.416-17.054,10.771-25.597,5.258
		C171.504,334.503,169.115,323.209,174.711,314.791z"/>
	<path fill="#4B3A22" d="M184.062,320.518c2.388-3.59,7.271-4.594,10.913-2.242s4.659,7.168,2.275,10.756
		c-2.388,3.592-7.272,4.596-10.914,2.242C182.695,328.923,181.677,324.106,184.062,320.518z"/>
	<path fill="none" stroke="#4B3A22" stroke-width="2.187" stroke-miterlimit="10" d="M106.014,278.59c0,0,5.821-15.6,26.499-27.078
		l45.174,1.766c0,0,3.885,7.205,7.471,16.191C185.157,269.469,145.368,273.012,106.014,278.59z"/>
</g>
<g>
	<path fill="#FFFFFF" stroke="#E76C68" stroke-width="1.5" stroke-miterlimit="10" d="M554.982,324.863v3.454
		c0,0-1.031,4.689,20.498,4.918c0,0,15.502,0.097,20.502-4.46v-3.912c0,0-6.701,4.369-20.502,4.369
		C575.48,329.232,558.982,328.866,554.982,324.863z"/>
	<path fill="#FFFFFF" stroke="#E76C68" stroke-miterlimit="10" d="M595.982,323.402v1.296c0,0-5.932,4.757-20.662,4.757
		c0,0-14.63,0.541-20.828-4.674l0.166-1.379H595.982z"/>
	<path fill="#FFFFFF" stroke="#E76C68" stroke-miterlimit="10" d="M555.262,324.988c0,0,3-0.369,4.15,1.35
		c0.975,0.861,1.746,2.127,6.349,0.242c0,0,2.351-0.771,4.801,1.318c0,0,1.749,1.934,3.948,0.354c0,0,1.9-1.581,3.351-0.359
		c0,0,2.899,1.433,5.463-0.666c0,0,1.736-1.78,3.436-0.455c0,0,2.445,2.344,4.683-0.451c0,0,1.513-2.059,4.166-2.197
		c0,0,3.945,0.279,2.587-3.721h-45.535C552.659,320.402,550.159,324.351,555.262,324.988"/>
	<path fill="#FFFFFF" stroke="#E76C68" stroke-miterlimit="10" d="M556.059,318.109c0,0-2.2,0.306-3.199,1.732
		c0,0-2,2.854,2.198,2.648c0,0,3.251-0.547,4.4,1.173c0,0,1.751,2.343,5.3,0.866c0,0,3.15-1.172,5.6,0.917
		c0,0,1.75,1.937,3.949,0.356c0,0,1.899-1.58,3.351-0.356c0,0,2.897,1.433,5.462-0.667c0,0,1.736-1.779,3.436-0.454
		c0,0,2.301,1.937,4.5-0.152c0,0,1.625-2.22,4.35-1.733c0,0,3.254,0.339,2.931-1.617c0,0-0.23-1.566-2.031-1.566"/>
	<path fill="#FFFFFF" stroke="#E76C68" stroke-miterlimit="10" d="M565.158,317.057l-9.399-3.03c0,0-1.999-0.53-1.999,0.624
		c0,0-1.367,0.584,0.232,1.332c0,0-0.6,0.512,0.066,1.021c0,0-0.2,1.225,1.001,0.919c0,0-1.217,1.546,0.999,1.274
		c0,0-0.149,0.99,1.066,0.662c0,0-0.316,1.675,1.465,1.377c0,0,0.346,1.418,2.146,1.171c0,0,1.089,0.907,3.122,0.593
		c0,0,6.3,2.262,14.731-1.764c0,0,12.591,2.013,13.44-0.942c0,0,2.225,0.179,2.724-1.249c0,0,2.05,0.783,1.852-0.541
		c0,0,1.123-0.227,0.574-0.889c0,0,1.149-0.768-0.126-0.945c0,0,0.975-0.525-0.398-0.807l-0.676-0.443"/>
	<path fill="#FFFFFF" stroke="#E76C68" stroke-miterlimit="10" d="M560.642,317.574c0,0-2.833,2.066,1.216,3.351
		c0,0,4.333,1.852,13.099-0.139"/>
	<path fill="#FFFFFF" stroke="#E76C68" stroke-miterlimit="10" d="M595.736,313.916c0,0,2.734,2.128-1.016,3.388
		c0,0-4.533,1.813-13.299-0.177"/>
	<polyline fill="#FFFFFF" stroke="#E76C68" stroke-miterlimit="10" points="559.458,317.039 559.058,317.447 575.756,321.193 
		582.53,326.669 590.33,320.25 592.68,316.225 	"/>
	<polyline fill="#FFFFFF" stroke="#E76C68" stroke-miterlimit="10" points="575.756,321.193 584.13,328.707 590.33,320.25 	"/>
	<path fill="#FFFFFF" stroke="#E76C68" stroke-miterlimit="10" d="M554.718,327.646"/>
	<path fill="#FFFFFF" stroke="#E76C68" stroke-width="1.5" stroke-miterlimit="10" d="M554.982,310.877v3.136
		c0,0-1.031,4.257,20.498,4.466c0,0,15.502,0.086,20.502-4.051v-3.551c0,0-6.701,3.967-20.502,3.967
		C575.48,314.844,558.982,314.511,554.982,310.877z"/>
	<path fill="#FFFFFF" stroke="#E76C68" stroke-miterlimit="10" d="M595.982,310.402v0.69c0,0-5.932,4.319-20.662,4.319
		c0,0-14.63,0.734-20.828-4.001l0.166-1.009H595.982z"/>
	<path fill="#FFFFFF" stroke="#E76C68" stroke-miterlimit="10" d="M595.745,310.641c0,0-3.01-0.281-4.118,1.46
		c-0.952,0.88-1.693,2.175-6.342,0.384c0,0-2.367-0.717-4.766,1.42c0,0-1.702,1.971-3.939,0.437c0,0-1.938-1.54-3.357-0.288
		c0,0-2.865,1.489-5.478-0.558c0,0-1.778-1.743-3.446-0.386c0,0-2.39,2.393-4.692-0.355c0,0-1.563-2.082-4.219-2.168
		c0,0-3.931,0.695-2.677-3.721l45.523-0.916C598.234,305.949,600.83,309.9,595.745,310.641"/>
	<path fill="#FFFFFF" stroke="#E76C68" stroke-miterlimit="10" d="M594.783,303.834c0,0,2.206,0.261,3.24,1.668
		c0,0,2.068,2.811-2.135,2.691c0,0-3.263-0.48-4.371,1.26c0,0-1.693,2.379-5.277,0.974c0,0-3.177-1.108-5.576,1.029
		c0,0-1.702,1.971-3.939,0.437c0,0-1.938-1.541-3.357-0.289c0,0-2.864,1.489-5.477-0.557c0,0-1.78-1.744-3.447-0.385
		c0,0-2.253,1.98-4.502-0.062c0,0-1.678-2.186-4.39-1.645c0,0-3.246,0.402-2.969-1.559c0,0,0.192-1.571,1.993-1.607"/>
	<path fill="#FFFFFF" stroke="#E76C68" stroke-miterlimit="10" d="M585.686,302.964l9.324-3.219c0,0,1.985-0.571,2.013,0.584
		c0,0,1.381,0.557-0.201,1.336c0,0,0.611,0.501-0.042,1.022c0,0,0.229,1.221-0.977,0.939c0,0,1.253,1.521-0.97,1.295
		c0,0,0.174,0.986-1.051,0.684c0,0,0.357,1.667-1.431,1.405c0,0-0.312,1.425-2.116,1.214c0,0-1.066,0.929-3.107,0.654
		c0,0-6.243,2.389-14.771-1.466c0,0-12.539,2.265-13.46-0.673c0,0-2.22,0.223-2.754-1.193c0,0-2.03,0.824-1.862-0.504
		c0,0-1.13-0.203-0.597-0.877c0,0-1.167-0.744,0.103-0.947c0,0-0.986-0.506,0.381-0.814l0.664-0.457"/>
	<path fill="#FFFFFF" stroke="#E76C68" stroke-miterlimit="10" d="M590.188,303.391c0,0,2.882,2.01-1.136,3.374
		c0,0-4.287,1.938-13.099,0.125"/>
	<path fill="#FFFFFF" stroke="#E76C68" stroke-miterlimit="10" d="M555.015,300.438c0,0-2.683,2.183,1.097,3.367
		c0,0,4.575,1.722,13.291-0.444"/>
	<polyline fill="#FFFFFF" stroke="#E76C68" stroke-miterlimit="10" points="591.358,302.832 591.769,303.232 575.164,307.313 
		568.523,312.924 560.571,306.662 558.127,302.686 	"/>
	<polyline fill="#FFFFFF" stroke="#E76C68" stroke-miterlimit="10" points="575.164,307.313 566.973,314.993 560.571,306.662 	"/>
	<path fill="#FFFFFF" stroke="#E76C68" stroke-width="1.5" stroke-miterlimit="10" d="M554.434,301.782
		c0,0-0.557-16.722,21.016-16.708c0,0,19.821-1.551,21.573,16.255C597.022,301.329,576.393,307.515,554.434,301.782z"/>
	<path fill="#FFFFFF" stroke="#E76C68" stroke-miterlimit="10" d="M562.809,298.719c0,0-1.393-2.424,0.325-3.164
		C563.134,295.555,564.656,295.246,562.809,298.719z"/>
	<path fill="#FFFFFF" stroke="#E76C68" stroke-miterlimit="10" d="M570.563,292.005c0,0-1-1.995,0.409-2.521
		C570.973,289.484,572.206,289.297,570.563,292.005z"/>
	<path fill="#FFFFFF" stroke="#E76C68" stroke-miterlimit="10" d="M581.362,294.2c0,0-1-1.995,0.41-2.521
		C581.772,291.68,583.004,291.492,581.362,294.2z"/>
	<path fill="#FFFFFF" stroke="#E76C68" stroke-miterlimit="10" d="M574.963,298.225c0,0-1-1.994,0.409-2.52
		C575.372,295.705,576.605,295.518,574.963,298.225z"/>
	<path fill="#FFFFFF" stroke="#E76C68" stroke-miterlimit="10" d="M588.217,298.917c0,0-1.622-1.616-0.457-2.513
		C587.76,296.404,588.869,295.879,588.217,298.917z"/>
	<path fill="#FFFFFF" stroke="#E76C68" stroke-width="1.4781" stroke-miterlimit="10" d="M558.998,296.98l-3.882,33.318
		c0,0-7.47,3.004-14.365,0l-4.081-33.332"/>
	<ellipse fill="#FFFFFF" stroke="#E76C68" stroke-miterlimit="10" cx="547.8" cy="297.008" rx="11.305" ry="1.777"/>
	<path fill="#FFFFFF" stroke="#E76C68" stroke-miterlimit="10" d="M538.35,310.639c0,0,5.407,10.102,17.15,9.326l0.7-4.461
		c0,0-9.763,1.146-18.601-9.878L538.35,310.639z"/>
	<polyline fill="none" stroke="#E76C68" stroke-width="1.8037" stroke-miterlimit="10" points="547.646,298.601 547.965,286.367 
		537.643,282.011 	"/>
</g>
</svg>
