<?xml version="1.0" encoding="utf-8"?>
<!-- Generator: Adobe Illustrator 16.0.0, SVG Export Plug-In . SVG Version: 6.00 Build 0)  -->
<!DOCTYPE svg PUBLIC "-//W3C//DTD SVG 1.1//EN" "http://www.w3.org/Graphics/SVG/1.1/DTD/svg11.dtd">
<svg version="1.1" id="Layer_1" xmlns="http://www.w3.org/2000/svg" xmlns:xlink="http://www.w3.org/1999/xlink" x="0px" y="0px"
	 width="740px" height="360px" viewBox="0 0 740 360" enable-background="new 0 0 740 360" xml:space="preserve">
<g>
	<path fill="#EEA831" stroke="#FFFFFF" stroke-width="4" stroke-miterlimit="10" d="M417.808,78.296
		C396.045,202.935,413.027,331,413.027,331H204.92c0,0,10.727-153.783-14.235-250.755c0,0,91.096-9.596,138.394-43.228
		c0,0,30.135,32.115,85.804,39.236L417.808,78.296z"/>
	<path fill="#EEA831" stroke="#FFFFFF" stroke-width="2.1802" stroke-miterlimit="10" d="M239.484,72.187
		c0,0-10.88-17.412-17.704-35.686c0,0-4.386-6.145,12.997-6.451c0,0,14.619,0.153,16.894-8.906c0,0,1.947-5.682,5.849,5.527
		c0,0,6.821,16.894,9.419,38.386"/>
	<polygon fill="#EEA831" stroke="#FFFFFF" stroke-width="4.3604" stroke-miterlimit="10" points="347.49,209.404 350.002,286.957 
		387.672,284.978 377.21,210.986 	"/>
	<polygon fill="#EEA831" stroke="#FFFFFF" stroke-width="4" stroke-miterlimit="10" points="237.779,225.344 230.872,304 
		263.934,304 268.121,223.521 	"/>
	<polygon fill="#EEA831" stroke="#FFFFFF" stroke-width="4.3604" stroke-miterlimit="10" points="226.686,157.56 238.172,199.906 
		260.631,197.145 266.117,149.734 	"/>
	<polygon fill="#EEA831" stroke="#FFFFFF" stroke-width="4.3604" stroke-miterlimit="10" points="294.627,168.596 332.754,168.244 
		323.755,206.736 286.887,207.126 	"/>
	<polygon fill="#EEA831" stroke="#FFFFFF" stroke-width="4.3604" stroke-miterlimit="10" points="354.789,150.106 344.858,193.137 
		386.6,195.856 385.777,151.456 	"/>
	<path fill="#EEA831" stroke="#FFFFFF" stroke-width="4" stroke-miterlimit="10" d="M276.756,140h80.362
		c0,0,5.438-65.21-35.992-67.859C321.126,72.141,274.301,63,276.756,140z"/>
	<polygon fill="#EEA831" stroke="#FFFFFF" stroke-width="4" stroke-miterlimit="10" points="287.09,235 284.116,313 333.258,313 
		332.648,235 	"/>
	<ellipse fill="#FFFFFF" cx="321.332" cy="272.666" rx="4.555" ry="4.303"/>
	
		<line fill="#EEA831" stroke="#FFFFFF" stroke-width="2.1802" stroke-miterlimit="10" x1="246.59" y1="154.107" x2="248.061" y2="198.692"/>
	
		<line fill="#EEA831" stroke="#FFFFFF" stroke-width="2.1802" stroke-miterlimit="10" x1="232.901" y1="179.281" x2="263.428" y2="172.98"/>
	
		<line fill="#EEA831" stroke="#FFFFFF" stroke-width="2.1802" stroke-miterlimit="10" x1="290.792" y1="187.684" x2="328.08" y2="187.055"/>
	
		<line fill="#EEA831" stroke="#FFFFFF" stroke-width="2.1802" stroke-miterlimit="10" x1="314.424" y1="168.413" x2="305.503" y2="206.941"/>
	
		<line fill="#EEA831" stroke="#FFFFFF" stroke-width="2.1802" stroke-miterlimit="10" x1="370.002" y1="150.769" x2="365.729" y2="194.467"/>
	
		<line fill="#EEA831" stroke="#FFFFFF" stroke-width="2.1802" stroke-miterlimit="10" x1="349.711" y1="170.921" x2="386.176" y2="172.98"/>
	
		<line fill="#EEA831" stroke="#FFFFFF" stroke-width="2.1802" stroke-miterlimit="10" x1="235.262" y1="251.164" x2="266.117" y2="249.367"/>
	
		<line fill="#EEA831" stroke="#FFFFFF" stroke-width="2.1802" stroke-miterlimit="10" x1="250.688" y1="250.266" x2="246.59" y2="301.596"/>
	
		<line fill="#EEA831" stroke="#FFFFFF" stroke-width="2.1802" stroke-miterlimit="10" x1="232.901" y1="277.636" x2="265.28" y2="275.932"/>
	<line fill="#EEA831" stroke="#FFFFFF" stroke-width="3" stroke-miterlimit="10" x1="348" y1="240.5" x2="381" y2="240.5"/>
	
		<line fill="#EEA831" stroke="#FFFFFF" stroke-width="2.0826" stroke-miterlimit="10" x1="364.022" y1="239.834" x2="370.002" y2="285.274"/>
	
		<line fill="#EEA831" stroke="#FFFFFF" stroke-width="2.1802" stroke-miterlimit="10" x1="349.186" y1="261.658" x2="383.266" y2="253.807"/>
	<polygon fill="#EEA831" stroke="#FFFFFF" stroke-width="3" stroke-miterlimit="10" points="278.01,321.5 280.205,313.5 
		338.279,313.5 339.85,321.5 	"/>
	<polyline fill="#EEA831" stroke="#FFFFFF" stroke-width="2.1802" stroke-miterlimit="10" points="268.591,328.512 270.475,321.389 
		347.49,320.201 349.269,328.512 	"/>
	<line fill="#EEA831" stroke="#FFFFFF" stroke-width="3" stroke-miterlimit="10" x1="279" y1="112.5" x2="355" y2="112.5"/>
	<line fill="#EEA831" stroke="#FFFFFF" stroke-width="3" stroke-miterlimit="10" x1="316.5" y1="140" x2="316.5" y2="73"/>
	<path fill="none" stroke="#EFA931" stroke-width="13.4295" stroke-miterlimit="10" d="M165,78.433
		c0,0,107.673-4.748,164.492-46.294c0,0,34.156,36.797,104.642,42.731"/>
	<path fill="none" stroke="#FFFFFF" stroke-width="6.5405" stroke-miterlimit="10" d="M167.513,78.433
		c0,0,105.896-4.748,161.565-46.294c0,0,33.066,36.797,102.125,42.731"/>
</g>
<g>
	<g>
		<path fill="#809720" stroke="#FFFFFF" stroke-width="3.2666" stroke-miterlimit="10" d="M441.229,310.272l17.966-127.89
			l3.773,1.635v146.199h-24.5L441.229,310.272z"/>
	</g>
	
		<line fill="#FFFFFF" stroke="#809720" stroke-width="3.2666" stroke-linecap="round" stroke-miterlimit="10" x1="464.65" y1="151.738" x2="464.771" y2="143.578"/>
	<path fill="#809720" stroke="#FFFFFF" stroke-width="3" stroke-miterlimit="10" d="M527.793,223.913c0,0-75.498,0-140.189-10.879
		c0,0,11.498-67.172,80.103-62.354C467.706,150.68,524.326,159.679,527.793,223.913z"/>
	<path fill="#809720" stroke="#FFFFFF" stroke-width="2" stroke-miterlimit="10" d="M484.659,222.605
		c0,0,4.092-42.497-20.284-72.271c0,0-28.929,16.629-35.245,68.365C429.13,218.699,454.585,221.134,484.659,222.605z"/>
	<path fill="#809720" stroke="#FFFFFF" stroke-width="1.1193" stroke-miterlimit="10" d="M524.839,272.168
		c0,0,1.165-6.105-1.237-10.322c0,0-0.826-1.256-5.09-1.655c0,0-3.789-0.087-4.983,1.584c0,0-2.043,5.673,0.931,11.915"/>
	<path fill="#809720" stroke="#FFFFFF" stroke-width="2" stroke-miterlimit="10" d="M464.952,290.391c0,0-4.446-11.35-10.781-13.684
		c0,0,7.03,9.327,6.366,21.499c0,0-0.644,19.995,2.025,31.995h9.838l-1.896-2.443c0,0-2.217-1.111-0.552-13.67
		c0,0,15.005-1.944,27.337,2.391c0,0,1.712,2.441,1.989,11.554l-2.05,2.446h7.891l0.33-13.836c0,0,1.612-1.89,4.45,0l0.495,13.836
		h8.278l-2.055-2.333c0,0-0.666-4.113,1.502-13.504c0,0,2.442-12.058,2.221-16.282c0,0,18.067-7.387,19.619-20.498
		c0,0,5.223-8.447-16.225-8.559c0,0-18.607-0.234-26.386,1.434c0,0-3.949-7.628-8.951-8.962c0,0,0.669,2.972,2.78,12.197
		c0,0,2.469,10.056-0.13,15.472C491.05,289.443,475.732,287.751,464.952,290.391z"/>
	<path fill="#809720" stroke="#FFFFFF" stroke-width="1.0074" stroke-miterlimit="10" d="M521.824,300.261l-6.084,2.694v4.578
		l-1.295-0.376l-0.209-4.12c0,0-16.052-5.853-23.187-13.594c0,0-1.348-1.186,0.707-1.615c0,0,15.228,11.119,23.062,12.996
		c0,0,5.522-2.465,8.034-3.65C522.854,297.174,523.404,299.266,521.824,300.261z"/>
	<path fill="#809720" stroke="#FFFFFF" stroke-width="1.1193" stroke-miterlimit="10" d="M511.107,309.588
		c0,2.054,1.672,3.721,3.729,3.721c2.055,0,3.72-1.667,3.72-3.721c0-2.056-1.665-3.722-3.72-3.722
		C512.779,305.866,511.107,307.532,511.107,309.588z"/>
	<path fill="#809720" stroke="#FFFFFF" stroke-width="1.679" stroke-miterlimit="10" d="M540.525,272.194
		c0,0,2.408,6.276-6.117,6.501c0,0-3.56,0.137-2.363-4.085c0,0,0.902-3.126,2.789-4.065
		C534.834,270.545,539.135,268.609,540.525,272.194z"/>
	<path fill="#809720" stroke="#FFFFFF" stroke-width="1.679" stroke-miterlimit="10" d="M506.658,263.52
		c0,0-6.118,0.692-6.118,5.684c0,0,0,12.942,6.597,14.659c0,0,5.331,1.812,7.812-7.093c0,0,1.33-6.422-0.908-11.508
		C514.041,265.262,513.003,262.732,506.658,263.52z"/>
</g>
<g>
	<path fill="#4B3A22" stroke="#FFFFFF" stroke-width="2" stroke-miterlimit="10" d="M40.099,328h179.09
		c0,0-0.189-24.44-11.189-34.188v-23.641l-11.042-23.29l-67.625-4.81c0,0-22.269,8.561-36.673,37.412c0,0-52.3,2.699-52.3,30.798
		L40.099,328z"/>
	
		<line fill="#4B3A22" stroke="#FFFFFF" stroke-width="1.7959" stroke-miterlimit="10" x1="93.466" y1="279.483" x2="93.466" y2="321.503"/>
	
		<line fill="#4B3A22" stroke="#FFFFFF" stroke-width="1.7959" stroke-miterlimit="10" x1="145.923" y1="272.918" x2="145.923" y2="324.623"/>
	<path fill="#4B3A22" stroke="#FFFFFF" stroke-width="1.7959" stroke-miterlimit="10" d="M166.425,324.889
		c0,0,0-20.77,19.296-22.996v-32.541"/>
	<path fill="#4B3A22" stroke="#FFFFFF" stroke-width="2" stroke-miterlimit="10" d="M220.328,320.483
		C225.134,325.836,221,328,221,328H36.484l2.26-6.402L220.328,320.483z"/>
	<path fill="#4B3A22" stroke="#FFFFFF" stroke-width="1.7959" stroke-miterlimit="10" d="M98.503,324.591
		c0,10.159-8.355,18.396-18.661,18.396c-10.312,0-18.664-8.236-18.664-18.396s8.352-18.394,18.664-18.394
		C90.148,306.197,98.503,314.432,98.503,324.591z"/>
	<path fill="#4B3A22" stroke="#FFFFFF" stroke-width="1.7959" stroke-miterlimit="10" d="M87.649,324.591
		c0,4.332-3.561,7.848-7.958,7.848c-4.395,0-7.958-3.516-7.958-7.848c0-4.329,3.563-7.842,7.958-7.842
		C84.089,316.749,87.649,320.262,87.649,324.591z"/>
	<path fill="#4B3A22" stroke="#FFFFFF" stroke-width="1.7959" stroke-miterlimit="10" d="M174.579,314.517
		c5.646-8.501,17.216-10.877,25.836-5.309c8.623,5.564,11.03,16.965,5.386,25.466c-5.648,8.496-17.217,10.874-25.841,5.307
		C171.341,334.413,168.93,323.011,174.579,314.517z"/>
	<path fill="#4B3A22" stroke="#FFFFFF" stroke-width="1.7959" stroke-miterlimit="10" d="M184.02,320.296
		c2.41-3.625,7.339-4.638,11.017-2.265c3.677,2.375,4.704,7.238,2.296,10.859c-2.41,3.625-7.342,4.641-11.018,2.265
		C182.639,328.78,181.611,323.92,184.02,320.296z"/>
	<path fill="#4B3A22" stroke="#FFFFFF" stroke-width="1.7959" stroke-miterlimit="10" d="M105.226,277.969
		c0,0,5.876-15.749,26.751-27.337l45.604,1.781c0,0,3.923,7.274,7.542,16.346C185.124,268.759,144.957,272.337,105.226,277.969z"/>
</g>
<g>
	<path fill="#E76C68" stroke="#FFFFFF" stroke-miterlimit="10" d="M554.982,324.863v3.454c0,0-1.031,4.689,20.498,4.918
		c0,0,15.502,0.097,20.502-4.46v-3.912c0,0-6.701,4.369-20.502,4.369C575.48,329.232,558.982,328.866,554.982,324.863z"/>
	<path fill="#E76C68" stroke="#FFFFFF" stroke-miterlimit="10" d="M595.982,323.402v1.296c0,0-5.932,4.757-20.662,4.757
		c0,0-14.63,0.541-20.828-4.674l0.166-1.379H595.982z"/>
	<path fill="#E76C68" stroke="#FFFFFF" stroke-miterlimit="10" d="M555.262,324.988c0,0,3-0.369,4.15,1.35
		c0.975,0.861,1.746,2.127,6.349,0.242c0,0,2.351-0.771,4.801,1.318c0,0,1.749,1.934,3.948,0.354c0,0,1.9-1.581,3.351-0.359
		c0,0,2.899,1.433,5.463-0.666c0,0,1.736-1.78,3.436-0.455c0,0,2.445,2.344,4.683-0.451c0,0,1.513-2.059,4.166-2.197
		c0,0,3.945,0.279,2.587-3.721h-45.535C552.659,320.402,550.159,324.351,555.262,324.988"/>
	<path fill="#E76C68" stroke="#FFFFFF" stroke-width="0.5" stroke-miterlimit="10" d="M556.059,318.109c0,0-2.2,0.306-3.199,1.732
		c0,0-2,2.854,2.198,2.648c0,0,3.251-0.547,4.4,1.173c0,0,1.751,2.343,5.3,0.866c0,0,3.15-1.172,5.6,0.917
		c0,0,1.75,1.937,3.949,0.356c0,0,1.899-1.58,3.351-0.356c0,0,2.897,1.433,5.462-0.667c0,0,1.736-1.779,3.436-0.454
		c0,0,2.301,1.937,4.5-0.152c0,0,1.625-2.22,4.35-1.733c0,0,3.254,0.339,2.931-1.617c0,0-0.23-1.566-2.031-1.566"/>
	<path fill="#E76C68" stroke="#FFFFFF" stroke-width="0.5" stroke-miterlimit="10" d="M565.158,318.057l-9.399-3.03
		c0,0-1.999-0.53-1.999,0.624c0,0-1.367,0.584,0.232,1.332c0,0-0.6,0.512,0.066,1.021c0,0-0.2,1.225,1.001,0.919
		c0,0-1.217,1.546,0.999,1.274c0,0-0.149,0.99,1.066,0.662c0,0-0.316,1.675,1.465,1.377c0,0,0.346,1.418,2.146,1.171
		c0,0,1.089,0.907,3.122,0.593c0,0,6.3,2.262,14.731-1.764c0,0,12.591,2.013,13.44-0.942c0,0,2.225,0.179,2.724-1.249
		c0,0,2.05,0.783,1.852-0.541c0,0,1.123-0.227,0.574-0.889c0,0,1.149-0.768-0.126-0.945c0,0,0.975-0.525-0.398-0.807l-0.676-0.443"
		/>
	<path fill="#E76C68" stroke="#FFFFFF" stroke-width="0.5" stroke-miterlimit="10" d="M576.701,321.354
		c0,0-12.171,3.885-16.868,0.094l-0.14-2.139l12.03-0.18L576.701,321.354z"/>
	<path fill="#E76C68" stroke="#FFFFFF" stroke-width="0.5" stroke-miterlimit="10" d="M560.642,317.574c0,0-2.833,2.066,1.216,3.351
		c0,0,4.333,1.852,13.099-0.139"/>
	<path fill="#E76C68" stroke="#FFFFFF" stroke-width="0.5" stroke-miterlimit="10" d="M579.677,317.329
		c0,0,12.129,4.05,16.827,0.257l0.18-1.937l-12.029-0.546L579.677,317.329z"/>
	<path fill="#E76C68" stroke="#FFFFFF" stroke-width="0.5" stroke-miterlimit="10" d="M595.736,313.916c0,0,2.734,2.128-1.016,3.388
		c0,0-4.533,1.813-13.299-0.177"/>
	<polyline fill="#E76C68" stroke="#FFFFFF" stroke-width="0.5" stroke-miterlimit="10" points="559.458,317.039 559.058,317.447 
		575.756,321.193 582.53,326.669 590.33,320.25 592.68,316.225 	"/>
	<polyline fill="#E76C68" stroke="#FFFFFF" stroke-width="0.5" stroke-miterlimit="10" points="575.756,321.193 584.13,328.707 
		590.33,320.25 	"/>
	<path fill="#E76C68" stroke="#FFFFFF" stroke-width="0.3659" stroke-miterlimit="10" d="M554.718,327.646"/>
	<path fill="#E76C68" stroke="#FFFFFF" stroke-miterlimit="10" d="M554.982,310.877v3.136c0,0-1.031,4.257,20.498,4.466
		c0,0,15.502,0.086,20.502-4.051v-3.551c0,0-6.701,3.967-20.502,3.967C575.48,314.844,558.982,314.511,554.982,310.877z"/>
	<path fill="#E76C68" stroke="#FFFFFF" stroke-miterlimit="10" d="M595.982,310.402v0.69c0,0-5.932,4.319-20.662,4.319
		c0,0-14.63,0.734-20.828-4.001l0.166-1.009H595.982z"/>
	<path fill="#E76C68" stroke="#FFFFFF" stroke-width="0.5" stroke-miterlimit="10" d="M595.745,310.641c0,0-3.01-0.281-4.118,1.46
		c-0.952,0.88-1.693,2.175-6.342,0.384c0,0-2.367-0.717-4.766,1.42c0,0-1.702,1.971-3.939,0.437c0,0-1.938-1.54-3.357-0.288
		c0,0-2.865,1.489-5.478-0.558c0,0-1.778-1.743-3.446-0.386c0,0-2.39,2.393-4.692-0.355c0,0-1.563-2.082-4.219-2.168
		c0,0-3.931,0.695-2.677-3.721l45.523-0.916C598.234,305.949,600.83,309.9,595.745,310.641"/>
	<path fill="#E76C68" stroke="#FFFFFF" stroke-width="0.5" stroke-miterlimit="10" d="M594.783,303.834c0,0,2.206,0.261,3.24,1.668
		c0,0,2.068,2.811-2.135,2.691c0,0-3.263-0.48-4.371,1.26c0,0-1.693,2.379-5.277,0.974c0,0-3.177-1.108-5.576,1.029
		c0,0-1.702,1.971-3.939,0.437c0,0-1.938-1.541-3.357-0.289c0,0-2.864,1.489-5.477-0.557c0,0-1.78-1.744-3.447-0.385
		c0,0-2.253,1.98-4.502-0.062c0,0-1.678-2.186-4.39-1.645c0,0-3.246,0.402-2.969-1.559c0,0,0.192-1.571,1.993-1.607"/>
	<path fill="#E76C68" stroke="#FFFFFF" stroke-width="0.5" stroke-miterlimit="10" d="M585.686,303.964l9.324-3.219
		c0,0,1.985-0.571,2.013,0.584c0,0,1.381,0.557-0.201,1.336c0,0,0.611,0.501-0.042,1.022c0,0,0.229,1.221-0.977,0.939
		c0,0,1.253,1.521-0.97,1.295c0,0,0.174,0.986-1.051,0.684c0,0,0.357,1.667-1.431,1.405c0,0-0.312,1.425-2.116,1.214
		c0,0-1.066,0.929-3.107,0.654c0,0-6.243,2.389-14.771-1.466c0,0-12.539,2.265-13.46-0.673c0,0-2.22,0.223-2.754-1.193
		c0,0-2.03,0.824-1.862-0.504c0,0-1.13-0.203-0.597-0.877c0,0-1.167-0.744,0.103-0.947c0,0-0.986-0.506,0.381-0.814l0.664-0.457"/>
	<path fill="#E76C68" stroke="#FFFFFF" stroke-width="0.5" stroke-miterlimit="10" d="M574.224,307.492
		c0,0,12.261,3.64,16.866-0.246l0.088-2.141l-12.031,0.062L574.224,307.492z"/>
	<path fill="#E76C68" stroke="#FFFFFF" stroke-width="0.5" stroke-miterlimit="10" d="M590.188,303.391c0,0,2.882,2.01-1.136,3.374
		c0,0-4.287,1.938-13.099,0.125"/>
	<path fill="#E76C68" stroke="#FFFFFF" stroke-width="0.5" stroke-miterlimit="10" d="M571.151,303.528
		c0,0-12.028,4.292-16.816,0.595l-0.228-1.932l12.014-0.788L571.151,303.528z"/>
	<path fill="#E76C68" stroke="#FFFFFF" stroke-width="0.5" stroke-miterlimit="10" d="M555.015,300.438c0,0-2.683,2.183,1.097,3.367
		c0,0,4.575,1.722,13.291-0.444"/>
	<polyline fill="#E76C68" stroke="#FFFFFF" stroke-width="0.5" stroke-miterlimit="10" points="591.358,302.832 591.769,303.232 
		575.164,307.313 568.523,312.924 560.571,306.662 558.127,302.686 	"/>
	<polyline fill="#E76C68" stroke="#FFFFFF" stroke-width="0.5" stroke-miterlimit="10" points="575.164,307.313 566.973,314.993 
		560.571,306.662 	"/>
	<path fill="#E76C68" stroke="#FFFFFF" stroke-miterlimit="10" d="M554.434,301.782c0,0-0.557-16.722,21.016-16.708
		c0,0,19.821-1.551,21.573,16.255C597.022,301.329,576.393,307.515,554.434,301.782z"/>
	<path fill="#E76C68" stroke="#FFFFFF" stroke-width="0.5" stroke-miterlimit="10" d="M562.809,298.719c0,0-1.393-2.424,0.325-3.164
		C563.134,295.555,564.656,295.246,562.809,298.719z"/>
	<path fill="#E76C68" stroke="#FFFFFF" stroke-width="0.5" stroke-miterlimit="10" d="M570.563,292.005c0,0-1-1.995,0.409-2.521
		C570.973,289.484,572.206,289.297,570.563,292.005z"/>
	<path fill="#E76C68" stroke="#FFFFFF" stroke-width="0.5" stroke-miterlimit="10" d="M581.362,294.2c0,0-1-1.995,0.41-2.521
		C581.772,291.68,583.004,291.492,581.362,294.2z"/>
	<path fill="#E76C68" stroke="#FFFFFF" stroke-width="0.5" stroke-miterlimit="10" d="M574.963,298.225c0,0-1-1.994,0.409-2.52
		C575.372,295.705,576.605,295.518,574.963,298.225z"/>
	<path fill="#E76C68" stroke="#FFFFFF" stroke-width="0.5" stroke-miterlimit="10" d="M588.217,298.917c0,0-1.622-1.616-0.457-2.513
		C587.76,296.404,588.869,295.879,588.217,298.917z"/>
</g>
<g>
	<path fill="#259DC4" stroke="#FFFFFF" stroke-width="0.7901" stroke-miterlimit="10" d="M640.117,337.816c0,0,3.381,0.669,8.324,0
		c0.626-0.084,1.869-0.178,4.16,0.154c0,0,4.838,0.771,6.915-0.628c0,0,0.741-1.998-0.8-4.663
		C658.717,332.68,640.7,335.348,640.117,337.816z"/>
	<path fill="#259DC4" stroke="#FFFFFF" stroke-width="0.7901" stroke-miterlimit="10" d="M677.5,300.148
		c0,0-15.07-8.771-36.738-12.548c0,0-7.791-1.498-9.789,2.611c0,0-2.341,3.529,1.027,9.714l12.616,19.763l10.79-4.273
		c0,0-2.014-6.351-5.482-11.903c0,0-1.369-1.837,0.288-0.505c0,0,9.112,7.683,16.041,8.134L677.5,300.148z"/>
	<path fill="#259DC4" stroke="#FFFFFF" stroke-width="0.7901" stroke-miterlimit="10" d="M670.135,305.089
		c0,0-5.396-1.581-13.788-6.286c0,0-8.134-4.457-15.242-4.206c0,0-1.483,0.027-0.285,0.915c0,0,0.656,0.222,0.515,0.972
		c0,0-0.229,0.444,0.655,0.499c0,0,0.314-0.166,0.514,1.555c0,0,0.172,1.943,1.6,3.942c0,0,2.481,3.138,5.451,11.936"/>
	<path fill="#259DC4" stroke="#FFFFFF" stroke-width="0.7901" stroke-miterlimit="10" d="M678.634,297.676
		c0,0-0.824-4.861,0.708-7.273l15.785-2.412c0,0,1.199,5.771,0.485,11.656C694.894,305.533,678.634,297.676,678.634,297.676z"/>
	<path fill="#259DC4" stroke="#FFFFFF" stroke-width="0.7901" stroke-miterlimit="10" d="M696.169,297.981
		c0,0-0.114,8.439-1.942,15.323c0,0-1.598,7.884-11.646,8.55c0,0-7.137-0.402-13.474,0.777c0,0-24.834,4.816-28.203,4.496
		l-0.799-0.166c0,0,1.257,0.333,2.285,0.443l-2.285,1.056c0,0,2.844-1.515,14.844-2.942c0,0,8.854-1.256,15.605-2.694
		c0,0,3.547-0.828,13.581-0.707l2.67,8.564c0,0-15.129-1.333-49.954,7.993c0,0-8.162,2.721-11.817-4.329
		c0,0-2.397-4.441,3.654-10.66c0,0,4.509-4.385,19.409-10.992c0,0,12.607-5.079,24.15-9.215c0,0,5.595-1.722,5.823-7.55
		c0,0,3.083-0.5,9.818,0.889c0,0,3.826,0.832,6.167,0.276C694.057,297.094,696.169,296.761,696.169,297.981z"/>
	<path fill="#259DC4" stroke="#FFFFFF" stroke-width="0.7901" stroke-miterlimit="10" d="M682.766,336.898
		c0,0-0.129-1.228,1.585-1.831c0,0,1.818-0.355,1.797-2.915c0,0,0.247-3.441-1.626-6.995c0,0-1.204-2.127-0.386-3.04
		c0,0,4.622-0.88,6.552-2.768c0,0,2.184,1.478,1.498,5.099c0,0-0.728,3.873-0.357,7.537c0,0,0.616,3.956-0.37,5.579
		c0,0-0.386,0.806-4.54,0.943C686.918,338.508,682.952,338.73,682.766,336.898z"/>
	<path fill="#259DC4" stroke="#FFFFFF" stroke-width="0.7901" stroke-miterlimit="10" d="M688.228,299.646
		c0,0,0.887,15.355-16.019,19.021c0,0-9.934,2.233-31.464,6.531c0,0-4.305,0.746-2.654,2.464c0,0,0.798,0.516,0.136,1.59
		c0,0-1.06,1.59,0.398,1.203c0,0,5.688-2.791,15.2-3.438c0,0,14.141-0.644,31.021-3.136"/>
	<path fill="#259DC4" stroke="#FFFFFF" stroke-width="0.7901" stroke-miterlimit="10" d="M687.55,308.919c0,0-2.1,3.373-2.086,5.435
		c0,0,0,4.684,1.454,5.433c0,0,1.158,0.999,4.497-2.748c0,0,2.399-2.331,2.783-6.744
		C694.198,310.294,690.302,310.918,687.55,308.919z"/>
	<path fill="#259DC4" stroke="#FFFFFF" stroke-width="0.7901" stroke-miterlimit="10" d="M681.352,297.09
		c-1.483-0.329-2.574-0.885-2.574-0.885c-1.588-0.766-1.871-0.171-1.871-0.171c-0.862,1.394-0.55,2.947-0.55,2.947
		s0.098,0.692,1.782,0.526c0,0,1.887-0.145,3.557,0.488c0,0,3.168,1.346,9.106,1.831c0,0,1.117,0.07,2.241,0.046
		c0,0,2.44-0.012,3.322,0.218c0,0,0.457-0.833,0.271-2.753c0,0-2.374-1.309-9.086-1.662
		C687.55,297.676,683.151,297.49,681.352,297.09z"/>
	<path fill="#259DC4" stroke="#FFFFFF" stroke-width="0.7901" stroke-miterlimit="10" d="M693.043,302.716c0,0,1.048-2.469,0-4.831
		c0,0,0.515-0.665,1.155,0.376c0,0,1.113,2.039,0.301,3.914C694.499,302.175,694.028,303.132,693.043,302.716z"/>
	<path fill="#259DC4" stroke="#FFFFFF" stroke-width="0.7901" stroke-miterlimit="10" d="M682.405,301.012
		c0,0-0.662-2.328,0.614-4.224c0,0-0.377-0.646-1.088,0.185c0,0-1.261,1.533-0.673,3.396
		C681.259,300.369,681.602,301.265,682.405,301.012z"/>
	<polygon fill="#259DC4" stroke="#FFFFFF" stroke-width="0.9335" stroke-miterlimit="10" points="637.956,228.33 628.917,226.086 
		626.758,234.41 635.933,236.787 	"/>
	<path fill="#259DC4" d="M642.019,214.635l6.552,2.598l-2.046,7.71H644.7l-0.101,0.332c0,0,1.343-0.007,2.303,1.887
		c0,0,0.48,1.35,2.175,1.546c0,0,0.81-0.062,0.608,0.922l-1.771,10.841c0,0-0.11,2.789-4.234,2.1c0,0-9.045-0.557-8.769-5.573
		c0,0,1.005-4.743,2.43-10.086c0,0,0.203-2.117,3.616-1.697c0,0,0.211-1.506,2.512-1.013l1.231-5.678c0,0-0.555-1.872-2.913-2.075
		L642.019,214.635z"/>
	<path fill="#259DC4" stroke="#FFFFFF" stroke-width="0.5644" stroke-miterlimit="10" d="M649.737,267.95l-0.67,0.832
		c0,0-3.825-8.495-3.995-20.598c0,0,0.057-6.272,1.37-9.548c0,0,1.983-4.122,0.963-7.551c0,0-0.376-1.786-1.12-3.483
		c0,0-1.519-0.583-0.813,1.706c0,0,0.686,1.105,0.43,2.188c0,0-0.193,0.271-0.579,0.416c0,0-1.049-0.166-2.527-1.687
		c0,0-1.541-1.353-2.611-0.645c0,0-1.52,1.311-2.098,3.102c0,0-0.286,1.031-0.6,1.666c0,0-0.814,1.436-0.3,2.519
		c0,0,1.114,1.519,3.555,2.831c0,0,1.263,0.556,1.308,1.993c0,0-3.199,19.373-0.629,29.081c0,0,2.083,7.613,5.766,7.863
		c0,0,2.552,0.639,8.392-5.47L649.737,267.95z"/>
	<path fill="#259DC4" stroke="#FFFFFF" stroke-width="0.7901" stroke-miterlimit="10" d="M649.917,266.913
		c-0.345,0.406-0.136,1.023,0.148,1.479c3.339,5.342,5.806,5.667,5.806,5.667c1.87-0.908,5.346-4.718,5.346-4.718
		c1.169,5.243,11.527,12.889,11.527,12.889c2.658,1.704,2.894,4.978,2.894,4.978c0.233,1.191,0.867,1.699,0.867,1.699
		c0.833,0.874,0.637,1.727,0.637,1.727c-0.13,1.076,0.352,1.706,0.352,1.706c0.438,0.678,0.423,1.368,0.423,1.368
		c0.67,0.03,1.402-0.379,1.402-0.379c1.692-1.082,3.593-0.73,3.593-0.73c4.852,0.434,7.772-1.761,7.772-1.761
		c2.851-1.653,5.174-0.812,5.174-0.812s0.352,0.124,0-2.159c0,0-2.281-20.808-13.676-35.242l-7.48-5.798
		c0,0-7.537-0.341-14.961,8.639C659.74,255.464,655.296,260.594,649.917,266.913z"/>
	<path fill="#259DC4" stroke="#FFFFFF" stroke-width="0.7901" stroke-miterlimit="10" d="M677.342,290.402
		c0,0,0.916-1.612,4.059-1.944c0,0,2.205-0.163,4.844-1.901c0,0,5.444-3.517,9.019-1.207"/>
	<path fill="#259DC4" stroke="#FFFFFF" stroke-width="0.7901" stroke-miterlimit="10" d="M675.689,285.771
		c0,0,2.128,0.414,4.892-2.151c0,0,7.085-6.747,13.731-2.631"/>
	<path fill="#259DC4" stroke="#FFFFFF" stroke-width="0.7901" stroke-miterlimit="10" d="M673.911,282.727
		c0,0,7.622-9.172,19.169-6.751"/>
	<path fill="#259DC4" stroke="#FFFFFF" stroke-width="0.7901" stroke-miterlimit="10" d="M670.404,279.916
		c0,0,2.809-6.381,8.688-6.877c0,0,4.276-0.124,7.555-1.82c0,0,2.488-1.24,4.791-0.229"/>
	<path fill="#259DC4" stroke="#FFFFFF" stroke-width="0.7901" stroke-miterlimit="10" d="M665.211,275.255
		c0,0,1.713,0.014,3.354-1.995c0,0,2.94-4.354,9.53-4.592c0,0,4.695-0.041,7.802-2.108c0,0,2.109-1.488,3.412-1.039"/>
	<path fill="#259DC4" stroke="#FFFFFF" stroke-width="0.7901" stroke-miterlimit="10" d="M662.054,270.502c0,0,2.33-3.8,7.987-3.8
		c0,0,4.466,0.278,8.082-2.538c0,0,4.778-4.085,8.69-3.854"/>
	<path fill="#259DC4" stroke="#FFFFFF" stroke-width="0.7901" stroke-miterlimit="10" d="M684.859,257.026
		c0,0-2.794-1.18-11.998,4.261c0,0-3.241,1.942-5.182,1.942c0,0-1.655-6.023-8.51-6.555"/>
	<path fill="#259DC4" stroke="#FFFFFF" stroke-width="0.7901" stroke-miterlimit="10" d="M682.54,253.638
		c0,0-2.697-0.999-5.28,0.554c0,0-1.161-4.913-7.601-5.896"/>
	<path fill="#259DC4" stroke="#FFFFFF" stroke-width="0.7901" stroke-miterlimit="10" d="M661.679,253.84
		c0,0,7.011-0.249,9.14,6.686"/>
	<path fill="#259DC4" stroke="#FFFFFF" stroke-width="0.7901" stroke-miterlimit="10" d="M664.885,251.014
		c0,0,7.006-0.712,9.549,6.604"/>
	<path fill="none" stroke="#FFFFFF" stroke-width="0.7901" stroke-miterlimit="10" d="M677.868,249.278c0,0,3.356,5.26-9.617,13.599
		c0,0-4.409,3.501-7.034,6.464"/>
	<path fill="#259DC4" stroke="#FFFFFF" stroke-width="0.7901" stroke-miterlimit="10" d="M656.518,259.753
		c0,0,5.295-0.249,7.74,6.002"/>
	<path fill="#259DC4" stroke="#FFFFFF" stroke-width="0.7901" stroke-miterlimit="10" d="M653.908,262.794
		c0,0,5.262,0.616,7.054,6.819"/>
	<path fill="#259DC4" stroke="#FFFFFF" stroke-width="0.7901" stroke-miterlimit="10" d="M658.283,271.82
		c0,0-1.91,0.107-2.842-2.536c0,0-1.157-3.541-4.323-3.278"/>
	<path fill="#259DC4" stroke="#FFFFFF" stroke-width="0.9335" stroke-miterlimit="10" d="M629.12,225.849
		c0,0-0.271,4.429-2.295,8.432h-3.069c0,0,2.087-4.133,2.706-9.894L629.12,225.849z"/>
	<path fill="#259DC4" stroke="#FFFFFF" stroke-width="0.7901" stroke-miterlimit="10" d="M672.133,246.648
		c-1.034-4.349-8.185-2.35-8.185-2.35c-4.646,0.938-6.509-0.166-6.509-0.166c-1.435-0.854-0.75-2.691-0.75-2.691
		c0.258-0.958,0.215-1.285,0.215-1.285c-0.021-0.979-0.558-1.446-0.558-1.446c-0.02-0.209,0.985-1.03,0.985-1.03
		c-0.92-0.459-1.392-1.208-1.392-1.208c0.813-0.604,0.834-1.124,0.834-1.124c0.216-0.584-0.941-0.957-0.941-0.957
		c-1.422-0.479-1.413-1-1.413-1c-0.215-0.875,3.641-2.955,3.641-2.955c1.412-1,1.281-2.623,1.281-2.623
		c0.085-3.582,1.459-5.581,1.459-5.581l19.355,4.581l0.427,18.985l-3.323,4.747L672.133,246.648z"/>
	<path fill="#259DC4" stroke="#FFFFFF" stroke-width="0.5644" stroke-miterlimit="10" d="M662.941,223.994
		c-0.741,1.985,0.592,4.521,0.592,4.521c-6.158-2.793-3.607-7.683-3.607-7.683c-4.177,0.984-2.872,5.844-2.872,5.844
		c-3.361-5.25,1.508-7.958,1.508-7.958s2.105-1.27,5.387-0.632c0,0,7.085-5.75,16.519-0.611c0,0,6.421,3.617,5.796,11.743
		c0,0-0.059,2.324-1.079,6.05c0,0-2.261,8.631,3.792,12.029c0,0-1.884,0.667-4.116-0.125c0,0,2.227,4.674,8.079,2.905
		c0,0-0.904,3.122-6.985,2.183c0,0,1.022,2.018,4.006,2.101c0,0-2.342,2.378-8.393-0.522c0,0-1.133-0.515-4.624-3.293
		c0,0-3.768-2.956-10.146-1.638c0,0,4.21-1.555,5.149-3.498c0,0-1.656,2.268-4.572,1.1c0,0,2.294-0.717,2.777-1.739
		c0,0-1.67,0.168-2.777-0.664c0,0,4.001-0.438,4.938-4.169c0,0-1.921,0.644-3.268-0.028c0,0,2.249-0.106,3.121-3.306
		c0,0-3.784-1.138-3.827-6.294c0,0-4.079-1.086-5.259-5.927L662.941,223.994z"/>
</g>
<path fill="#E76C68" stroke="#FFFFFF" stroke-width="0.5" stroke-miterlimit="10" d="M558.998,296.98L555,330.299
	c0,0-7.693,3.004-14.795,0l-4.203-33.332"/>
<ellipse fill="#FFFFFF" stroke="#E76C68" stroke-width="0.4783" stroke-miterlimit="10" cx="547.8" cy="297.008" rx="11.305" ry="1.777"/>
<path fill="#FFFFFF" d="M538.35,310.639c0,0,5.407,10.102,17.15,9.326l0.7-4.461c0,0-9.763,1.146-18.601-9.878L538.35,310.639z"/>
<polyline fill="none" stroke="#E76C68" stroke-width="1.8152" stroke-miterlimit="10" points="547.774,298.601 548.098,286.367 
	537.643,282.011 "/>
</svg>
