<?xml version="1.0" encoding="utf-8"?>
<!-- Generator: Adobe Illustrator 16.0.0, SVG Export Plug-In . SVG Version: 6.00 Build 0)  -->
<!DOCTYPE svg PUBLIC "-//W3C//DTD SVG 1.1//EN" "http://www.w3.org/Graphics/SVG/1.1/DTD/svg11.dtd">
<svg version="1.1" id="Layer_1" xmlns="http://www.w3.org/2000/svg" xmlns:xlink="http://www.w3.org/1999/xlink" x="0px" y="0px"
	 width="80px" height="80px" viewBox="330 140 80 80" enable-background="new 330 140 80 80" xml:space="preserve">
<g>
	<path fill="#E76C68" stroke="#FFFFFF" stroke-miterlimit="10" d="M356.982,197.863v3.454c0,0-1.031,4.688,20.498,4.918
		c0,0,15.502,0.097,20.502-4.46v-3.912c0,0-6.701,4.369-20.502,4.369C377.48,202.232,360.982,201.866,356.982,197.863z"/>
	<path fill="#E76C68" stroke="#FFFFFF" stroke-miterlimit="10" d="M397.982,196.402v1.296c0,0-5.933,4.757-20.662,4.757
		c0,0-14.63,0.541-20.828-4.674l0.166-1.379H397.982L397.982,196.402z"/>
	<path fill="#E76C68" stroke="#FFFFFF" stroke-miterlimit="10" d="M357.262,197.988c0,0,3-0.369,4.15,1.35
		c0.975,0.861,1.746,2.127,6.349,0.242c0,0,2.352-0.771,4.802,1.318c0,0,1.749,1.934,3.947,0.354c0,0,1.9-1.581,3.352-0.359
		c0,0,2.898,1.434,5.463-0.666c0,0,1.736-1.779,3.436-0.454c0,0,2.445,2.344,4.684-0.451c0,0,1.513-2.06,4.166-2.197
		c0,0,3.944,0.279,2.587-3.721h-45.535C354.659,193.402,352.159,197.351,357.262,197.988"/>
	<path fill="#E76C68" stroke="#FFFFFF" stroke-width="0.5" stroke-miterlimit="10" d="M358.059,191.109c0,0-2.199,0.306-3.198,1.731
		c0,0-2,2.854,2.197,2.648c0,0,3.251-0.547,4.4,1.173c0,0,1.751,2.343,5.3,0.866c0,0,3.15-1.172,5.601,0.917
		c0,0,1.75,1.937,3.948,0.355c0,0,1.899-1.58,3.352-0.355c0,0,2.896,1.433,5.462-0.667c0,0,1.736-1.779,3.436-0.454
		c0,0,2.302,1.937,4.5-0.152c0,0,1.625-2.22,4.351-1.732c0,0,3.254,0.339,2.931-1.617c0,0-0.229-1.566-2.031-1.566"/>
	<path fill="#E76C68" stroke="#FFFFFF" stroke-width="0.5" stroke-miterlimit="10" d="M367.158,191.057l-9.399-3.029
		c0,0-1.999-0.53-1.999,0.624c0,0-1.367,0.584,0.232,1.332c0,0-0.601,0.512,0.065,1.021c0,0-0.199,1.225,1.001,0.919
		c0,0-1.217,1.546,0.999,1.274c0,0-0.148,0.989,1.066,0.662c0,0-0.316,1.675,1.465,1.377c0,0,0.346,1.418,2.146,1.171
		c0,0,1.089,0.907,3.122,0.593c0,0,6.3,2.262,14.73-1.764c0,0,12.591,2.013,13.44-0.942c0,0,2.225,0.179,2.724-1.249
		c0,0,2.05,0.783,1.852-0.541c0,0,1.123-0.227,0.574-0.889c0,0,1.149-0.769-0.126-0.945c0,0,0.976-0.525-0.397-0.807l-0.677-0.443"
		/>
	<path fill="#E76C68" stroke="#FFFFFF" stroke-width="0.5" stroke-miterlimit="10" d="M378.701,194.354
		c0,0-12.171,3.886-16.868,0.095l-0.14-2.14l12.029-0.18L378.701,194.354z"/>
	<path fill="#E76C68" stroke="#FFFFFF" stroke-width="0.5" stroke-miterlimit="10" d="M362.642,190.574c0,0-2.833,2.065,1.217,3.351
		c0,0,4.333,1.853,13.099-0.139"/>
	<path fill="#E76C68" stroke="#FFFFFF" stroke-width="0.5" stroke-miterlimit="10" d="M381.677,190.329
		c0,0,12.129,4.05,16.827,0.257l0.18-1.937l-12.028-0.547L381.677,190.329z"/>
	<path fill="#E76C68" stroke="#FFFFFF" stroke-width="0.5" stroke-miterlimit="10" d="M397.736,186.916c0,0,2.733,2.128-1.017,3.388
		c0,0-4.532,1.813-13.299-0.177"/>
	<polyline fill="#E76C68" stroke="#FFFFFF" stroke-width="0.5" stroke-miterlimit="10" points="361.458,190.039 361.058,190.447 
		377.756,194.193 384.53,199.669 392.33,193.25 394.68,189.225 	"/>
	<polyline fill="#E76C68" stroke="#FFFFFF" stroke-width="0.5" stroke-miterlimit="10" points="377.756,194.193 386.13,201.707 
		392.33,193.25 	"/>
	<path fill="#E76C68" stroke="#FFFFFF" stroke-width="0.3659" stroke-miterlimit="10" d="M356.718,200.646"/>
	<path fill="#E76C68" stroke="#FFFFFF" stroke-miterlimit="10" d="M356.982,183.877v3.136c0,0-1.031,4.257,20.498,4.466
		c0,0,15.502,0.087,20.502-4.051v-3.551c0,0-6.701,3.967-20.502,3.967C377.48,187.844,360.982,187.511,356.982,183.877z"/>
	<path fill="#E76C68" stroke="#FFFFFF" stroke-miterlimit="10" d="M397.982,183.402v0.689c0,0-5.933,4.319-20.662,4.319
		c0,0-14.63,0.733-20.828-4.001l0.166-1.009L397.982,183.402L397.982,183.402z"/>
	<path fill="#E76C68" stroke="#FFFFFF" stroke-width="0.5" stroke-miterlimit="10" d="M397.745,183.641c0,0-3.01-0.28-4.118,1.46
		c-0.952,0.881-1.693,2.176-6.342,0.385c0,0-2.367-0.718-4.766,1.42c0,0-1.702,1.971-3.939,0.437c0,0-1.938-1.54-3.357-0.288
		c0,0-2.864,1.489-5.478-0.558c0,0-1.778-1.743-3.446-0.386c0,0-2.39,2.393-4.691-0.355c0,0-1.563-2.082-4.22-2.168
		c0,0-3.931,0.695-2.677-3.721l45.523-0.916C400.234,178.949,402.83,182.9,397.745,183.641"/>
	<path fill="#E76C68" stroke="#FFFFFF" stroke-width="0.5" stroke-miterlimit="10" d="M396.783,176.834c0,0,2.206,0.262,3.24,1.668
		c0,0,2.067,2.812-2.136,2.691c0,0-3.263-0.48-4.371,1.26c0,0-1.692,2.379-5.276,0.974c0,0-3.177-1.107-5.576,1.029
		c0,0-1.702,1.971-3.939,0.437c0,0-1.938-1.541-3.356-0.288c0,0-2.864,1.488-5.478-0.558c0,0-1.779-1.744-3.446-0.385
		c0,0-2.253,1.979-4.502-0.062c0,0-1.679-2.186-4.391-1.645c0,0-3.246,0.402-2.969-1.559c0,0,0.192-1.571,1.993-1.607"/>
	<path fill="#E76C68" stroke="#FFFFFF" stroke-width="0.5" stroke-miterlimit="10" d="M387.686,176.964l9.324-3.219
		c0,0,1.985-0.571,2.014,0.584c0,0,1.381,0.558-0.201,1.336c0,0,0.61,0.501-0.042,1.022c0,0,0.229,1.221-0.978,0.938
		c0,0,1.253,1.521-0.97,1.295c0,0,0.174,0.986-1.051,0.685c0,0,0.356,1.667-1.432,1.404c0,0-0.312,1.425-2.115,1.214
		c0,0-1.066,0.93-3.107,0.654c0,0-6.243,2.389-14.771-1.466c0,0-12.539,2.265-13.461-0.673c0,0-2.22,0.223-2.754-1.193
		c0,0-2.029,0.824-1.861-0.504c0,0-1.131-0.203-0.598-0.877c0,0-1.167-0.744,0.104-0.947c0,0-0.986-0.506,0.381-0.813l0.664-0.457"
		/>
	<path fill="#E76C68" stroke="#FFFFFF" stroke-width="0.5" stroke-miterlimit="10" d="M376.224,180.492
		c0,0,12.262,3.64,16.866-0.246l0.088-2.141l-12.03,0.062L376.224,180.492z"/>
	<path fill="#E76C68" stroke="#FFFFFF" stroke-width="0.5" stroke-miterlimit="10" d="M392.188,176.391c0,0,2.883,2.01-1.136,3.374
		c0,0-4.287,1.938-13.099,0.125"/>
	<path fill="#E76C68" stroke="#FFFFFF" stroke-width="0.5" stroke-miterlimit="10" d="M373.151,176.527
		c0,0-12.028,4.293-16.816,0.596l-0.228-1.932l12.014-0.789L373.151,176.527z"/>
	<path fill="#E76C68" stroke="#FFFFFF" stroke-width="0.5" stroke-miterlimit="10" d="M357.015,173.438c0,0-2.683,2.184,1.098,3.367
		c0,0,4.575,1.723,13.291-0.443"/>
	<polyline fill="#E76C68" stroke="#FFFFFF" stroke-width="0.5" stroke-miterlimit="10" points="393.358,175.832 393.769,176.232 
		377.164,180.312 370.523,185.924 362.571,179.662 360.127,175.686 	"/>
	<polyline fill="#E76C68" stroke="#FFFFFF" stroke-width="0.5" stroke-miterlimit="10" points="377.164,180.312 368.973,187.993 
		362.571,179.662 	"/>
	<path fill="#E76C68" stroke="#FFFFFF" stroke-miterlimit="10" d="M356.434,174.782c0,0-0.557-16.722,21.017-16.708
		c0,0,19.821-1.551,21.573,16.255C399.021,174.329,378.393,180.515,356.434,174.782z"/>
	<path fill="#E76C68" stroke="#FFFFFF" stroke-width="0.5" stroke-miterlimit="10" d="M364.809,171.719c0,0-1.393-2.424,0.325-3.164
		C365.134,168.555,366.656,168.246,364.809,171.719z"/>
	<path fill="#E76C68" stroke="#FFFFFF" stroke-width="0.5" stroke-miterlimit="10" d="M372.562,165.005c0,0-1-1.995,0.409-2.521
		C372.973,162.484,374.206,162.297,372.562,165.005z"/>
	<path fill="#E76C68" stroke="#FFFFFF" stroke-width="0.5" stroke-miterlimit="10" d="M383.362,167.2c0,0-1-1.995,0.409-2.521
		C383.771,164.68,385.004,164.492,383.362,167.2z"/>
	<path fill="#E76C68" stroke="#FFFFFF" stroke-width="0.5" stroke-miterlimit="10" d="M376.963,171.225c0,0-1-1.994,0.409-2.52
		C377.372,168.705,378.605,168.518,376.963,171.225z"/>
	<path fill="#E76C68" stroke="#FFFFFF" stroke-width="0.5" stroke-miterlimit="10" d="M390.217,171.917c0,0-1.622-1.616-0.457-2.513
		C389.76,169.404,390.869,168.879,390.217,171.917z"/>
</g>
<path fill="#E76C68" stroke="#FFFFFF" stroke-width="0.5" stroke-miterlimit="10" d="M360.998,169.98L357,203.299
	c0,0-7.693,3.004-14.795,0l-4.203-33.332"/>
<ellipse fill="#FFFFFF" stroke="#E76C68" stroke-width="0.4783" stroke-miterlimit="10" cx="349.8" cy="170.008" rx="11.306" ry="1.777"/>
<path fill="#FFFFFF" d="M340.35,183.639c0,0,5.407,10.103,17.15,9.326l0.7-4.461c0,0-9.763,1.146-18.602-9.878L340.35,183.639z"/>
<polyline fill="none" stroke="#E76C68" stroke-width="1.8152" stroke-miterlimit="10" points="349.774,171.602 350.098,159.367 
	339.643,155.011 "/>
</svg>
