<?xml version="1.0" encoding="utf-8"?>
<!-- Generator: Adobe Illustrator 16.0.0, SVG Export Plug-In . SVG Version: 6.00 Build 0)  -->
<!DOCTYPE svg PUBLIC "-//W3C//DTD SVG 1.1//EN" "http://www.w3.org/Graphics/SVG/1.1/DTD/svg11.dtd">
<svg version="1.1" id="Layer_1" xmlns="http://www.w3.org/2000/svg" xmlns:xlink="http://www.w3.org/1999/xlink" x="0px" y="0px"
	 width="160px" height="200px" viewBox="290 80 160 200" enable-background="new 290 80 160 200" xml:space="preserve">
<g>
	<g>
		<path fill="#809720" stroke="#FFFFFF" stroke-width="3.2666" stroke-miterlimit="10" d="M347.229,251.272l17.967-127.891
			l3.772,1.636v146.198h-24.5L347.229,251.272z"/>
	</g>
	
		<line fill="none" stroke="#809720" stroke-width="3.2666" stroke-linecap="round" stroke-miterlimit="10" x1="370.65" y1="92.738" x2="370.771" y2="84.578"/>
	<path fill="#809720" stroke="#FFFFFF" stroke-width="3" stroke-miterlimit="10" d="M433.793,164.913c0,0-75.498,0-140.189-10.879
		c0,0,11.498-67.172,80.104-62.354C373.706,91.68,430.326,100.679,433.793,164.913z"/>
	<path fill="#809720" stroke="#FFFFFF" stroke-width="2" stroke-miterlimit="10" d="M390.659,163.605
		c0,0,4.092-42.498-20.284-72.271c0,0-28.929,16.629-35.245,68.365C335.13,159.699,360.585,162.134,390.659,163.605z"/>
	<path fill="#809720" stroke="#FFFFFF" stroke-width="1.1193" stroke-miterlimit="10" d="M430.839,213.168
		c0,0,1.165-6.105-1.237-10.322c0,0-0.825-1.256-5.09-1.654c0,0-3.789-0.088-4.982,1.584c0,0-2.043,5.673,0.931,11.914"/>
	<path fill="#809720" stroke="#FFFFFF" stroke-width="2" stroke-miterlimit="10" d="M370.952,231.391c0,0-4.446-11.35-10.781-13.684
		c0,0,7.03,9.327,6.366,21.499c0,0-0.645,19.995,2.024,31.995h9.839l-1.896-2.443c0,0-2.217-1.11-0.552-13.67
		c0,0,15.005-1.944,27.337,2.391c0,0,1.712,2.441,1.989,11.555l-2.05,2.445h7.891l0.33-13.836c0,0,1.611-1.89,4.45,0l0.494,13.836
		h8.278l-2.055-2.333c0,0-0.666-4.112,1.502-13.504c0,0,2.441-12.058,2.221-16.282c0,0,18.067-7.387,19.619-20.498
		c0,0,5.223-8.446-16.225-8.559c0,0-18.607-0.234-26.387,1.434c0,0-3.948-7.627-8.95-8.961c0,0,0.669,2.972,2.779,12.197
		c0,0,2.47,10.055-0.13,15.471C397.05,230.443,381.732,228.751,370.952,231.391z"/>
	<path fill="#809720" stroke="#FFFFFF" stroke-width="1.0074" stroke-miterlimit="10" d="M427.824,241.261l-6.084,2.694v4.578
		l-1.295-0.376l-0.209-4.12c0,0-16.053-5.854-23.188-13.594c0,0-1.348-1.187,0.707-1.615c0,0,15.229,11.119,23.062,12.996
		c0,0,5.521-2.465,8.033-3.65C428.854,238.174,429.404,240.266,427.824,241.261z"/>
	<path fill="#809720" stroke="#FFFFFF" stroke-width="1.1193" stroke-miterlimit="10" d="M417.107,250.588
		c0,2.054,1.672,3.721,3.729,3.721c2.055,0,3.72-1.667,3.72-3.721c0-2.056-1.665-3.722-3.72-3.722
		C418.779,246.866,417.107,248.532,417.107,250.588z"/>
	<path fill="#809720" stroke="#FFFFFF" stroke-width="1.679" stroke-miterlimit="10" d="M446.525,213.193
		c0,0,2.407,6.277-6.117,6.502c0,0-3.561,0.137-2.363-4.086c0,0,0.902-3.125,2.789-4.064
		C440.834,211.545,445.135,209.609,446.525,213.193z"/>
	<path fill="#809720" stroke="#FFFFFF" stroke-width="1.679" stroke-miterlimit="10" d="M412.658,204.52
		c0,0-6.118,0.692-6.118,5.685c0,0,0,12.942,6.597,14.659c0,0,5.331,1.812,7.812-7.094c0,0,1.33-6.422-0.908-11.508
		C420.041,206.262,419.003,203.732,412.658,204.52z"/>
</g>
</svg>
