<?xml version="1.0" encoding="utf-8"?>
<!-- Generator: Adobe Illustrator 16.0.0, SVG Export Plug-In . SVG Version: 6.00 Build 0)  -->
<!DOCTYPE svg PUBLIC "-//W3C//DTD SVG 1.1//EN" "http://www.w3.org/Graphics/SVG/1.1/DTD/svg11.dtd">
<svg version="1.1" id="Layer_1" xmlns="http://www.w3.org/2000/svg" xmlns:xlink="http://www.w3.org/1999/xlink" x="0px" y="0px"
	 width="740px" height="360px" viewBox="0 0 740 360" enable-background="new 0 0 740 360" xml:space="preserve">
<g>
	<g>
		<path fill="#809720" stroke="#FFFFFF" stroke-width="3.2666" stroke-miterlimit="10" d="M441.229,310.272l17.966-127.89
			l3.773,1.635v146.199h-24.5L441.229,310.272z"/>
	</g>
	
		<line fill="#FFFFFF" stroke="#809720" stroke-width="3.2666" stroke-linecap="round" stroke-miterlimit="10" x1="464.65" y1="151.738" x2="464.771" y2="143.578"/>
	<path fill="#809720" stroke="#FFFFFF" stroke-width="3" stroke-miterlimit="10" d="M527.793,223.913c0,0-75.498,0-140.189-10.879
		c0,0,11.498-67.172,80.103-62.354C467.706,150.68,524.326,159.679,527.793,223.913z"/>
	<path fill="#809720" stroke="#FFFFFF" stroke-width="2" stroke-miterlimit="10" d="M484.659,222.605
		c0,0,4.092-42.497-20.284-72.271c0,0-28.929,16.629-35.245,68.365C429.13,218.699,454.585,221.134,484.659,222.605z"/>
	<path fill="#809720" stroke="#FFFFFF" stroke-width="1.1193" stroke-miterlimit="10" d="M524.839,272.168
		c0,0,1.165-6.105-1.237-10.322c0,0-0.826-1.256-5.09-1.655c0,0-3.789-0.087-4.983,1.584c0,0-2.043,5.673,0.931,11.915"/>
	<path fill="#809720" stroke="#FFFFFF" stroke-width="2" stroke-miterlimit="10" d="M464.952,290.391c0,0-4.446-11.35-10.781-13.684
		c0,0,7.03,9.327,6.366,21.499c0,0-0.644,19.995,2.025,31.995h9.838l-1.896-2.443c0,0-2.217-1.111-0.552-13.67
		c0,0,15.005-1.944,27.337,2.391c0,0,1.712,2.441,1.989,11.554l-2.05,2.446h7.891l0.33-13.836c0,0,1.612-1.89,4.45,0l0.495,13.836
		h8.278l-2.055-2.333c0,0-0.666-4.113,1.502-13.504c0,0,2.442-12.058,2.221-16.282c0,0,18.067-7.387,19.619-20.498
		c0,0,5.223-8.447-16.225-8.559c0,0-18.607-0.234-26.386,1.434c0,0-3.949-7.628-8.951-8.962c0,0,0.669,2.972,2.78,12.197
		c0,0,2.469,10.056-0.13,15.472C491.05,289.443,475.732,287.751,464.952,290.391z"/>
	<path fill="#809720" stroke="#FFFFFF" stroke-width="1.0074" stroke-miterlimit="10" d="M521.824,300.261l-6.084,2.694v4.578
		l-1.295-0.376l-0.209-4.12c0,0-16.052-5.853-23.187-13.594c0,0-1.348-1.186,0.707-1.615c0,0,15.228,11.119,23.062,12.996
		c0,0,5.522-2.465,8.034-3.65C522.854,297.174,523.404,299.266,521.824,300.261z"/>
	<path fill="#809720" stroke="#FFFFFF" stroke-width="1.1193" stroke-miterlimit="10" d="M511.107,309.588
		c0,2.054,1.672,3.721,3.729,3.721c2.055,0,3.72-1.667,3.72-3.721c0-2.056-1.665-3.722-3.72-3.722
		C512.779,305.866,511.107,307.532,511.107,309.588z"/>
	<path fill="#809720" stroke="#FFFFFF" stroke-width="1.679" stroke-miterlimit="10" d="M540.525,272.194
		c0,0,2.408,6.276-6.117,6.501c0,0-3.56,0.137-2.363-4.085c0,0,0.902-3.126,2.789-4.065
		C534.834,270.545,539.135,268.609,540.525,272.194z"/>
	<path fill="#809720" stroke="#FFFFFF" stroke-width="1.679" stroke-miterlimit="10" d="M506.658,263.52
		c0,0-6.118,0.692-6.118,5.684c0,0,0,12.942,6.597,14.659c0,0,5.331,1.812,7.812-7.093c0,0,1.33-6.422-0.908-11.508
		C514.041,265.262,513.003,262.732,506.658,263.52z"/>
</g>
</svg>
