<?xml version="1.0" encoding="utf-8"?>
<!-- Generator: Adobe Illustrator 16.0.0, SVG Export Plug-In . SVG Version: 6.00 Build 0)  -->
<!DOCTYPE svg PUBLIC "-//W3C//DTD SVG 1.1//EN" "http://www.w3.org/Graphics/SVG/1.1/DTD/svg11.dtd">
<svg version="1.1" id="Layer_1" xmlns="http://www.w3.org/2000/svg" xmlns:xlink="http://www.w3.org/1999/xlink" x="0px" y="0px"
	 width="740px" height="360px" viewBox="0 0 740 360" enable-background="new 0 0 740 360" xml:space="preserve">
<g>
	<path fill="#EEA831" stroke="#FFFFFF" stroke-width="4" stroke-miterlimit="10" d="M417.808,78.296
		C396.045,202.935,413.027,331,413.027,331H204.92c0,0,10.727-153.783-14.235-250.755c0,0,91.096-9.596,138.394-43.228
		c0,0,30.135,32.115,85.804,39.236L417.808,78.296z"/>
	<path fill="#EEA831" stroke="#FFFFFF" stroke-width="2.1802" stroke-miterlimit="10" d="M239.484,72.187
		c0,0-10.88-17.412-17.704-35.686c0,0-4.386-6.145,12.997-6.451c0,0,14.619,0.153,16.894-8.906c0,0,1.947-5.682,5.849,5.527
		c0,0,6.821,16.894,9.419,38.386"/>
	<polygon fill="#EEA831" stroke="#FFFFFF" stroke-width="4.3604" stroke-miterlimit="10" points="347.49,209.404 350.002,286.957 
		387.672,284.978 377.21,210.986 	"/>
	<polygon fill="#EEA831" stroke="#FFFFFF" stroke-width="4" stroke-miterlimit="10" points="237.779,225.344 230.872,304 
		263.934,304 268.121,223.521 	"/>
	<polygon fill="#EEA831" stroke="#FFFFFF" stroke-width="4.3604" stroke-miterlimit="10" points="226.686,157.56 238.172,199.906 
		260.631,197.145 266.117,149.734 	"/>
	<polygon fill="#EEA831" stroke="#FFFFFF" stroke-width="4.3604" stroke-miterlimit="10" points="294.627,168.596 332.754,168.244 
		323.755,206.736 286.887,207.126 	"/>
	<polygon fill="#EEA831" stroke="#FFFFFF" stroke-width="4.3604" stroke-miterlimit="10" points="354.789,150.106 344.858,193.137 
		386.6,195.856 385.777,151.456 	"/>
	<path fill="#EEA831" stroke="#FFFFFF" stroke-width="4" stroke-miterlimit="10" d="M276.756,140h80.362
		c0,0,5.438-65.21-35.992-67.859C321.126,72.141,274.301,63,276.756,140z"/>
	<polygon fill="#EEA831" stroke="#FFFFFF" stroke-width="4" stroke-miterlimit="10" points="287.09,235 284.116,313 333.258,313 
		332.648,235 	"/>
	<ellipse fill="#FFFFFF" cx="321.332" cy="272.666" rx="4.555" ry="4.303"/>
	
		<line fill="#EEA831" stroke="#FFFFFF" stroke-width="2.1802" stroke-miterlimit="10" x1="246.59" y1="154.107" x2="248.061" y2="198.692"/>
	
		<line fill="#EEA831" stroke="#FFFFFF" stroke-width="2.1802" stroke-miterlimit="10" x1="232.901" y1="179.281" x2="263.428" y2="172.98"/>
	
		<line fill="#EEA831" stroke="#FFFFFF" stroke-width="2.1802" stroke-miterlimit="10" x1="290.792" y1="187.684" x2="328.08" y2="187.055"/>
	
		<line fill="#EEA831" stroke="#FFFFFF" stroke-width="2.1802" stroke-miterlimit="10" x1="314.424" y1="168.413" x2="305.503" y2="206.941"/>
	
		<line fill="#EEA831" stroke="#FFFFFF" stroke-width="2.1802" stroke-miterlimit="10" x1="370.002" y1="150.769" x2="365.729" y2="194.467"/>
	
		<line fill="#EEA831" stroke="#FFFFFF" stroke-width="2.1802" stroke-miterlimit="10" x1="349.711" y1="170.921" x2="386.176" y2="172.98"/>
	
		<line fill="#EEA831" stroke="#FFFFFF" stroke-width="2.1802" stroke-miterlimit="10" x1="235.262" y1="251.164" x2="266.117" y2="249.367"/>
	
		<line fill="#EEA831" stroke="#FFFFFF" stroke-width="2.1802" stroke-miterlimit="10" x1="250.688" y1="250.266" x2="246.59" y2="301.596"/>
	
		<line fill="#EEA831" stroke="#FFFFFF" stroke-width="2.1802" stroke-miterlimit="10" x1="232.901" y1="277.636" x2="265.28" y2="275.932"/>
	<line fill="#EEA831" stroke="#FFFFFF" stroke-width="3" stroke-miterlimit="10" x1="348" y1="240.5" x2="381" y2="240.5"/>
	
		<line fill="#EEA831" stroke="#FFFFFF" stroke-width="2.0826" stroke-miterlimit="10" x1="364.022" y1="239.834" x2="370.002" y2="285.274"/>
	
		<line fill="#EEA831" stroke="#FFFFFF" stroke-width="2.1802" stroke-miterlimit="10" x1="349.186" y1="261.658" x2="383.266" y2="253.807"/>
	<polygon fill="#EEA831" stroke="#FFFFFF" stroke-width="3" stroke-miterlimit="10" points="278.01,321.5 280.205,313.5 
		338.279,313.5 339.85,321.5 	"/>
	<polyline fill="#EEA831" stroke="#FFFFFF" stroke-width="2.1802" stroke-miterlimit="10" points="268.591,328.512 270.475,321.389 
		347.49,320.201 349.269,328.512 	"/>
	<line fill="#EEA831" stroke="#FFFFFF" stroke-width="3" stroke-miterlimit="10" x1="279" y1="112.5" x2="355" y2="112.5"/>
	<line fill="#EEA831" stroke="#FFFFFF" stroke-width="3" stroke-miterlimit="10" x1="316.5" y1="140" x2="316.5" y2="73"/>
	<path fill="none" stroke="#EFA931" stroke-width="13.4295" stroke-miterlimit="10" d="M165,78.433
		c0,0,107.673-4.748,164.492-46.294c0,0,34.156,36.797,104.642,42.731"/>
	<path fill="none" stroke="#FFFFFF" stroke-width="6.5405" stroke-miterlimit="10" d="M167.513,78.433
		c0,0,105.896-4.748,161.565-46.294c0,0,33.066,36.797,102.125,42.731"/>
</g>
</svg>
