<?xml version="1.0" encoding="utf-8"?>
<!-- Generator: Adobe Illustrator 16.0.0, SVG Export Plug-In . SVG Version: 6.00 Build 0)  -->
<!DOCTYPE svg PUBLIC "-//W3C//DTD SVG 1.1//EN" "http://www.w3.org/Graphics/SVG/1.1/DTD/svg11.dtd">
<svg version="1.1" id="Layer_1" xmlns="http://www.w3.org/2000/svg" xmlns:xlink="http://www.w3.org/1999/xlink" x="0px" y="0px"
	 width="140px" height="140px" viewBox="0 0 140 140" enable-background="new 0 0 140 140" xml:space="preserve">
<g>
	<path fill="#259DC4" stroke="#FFFFFF" stroke-width="0.7901" stroke-miterlimit="10" d="M50.117,130.904c0,0,3.381,0.669,8.324,0
		c0.626-0.084,1.868-0.179,4.159,0.153c0,0,4.839,0.771,6.915-0.628c0,0,0.741-1.998-0.8-4.663
		C68.717,125.768,50.7,128.436,50.117,130.904z"/>
	<path fill="#259DC4" stroke="#FFFFFF" stroke-width="0.7901" stroke-miterlimit="10" d="M87.5,93.236
		c0,0-15.07-8.771-36.738-12.549c0,0-7.791-1.498-9.789,2.611c0,0-2.341,3.529,1.027,9.714l12.616,19.763l10.79-4.272
		c0,0-2.015-6.351-5.482-11.903c0,0-1.369-1.837,0.288-0.505c0,0,9.112,7.684,16.041,8.134L87.5,93.236z"/>
	<path fill="#259DC4" stroke="#FFFFFF" stroke-width="0.7901" stroke-miterlimit="10" d="M80.135,98.177
		c0,0-5.396-1.581-13.788-6.286c0,0-8.134-4.457-15.241-4.205c0,0-1.483,0.026-0.285,0.914c0,0,0.655,0.223,0.515,0.973
		c0,0-0.229,0.443,0.655,0.498c0,0,0.313-0.166,0.514,1.556c0,0,0.172,1.942,1.6,3.942c0,0,2.481,3.138,5.451,11.936"/>
	<path fill="#259DC4" stroke="#FFFFFF" stroke-width="0.7901" stroke-miterlimit="10" d="M88.634,90.764
		c0,0-0.824-4.861,0.708-7.273l15.785-2.411c0,0,1.199,5.771,0.485,11.655C104.894,98.621,88.634,90.764,88.634,90.764z"/>
	<path fill="#259DC4" stroke="#FFFFFF" stroke-width="0.7901" stroke-miterlimit="10" d="M106.169,91.068
		c0,0-0.114,8.439-1.942,15.323c0,0-1.598,7.884-11.646,8.55c0,0-7.137-0.401-13.474,0.777c0,0-24.834,4.816-28.203,4.496
		l-0.799-0.166c0,0,1.257,0.333,2.284,0.443l-2.284,1.056c0,0,2.844-1.515,14.844-2.942c0,0,8.854-1.256,15.604-2.693
		c0,0,3.547-0.828,13.581-0.707l2.67,8.563c0,0-15.129-1.333-49.954,7.993c0,0-8.161,2.721-11.816-4.329c0,0-2.397-4.44,3.653-10.66
		c0,0,4.51-4.385,19.409-10.991c0,0,12.607-5.079,24.15-9.215c0,0,5.595-1.723,5.823-7.551c0,0,3.083-0.5,9.817,0.889
		c0,0,3.826,0.832,6.167,0.276C104.057,90.182,106.169,89.849,106.169,91.068z"/>
	<path fill="#259DC4" stroke="#FFFFFF" stroke-width="0.7901" stroke-miterlimit="10" d="M92.766,129.986
		c0,0-0.129-1.229,1.585-1.831c0,0,1.818-0.355,1.798-2.915c0,0,0.246-3.441-1.626-6.995c0,0-1.204-2.127-0.387-3.04
		c0,0,4.622-0.88,6.553-2.769c0,0,2.184,1.479,1.497,5.1c0,0-0.728,3.873-0.356,7.537c0,0,0.616,3.956-0.37,5.579
		c0,0-0.386,0.806-4.54,0.942C96.918,131.596,92.952,131.818,92.766,129.986z"/>
	<path fill="#259DC4" stroke="#FFFFFF" stroke-width="0.7901" stroke-miterlimit="10" d="M98.229,92.734
		c0,0,0.887,15.354-16.02,19.021c0,0-9.934,2.233-31.464,6.531c0,0-4.305,0.746-2.654,2.464c0,0,0.798,0.516,0.136,1.59
		c0,0-1.06,1.59,0.398,1.203c0,0,5.688-2.791,15.2-3.438c0,0,14.141-0.644,31.021-3.136"/>
	<path fill="#259DC4" stroke="#FFFFFF" stroke-width="0.7901" stroke-miterlimit="10" d="M97.55,102.007c0,0-2.1,3.373-2.086,5.435
		c0,0,0,4.685,1.454,5.434c0,0,1.158,0.999,4.497-2.748c0,0,2.399-2.331,2.783-6.744C104.198,103.382,100.302,104.006,97.55,102.007
		z"/>
	<path fill="#259DC4" stroke="#FFFFFF" stroke-width="0.7901" stroke-miterlimit="10" d="M91.352,90.178
		c-1.482-0.329-2.573-0.885-2.573-0.885c-1.588-0.766-1.871-0.171-1.871-0.171c-0.862,1.394-0.55,2.946-0.55,2.946
		s0.098,0.692,1.781,0.526c0,0,1.888-0.146,3.558,0.488c0,0,3.168,1.346,9.105,1.831c0,0,1.117,0.07,2.241,0.046
		c0,0,2.44-0.013,3.322,0.218c0,0,0.457-0.833,0.271-2.753c0,0-2.374-1.31-9.086-1.662C97.55,90.764,93.151,90.578,91.352,90.178z"
		/>
	<path fill="#259DC4" stroke="#FFFFFF" stroke-width="0.7901" stroke-miterlimit="10" d="M103.043,95.804c0,0,1.048-2.469,0-4.831
		c0,0,0.515-0.664,1.155,0.377c0,0,1.112,2.038,0.301,3.913C104.499,95.263,104.028,96.22,103.043,95.804z"/>
	<path fill="#259DC4" stroke="#FFFFFF" stroke-width="0.7901" stroke-miterlimit="10" d="M92.405,94.1c0,0-0.662-2.328,0.614-4.224
		c0,0-0.378-0.646-1.089,0.185c0,0-1.261,1.533-0.673,3.396C91.259,93.457,91.602,94.354,92.405,94.1z"/>
	<polygon fill="#259DC4" stroke="#FFFFFF" stroke-width="0.9335" stroke-miterlimit="10" points="47.956,21.417 38.917,19.173 
		36.758,27.498 45.933,29.875 	"/>
	<path fill="#259DC4" d="M52.019,7.722l6.553,2.598l-2.046,7.711H54.7l-0.102,0.332c0,0,1.344-0.008,2.304,1.887
		c0,0,0.479,1.35,2.175,1.546c0,0,0.81-0.062,0.607,0.922l-1.771,10.841c0,0-0.11,2.789-4.234,2.1c0,0-9.045-0.557-8.769-5.572
		c0,0,1.005-4.743,2.43-10.086c0,0,0.203-2.117,3.616-1.697c0,0,0.211-1.506,2.512-1.013l1.231-5.679c0,0-0.556-1.871-2.913-2.074
		L52.019,7.722z"/>
	<path fill="#259DC4" stroke="#FFFFFF" stroke-width="0.5644" stroke-miterlimit="10" d="M59.737,61.038l-0.67,0.832
		c0,0-3.825-8.495-3.995-20.599c0,0,0.057-6.271,1.37-9.547c0,0,1.982-4.123,0.963-7.552c0,0-0.376-1.786-1.12-3.483
		c0,0-1.52-0.582-0.813,1.707c0,0,0.687,1.104,0.431,2.188c0,0-0.193,0.271-0.579,0.416c0,0-1.049-0.166-2.527-1.688
		c0,0-1.541-1.353-2.61-0.645c0,0-1.521,1.311-2.099,3.102c0,0-0.286,1.031-0.6,1.666c0,0-0.814,1.437-0.3,2.52
		c0,0,1.113,1.52,3.555,2.831c0,0,1.263,0.556,1.308,1.993c0,0-3.198,19.373-0.629,29.08c0,0,2.083,7.614,5.767,7.864
		c0,0,2.552,0.639,8.392-5.47L59.737,61.038z"/>
	<path fill="#259DC4" stroke="#FFFFFF" stroke-width="0.7901" stroke-miterlimit="10" d="M59.917,60
		c-0.345,0.405-0.136,1.022,0.148,1.479c3.339,5.342,5.806,5.666,5.806,5.666c1.87-0.908,5.346-4.718,5.346-4.718
		c1.169,5.243,11.527,12.89,11.527,12.89c2.658,1.703,2.894,4.978,2.894,4.978c0.233,1.19,0.867,1.699,0.867,1.699
		c0.833,0.874,0.637,1.727,0.637,1.727c-0.13,1.076,0.353,1.706,0.353,1.706c0.438,0.678,0.423,1.368,0.423,1.368
		c0.67,0.03,1.402-0.379,1.402-0.379c1.691-1.082,3.593-0.729,3.593-0.729c4.852,0.434,7.771-1.762,7.771-1.762
		c2.852-1.652,5.175-0.812,5.175-0.812s0.352,0.125,0-2.158c0,0-2.281-20.809-13.677-35.243l-7.479-5.798
		c0,0-7.537-0.341-14.961,8.639C69.74,48.551,65.296,53.681,59.917,60z"/>
	<path fill="#259DC4" stroke="#FFFFFF" stroke-width="0.7901" stroke-miterlimit="10" d="M87.342,83.49c0,0,0.916-1.612,4.06-1.944
		c0,0,2.205-0.163,4.844-1.901c0,0,5.444-3.517,9.019-1.207"/>
	<path fill="#259DC4" stroke="#FFFFFF" stroke-width="0.7901" stroke-miterlimit="10" d="M85.689,78.859
		c0,0,2.128,0.414,4.892-2.151c0,0,7.085-6.748,13.731-2.632"/>
	<path fill="#259DC4" stroke="#FFFFFF" stroke-width="0.7901" stroke-miterlimit="10" d="M83.911,75.814
		c0,0,7.622-9.172,19.169-6.75"/>
	<path fill="#259DC4" stroke="#FFFFFF" stroke-width="0.7901" stroke-miterlimit="10" d="M80.404,73.004
		c0,0,2.809-6.381,8.688-6.877c0,0,4.276-0.124,7.555-1.82c0,0,2.488-1.24,4.791-0.229"/>
	<path fill="#259DC4" stroke="#FFFFFF" stroke-width="0.7901" stroke-miterlimit="10" d="M75.211,68.342
		c0,0,1.713,0.015,3.354-1.995c0,0,2.939-4.354,9.529-4.592c0,0,4.695-0.041,7.803-2.107c0,0,2.108-1.488,3.411-1.039"/>
	<path fill="#259DC4" stroke="#FFFFFF" stroke-width="0.7901" stroke-miterlimit="10" d="M72.054,63.589c0,0,2.33-3.8,7.987-3.8
		c0,0,4.466,0.278,8.082-2.538c0,0,4.778-4.085,8.689-3.854"/>
	<path fill="#259DC4" stroke="#FFFFFF" stroke-width="0.7901" stroke-miterlimit="10" d="M94.859,50.113
		c0,0-2.794-1.18-11.998,4.262c0,0-3.241,1.941-5.183,1.941c0,0-1.654-6.022-8.51-6.555"/>
	<path fill="#259DC4" stroke="#FFFFFF" stroke-width="0.7901" stroke-miterlimit="10" d="M92.54,46.726c0,0-2.697-1-5.28,0.553
		c0,0-1.161-4.912-7.601-5.896"/>
	<path fill="#259DC4" stroke="#FFFFFF" stroke-width="0.7901" stroke-miterlimit="10" d="M71.679,46.927
		c0,0,7.012-0.249,9.141,6.686"/>
	<path fill="#259DC4" stroke="#FFFFFF" stroke-width="0.7901" stroke-miterlimit="10" d="M74.885,44.101
		c0,0,7.006-0.712,9.549,6.604"/>
	<path fill="none" stroke="#FFFFFF" stroke-width="0.7901" stroke-miterlimit="10" d="M87.868,42.365c0,0,3.355,5.261-9.617,13.6
		c0,0-4.409,3.501-7.034,6.464"/>
	<path fill="#259DC4" stroke="#FFFFFF" stroke-width="0.7901" stroke-miterlimit="10" d="M66.518,52.84c0,0,5.295-0.249,7.74,6.002"
		/>
	<path fill="#259DC4" stroke="#FFFFFF" stroke-width="0.7901" stroke-miterlimit="10" d="M63.908,55.881
		c0,0,5.262,0.616,7.054,6.819"/>
	<path fill="#259DC4" stroke="#FFFFFF" stroke-width="0.7901" stroke-miterlimit="10" d="M68.283,64.908c0,0-1.91,0.106-2.842-2.536
		c0,0-1.157-3.541-4.323-3.278"/>
	<path fill="#259DC4" stroke="#FFFFFF" stroke-width="0.9335" stroke-miterlimit="10" d="M39.12,18.937c0,0-0.271,4.428-2.295,8.432
		h-3.069c0,0,2.087-4.133,2.706-9.895L39.12,18.937z"/>
	<path fill="#259DC4" stroke="#FFFFFF" stroke-width="0.7901" stroke-miterlimit="10" d="M82.133,39.736
		c-1.034-4.35-8.185-2.351-8.185-2.351c-4.646,0.938-6.509-0.166-6.509-0.166c-1.436-0.854-0.75-2.69-0.75-2.69
		c0.258-0.959,0.215-1.285,0.215-1.285c-0.021-0.979-0.559-1.446-0.559-1.446c-0.02-0.209,0.985-1.03,0.985-1.03
		c-0.92-0.459-1.392-1.207-1.392-1.207c0.812-0.604,0.834-1.125,0.834-1.125c0.216-0.584-0.941-0.957-0.941-0.957
		c-1.422-0.479-1.413-1-1.413-1c-0.215-0.875,3.641-2.955,3.641-2.955c1.412-1,1.281-2.623,1.281-2.623
		c0.085-3.582,1.459-5.58,1.459-5.58l19.355,4.58l0.427,18.985l-3.323,4.747L82.133,39.736z"/>
	<path fill="#259DC4" stroke="#FFFFFF" stroke-width="0.5644" stroke-miterlimit="10" d="M72.941,17.082
		c-0.741,1.984,0.592,4.521,0.592,4.521c-6.158-2.793-3.607-7.684-3.607-7.684c-4.177,0.984-2.872,5.844-2.872,5.844
		c-3.36-5.25,1.508-7.958,1.508-7.958s2.105-1.27,5.388-0.632c0,0,7.085-5.75,16.519-0.611c0,0,6.421,3.617,5.796,11.743
		c0,0-0.059,2.324-1.079,6.05c0,0-2.261,8.631,3.792,12.029c0,0-1.884,0.667-4.115-0.125c0,0,2.227,4.674,8.078,2.905
		c0,0-0.903,3.122-6.984,2.183c0,0,1.021,2.018,4.006,2.102c0,0-2.342,2.377-8.393-0.522c0,0-1.134-0.515-4.624-3.293
		c0,0-3.769-2.956-10.146-1.638c0,0,4.21-1.555,5.149-3.498c0,0-1.656,2.268-4.572,1.1c0,0,2.294-0.717,2.777-1.738
		c0,0-1.671,0.168-2.777-0.664c0,0,4.001-0.438,4.938-4.17c0,0-1.921,0.645-3.268-0.027c0,0,2.249-0.105,3.121-3.307
		c0,0-3.784-1.138-3.827-6.293c0,0-4.079-1.086-5.259-5.928L72.941,17.082z"/>
</g>
</svg>
