<?xml version="1.0" encoding="utf-8"?>
<!-- Generator: Adobe Illustrator 16.0.0, SVG Export Plug-In . SVG Version: 6.00 Build 0)  -->
<!DOCTYPE svg PUBLIC "-//W3C//DTD SVG 1.1//EN" "http://www.w3.org/Graphics/SVG/1.1/DTD/svg11.dtd">
<svg version="1.1" id="Layer_1" xmlns="http://www.w3.org/2000/svg" xmlns:xlink="http://www.w3.org/1999/xlink" x="0px" y="0px"
	 width="740px" height="360px" viewBox="0 0 740 360" enable-background="new 0 0 740 360" xml:space="preserve">
<g>
	<path fill="#259DC4" stroke="#FFFFFF" stroke-width="0.7901" stroke-miterlimit="10" d="M640.117,337.816c0,0,3.381,0.669,8.324,0
		c0.626-0.084,1.869-0.178,4.16,0.154c0,0,4.838,0.771,6.915-0.628c0,0,0.741-1.998-0.8-4.663
		C658.717,332.68,640.7,335.348,640.117,337.816z"/>
	<path fill="#259DC4" stroke="#FFFFFF" stroke-width="0.7901" stroke-miterlimit="10" d="M677.5,300.148
		c0,0-15.07-8.771-36.738-12.548c0,0-7.791-1.498-9.789,2.611c0,0-2.341,3.529,1.027,9.714l12.616,19.763l10.79-4.273
		c0,0-2.014-6.351-5.482-11.903c0,0-1.369-1.837,0.288-0.505c0,0,9.112,7.683,16.041,8.134L677.5,300.148z"/>
	<path fill="#259DC4" stroke="#FFFFFF" stroke-width="0.7901" stroke-miterlimit="10" d="M670.135,305.089
		c0,0-5.396-1.581-13.788-6.286c0,0-8.134-4.457-15.242-4.206c0,0-1.483,0.027-0.285,0.915c0,0,0.656,0.222,0.515,0.972
		c0,0-0.229,0.444,0.655,0.499c0,0,0.314-0.166,0.514,1.555c0,0,0.172,1.943,1.6,3.942c0,0,2.481,3.138,5.451,11.936"/>
	<path fill="#259DC4" stroke="#FFFFFF" stroke-width="0.7901" stroke-miterlimit="10" d="M678.634,297.676
		c0,0-0.824-4.861,0.708-7.273l15.785-2.412c0,0,1.199,5.771,0.485,11.656C694.894,305.533,678.634,297.676,678.634,297.676z"/>
	<path fill="#259DC4" stroke="#FFFFFF" stroke-width="0.7901" stroke-miterlimit="10" d="M696.169,297.981
		c0,0-0.114,8.439-1.942,15.323c0,0-1.598,7.884-11.646,8.55c0,0-7.137-0.402-13.474,0.777c0,0-24.834,4.816-28.203,4.496
		l-0.799-0.166c0,0,1.257,0.333,2.285,0.443l-2.285,1.056c0,0,2.844-1.515,14.844-2.942c0,0,8.854-1.256,15.605-2.694
		c0,0,3.547-0.828,13.581-0.707l2.67,8.564c0,0-15.129-1.333-49.954,7.993c0,0-8.162,2.721-11.817-4.329
		c0,0-2.397-4.441,3.654-10.66c0,0,4.509-4.385,19.409-10.992c0,0,12.607-5.079,24.15-9.215c0,0,5.595-1.722,5.823-7.55
		c0,0,3.083-0.5,9.818,0.889c0,0,3.826,0.832,6.167,0.276C694.057,297.094,696.169,296.761,696.169,297.981z"/>
	<path fill="#259DC4" stroke="#FFFFFF" stroke-width="0.7901" stroke-miterlimit="10" d="M682.766,336.898
		c0,0-0.129-1.228,1.585-1.831c0,0,1.818-0.355,1.797-2.915c0,0,0.247-3.441-1.626-6.995c0,0-1.204-2.127-0.386-3.04
		c0,0,4.622-0.88,6.552-2.768c0,0,2.184,1.478,1.498,5.099c0,0-0.728,3.873-0.357,7.537c0,0,0.616,3.956-0.37,5.579
		c0,0-0.386,0.806-4.54,0.943C686.918,338.508,682.952,338.73,682.766,336.898z"/>
	<path fill="#259DC4" stroke="#FFFFFF" stroke-width="0.7901" stroke-miterlimit="10" d="M688.228,299.646
		c0,0,0.887,15.355-16.019,19.021c0,0-9.934,2.233-31.464,6.531c0,0-4.305,0.746-2.654,2.464c0,0,0.798,0.516,0.136,1.59
		c0,0-1.06,1.59,0.398,1.203c0,0,5.688-2.791,15.2-3.438c0,0,14.141-0.644,31.021-3.136"/>
	<path fill="#259DC4" stroke="#FFFFFF" stroke-width="0.7901" stroke-miterlimit="10" d="M687.55,308.919c0,0-2.1,3.373-2.086,5.435
		c0,0,0,4.684,1.454,5.433c0,0,1.158,0.999,4.497-2.748c0,0,2.399-2.331,2.783-6.744
		C694.198,310.294,690.302,310.918,687.55,308.919z"/>
	<path fill="#259DC4" stroke="#FFFFFF" stroke-width="0.7901" stroke-miterlimit="10" d="M681.352,297.09
		c-1.483-0.329-2.574-0.885-2.574-0.885c-1.588-0.766-1.871-0.171-1.871-0.171c-0.862,1.394-0.55,2.947-0.55,2.947
		s0.098,0.692,1.782,0.526c0,0,1.887-0.145,3.557,0.488c0,0,3.168,1.346,9.106,1.831c0,0,1.117,0.07,2.241,0.046
		c0,0,2.44-0.012,3.322,0.218c0,0,0.457-0.833,0.271-2.753c0,0-2.374-1.309-9.086-1.662
		C687.55,297.676,683.151,297.49,681.352,297.09z"/>
	<path fill="#259DC4" stroke="#FFFFFF" stroke-width="0.7901" stroke-miterlimit="10" d="M693.043,302.716c0,0,1.048-2.469,0-4.831
		c0,0,0.515-0.665,1.155,0.376c0,0,1.113,2.039,0.301,3.914C694.499,302.175,694.028,303.132,693.043,302.716z"/>
	<path fill="#259DC4" stroke="#FFFFFF" stroke-width="0.7901" stroke-miterlimit="10" d="M682.405,301.012
		c0,0-0.662-2.328,0.614-4.224c0,0-0.377-0.646-1.088,0.185c0,0-1.261,1.533-0.673,3.396
		C681.259,300.369,681.602,301.265,682.405,301.012z"/>
	<polygon fill="#259DC4" stroke="#FFFFFF" stroke-width="0.9335" stroke-miterlimit="10" points="637.956,228.33 628.917,226.086 
		626.758,234.41 635.933,236.787 	"/>
	<path fill="#259DC4" d="M642.019,214.635l6.552,2.598l-2.046,7.71H644.7l-0.101,0.332c0,0,1.343-0.007,2.303,1.887
		c0,0,0.48,1.35,2.175,1.546c0,0,0.81-0.062,0.608,0.922l-1.771,10.841c0,0-0.11,2.789-4.234,2.1c0,0-9.045-0.557-8.769-5.573
		c0,0,1.005-4.743,2.43-10.086c0,0,0.203-2.117,3.616-1.697c0,0,0.211-1.506,2.512-1.013l1.231-5.678c0,0-0.555-1.872-2.913-2.075
		L642.019,214.635z"/>
	<path fill="#259DC4" stroke="#FFFFFF" stroke-width="0.5644" stroke-miterlimit="10" d="M649.737,267.95l-0.67,0.832
		c0,0-3.825-8.495-3.995-20.598c0,0,0.057-6.272,1.37-9.548c0,0,1.983-4.122,0.963-7.551c0,0-0.376-1.786-1.12-3.483
		c0,0-1.519-0.583-0.813,1.706c0,0,0.686,1.105,0.43,2.188c0,0-0.193,0.271-0.579,0.416c0,0-1.049-0.166-2.527-1.687
		c0,0-1.541-1.353-2.611-0.645c0,0-1.52,1.311-2.098,3.102c0,0-0.286,1.031-0.6,1.666c0,0-0.814,1.436-0.3,2.519
		c0,0,1.114,1.519,3.555,2.831c0,0,1.263,0.556,1.308,1.993c0,0-3.199,19.373-0.629,29.081c0,0,2.083,7.613,5.766,7.863
		c0,0,2.552,0.639,8.392-5.47L649.737,267.95z"/>
	<path fill="#259DC4" stroke="#FFFFFF" stroke-width="0.7901" stroke-miterlimit="10" d="M649.917,266.913
		c-0.345,0.406-0.136,1.023,0.148,1.479c3.339,5.342,5.806,5.667,5.806,5.667c1.87-0.908,5.346-4.718,5.346-4.718
		c1.169,5.243,11.527,12.889,11.527,12.889c2.658,1.704,2.894,4.978,2.894,4.978c0.233,1.191,0.867,1.699,0.867,1.699
		c0.833,0.874,0.637,1.727,0.637,1.727c-0.13,1.076,0.352,1.706,0.352,1.706c0.438,0.678,0.423,1.368,0.423,1.368
		c0.67,0.03,1.402-0.379,1.402-0.379c1.692-1.082,3.593-0.73,3.593-0.73c4.852,0.434,7.772-1.761,7.772-1.761
		c2.851-1.653,5.174-0.812,5.174-0.812s0.352,0.124,0-2.159c0,0-2.281-20.808-13.676-35.242l-7.48-5.798
		c0,0-7.537-0.341-14.961,8.639C659.74,255.464,655.296,260.594,649.917,266.913z"/>
	<path fill="#259DC4" stroke="#FFFFFF" stroke-width="0.7901" stroke-miterlimit="10" d="M677.342,290.402
		c0,0,0.916-1.612,4.059-1.944c0,0,2.205-0.163,4.844-1.901c0,0,5.444-3.517,9.019-1.207"/>
	<path fill="#259DC4" stroke="#FFFFFF" stroke-width="0.7901" stroke-miterlimit="10" d="M675.689,285.771
		c0,0,2.128,0.414,4.892-2.151c0,0,7.085-6.747,13.731-2.631"/>
	<path fill="#259DC4" stroke="#FFFFFF" stroke-width="0.7901" stroke-miterlimit="10" d="M673.911,282.727
		c0,0,7.622-9.172,19.169-6.751"/>
	<path fill="#259DC4" stroke="#FFFFFF" stroke-width="0.7901" stroke-miterlimit="10" d="M670.404,279.916
		c0,0,2.809-6.381,8.688-6.877c0,0,4.276-0.124,7.555-1.82c0,0,2.488-1.24,4.791-0.229"/>
	<path fill="#259DC4" stroke="#FFFFFF" stroke-width="0.7901" stroke-miterlimit="10" d="M665.211,275.255
		c0,0,1.713,0.014,3.354-1.995c0,0,2.94-4.354,9.53-4.592c0,0,4.695-0.041,7.802-2.108c0,0,2.109-1.488,3.412-1.039"/>
	<path fill="#259DC4" stroke="#FFFFFF" stroke-width="0.7901" stroke-miterlimit="10" d="M662.054,270.502c0,0,2.33-3.8,7.987-3.8
		c0,0,4.466,0.278,8.082-2.538c0,0,4.778-4.085,8.69-3.854"/>
	<path fill="#259DC4" stroke="#FFFFFF" stroke-width="0.7901" stroke-miterlimit="10" d="M684.859,257.026
		c0,0-2.794-1.18-11.998,4.261c0,0-3.241,1.942-5.182,1.942c0,0-1.655-6.023-8.51-6.555"/>
	<path fill="#259DC4" stroke="#FFFFFF" stroke-width="0.7901" stroke-miterlimit="10" d="M682.54,253.638
		c0,0-2.697-0.999-5.28,0.554c0,0-1.161-4.913-7.601-5.896"/>
	<path fill="#259DC4" stroke="#FFFFFF" stroke-width="0.7901" stroke-miterlimit="10" d="M661.679,253.84
		c0,0,7.011-0.249,9.14,6.686"/>
	<path fill="#259DC4" stroke="#FFFFFF" stroke-width="0.7901" stroke-miterlimit="10" d="M664.885,251.014
		c0,0,7.006-0.712,9.549,6.604"/>
	<path fill="none" stroke="#FFFFFF" stroke-width="0.7901" stroke-miterlimit="10" d="M677.868,249.278c0,0,3.356,5.26-9.617,13.599
		c0,0-4.409,3.501-7.034,6.464"/>
	<path fill="#259DC4" stroke="#FFFFFF" stroke-width="0.7901" stroke-miterlimit="10" d="M656.518,259.753
		c0,0,5.295-0.249,7.74,6.002"/>
	<path fill="#259DC4" stroke="#FFFFFF" stroke-width="0.7901" stroke-miterlimit="10" d="M653.908,262.794
		c0,0,5.262,0.616,7.054,6.819"/>
	<path fill="#259DC4" stroke="#FFFFFF" stroke-width="0.7901" stroke-miterlimit="10" d="M658.283,271.82
		c0,0-1.91,0.107-2.842-2.536c0,0-1.157-3.541-4.323-3.278"/>
	<path fill="#259DC4" stroke="#FFFFFF" stroke-width="0.9335" stroke-miterlimit="10" d="M629.12,225.849
		c0,0-0.271,4.429-2.295,8.432h-3.069c0,0,2.087-4.133,2.706-9.894L629.12,225.849z"/>
	<path fill="#259DC4" stroke="#FFFFFF" stroke-width="0.7901" stroke-miterlimit="10" d="M672.133,246.648
		c-1.034-4.349-8.185-2.35-8.185-2.35c-4.646,0.938-6.509-0.166-6.509-0.166c-1.435-0.854-0.75-2.691-0.75-2.691
		c0.258-0.958,0.215-1.285,0.215-1.285c-0.021-0.979-0.558-1.446-0.558-1.446c-0.02-0.209,0.985-1.03,0.985-1.03
		c-0.92-0.459-1.392-1.208-1.392-1.208c0.813-0.604,0.834-1.124,0.834-1.124c0.216-0.584-0.941-0.957-0.941-0.957
		c-1.422-0.479-1.413-1-1.413-1c-0.215-0.875,3.641-2.955,3.641-2.955c1.412-1,1.281-2.623,1.281-2.623
		c0.085-3.582,1.459-5.581,1.459-5.581l19.355,4.581l0.427,18.985l-3.323,4.747L672.133,246.648z"/>
	<path fill="#259DC4" stroke="#FFFFFF" stroke-width="0.5644" stroke-miterlimit="10" d="M662.941,223.994
		c-0.741,1.985,0.592,4.521,0.592,4.521c-6.158-2.793-3.607-7.683-3.607-7.683c-4.177,0.984-2.872,5.844-2.872,5.844
		c-3.361-5.25,1.508-7.958,1.508-7.958s2.105-1.27,5.387-0.632c0,0,7.085-5.75,16.519-0.611c0,0,6.421,3.617,5.796,11.743
		c0,0-0.059,2.324-1.079,6.05c0,0-2.261,8.631,3.792,12.029c0,0-1.884,0.667-4.116-0.125c0,0,2.227,4.674,8.079,2.905
		c0,0-0.904,3.122-6.985,2.183c0,0,1.022,2.018,4.006,2.101c0,0-2.342,2.378-8.393-0.522c0,0-1.133-0.515-4.624-3.293
		c0,0-3.768-2.956-10.146-1.638c0,0,4.21-1.555,5.149-3.498c0,0-1.656,2.268-4.572,1.1c0,0,2.294-0.717,2.777-1.739
		c0,0-1.67,0.168-2.777-0.664c0,0,4.001-0.438,4.938-4.169c0,0-1.921,0.644-3.268-0.028c0,0,2.249-0.106,3.121-3.306
		c0,0-3.784-1.138-3.827-6.294c0,0-4.079-1.086-5.259-5.927L662.941,223.994z"/>
</g>
</svg>
