<?xml version="1.0" encoding="utf-8"?>
<!-- Generator: Adobe Illustrator 16.0.0, SVG Export Plug-In . SVG Version: 6.00 Build 0)  -->
<!DOCTYPE svg PUBLIC "-//W3C//DTD SVG 1.1//EN" "http://www.w3.org/Graphics/SVG/1.1/DTD/svg11.dtd">
<svg version="1.1" id="Layer_1" xmlns="http://www.w3.org/2000/svg" xmlns:xlink="http://www.w3.org/1999/xlink" x="0px" y="0px"
	 width="200px" height="120px" viewBox="270 120 200 120" enable-background="new 270 120 200 120" xml:space="preserve">
<g>
	<path fill="#4B3A22" stroke="#FFFFFF" stroke-width="2" stroke-miterlimit="10" d="M280.099,214h179.09
		c0,0-0.189-24.439-11.189-34.188v-23.642l-11.042-23.29l-67.625-4.811c0,0-22.269,8.562-36.673,37.412c0,0-52.3,2.699-52.3,30.799
		L280.099,214z"/>
	
		<line fill="none" stroke="#FFFFFF" stroke-width="1.7959" stroke-miterlimit="10" x1="333.466" y1="165.482" x2="333.466" y2="207.503"/>
	
		<line fill="none" stroke="#FFFFFF" stroke-width="1.7959" stroke-miterlimit="10" x1="385.923" y1="158.918" x2="385.923" y2="210.623"/>
	<path fill="#4B3A22" stroke="#FFFFFF" stroke-width="1.7959" stroke-miterlimit="10" d="M406.425,210.889
		c0,0,0-20.77,19.296-22.996v-32.541"/>
	<path fill="#4B3A22" stroke="#FFFFFF" stroke-width="2" stroke-miterlimit="10" d="M460.328,206.483
		C465.134,211.836,461,214,461,214H276.484l2.26-6.402L460.328,206.483z"/>
	<path fill="#4B3A22" stroke="#FFFFFF" stroke-width="1.7959" stroke-miterlimit="10" d="M338.503,210.591
		c0,10.159-8.355,18.396-18.661,18.396c-10.312,0-18.664-8.236-18.664-18.396s8.352-18.394,18.664-18.394
		C330.148,192.197,338.503,200.432,338.503,210.591z"/>
	<path fill="#4B3A22" stroke="#FFFFFF" stroke-width="1.7959" stroke-miterlimit="10" d="M327.649,210.591
		c0,4.332-3.561,7.849-7.958,7.849c-4.395,0-7.958-3.517-7.958-7.849c0-4.329,3.563-7.842,7.958-7.842
		C324.089,202.749,327.649,206.262,327.649,210.591z"/>
	<path fill="#4B3A22" stroke="#FFFFFF" stroke-width="1.7959" stroke-miterlimit="10" d="M414.579,200.517
		c5.646-8.501,17.216-10.876,25.836-5.309c8.623,5.564,11.03,16.965,5.386,25.466c-5.648,8.496-17.217,10.874-25.841,5.308
		C411.341,220.413,408.93,209.011,414.579,200.517z"/>
	<path fill="#4B3A22" stroke="#FFFFFF" stroke-width="1.7959" stroke-miterlimit="10" d="M424.02,206.296
		c2.41-3.625,7.34-4.638,11.018-2.265c3.677,2.375,4.704,7.237,2.296,10.858c-2.41,3.625-7.342,4.642-11.019,2.266
		C422.639,214.78,421.611,209.92,424.02,206.296z"/>
	<path fill="#4B3A22" stroke="#FFFFFF" stroke-width="1.7959" stroke-miterlimit="10" d="M345.226,163.969
		c0,0,5.876-15.748,26.75-27.337l45.604,1.781c0,0,3.923,7.274,7.542,16.346C425.124,154.759,384.957,158.337,345.226,163.969z"/>
</g>
</svg>
