<?xml version="1.0" encoding="utf-8"?>
<!-- Generator: Adobe Illustrator 16.0.0, SVG Export Plug-In . SVG Version: 6.00 Build 0)  -->
<!DOCTYPE svg PUBLIC "-//W3C//DTD SVG 1.1//EN" "http://www.w3.org/Graphics/SVG/1.1/DTD/svg11.dtd">
<svg version="1.1" id="Layer_1" xmlns="http://www.w3.org/2000/svg" xmlns:xlink="http://www.w3.org/1999/xlink" x="0px" y="0px"
	 width="740px" height="360px" viewBox="0 0 740 360" enable-background="new 0 0 740 360" xml:space="preserve">
<g>
	<path fill="#4B3A22" stroke="#FFFFFF" stroke-width="2" stroke-miterlimit="10" d="M40.099,328h179.09
		c0,0-0.189-24.44-11.189-34.188v-23.641l-11.042-23.29l-67.625-4.81c0,0-22.269,8.561-36.673,37.412c0,0-52.3,2.699-52.3,30.798
		L40.099,328z"/>
	
		<line fill="#4B3A22" stroke="#FFFFFF" stroke-width="1.7959" stroke-miterlimit="10" x1="93.466" y1="279.483" x2="93.466" y2="321.503"/>
	
		<line fill="#4B3A22" stroke="#FFFFFF" stroke-width="1.7959" stroke-miterlimit="10" x1="145.923" y1="272.918" x2="145.923" y2="324.623"/>
	<path fill="#4B3A22" stroke="#FFFFFF" stroke-width="1.7959" stroke-miterlimit="10" d="M166.425,324.889
		c0,0,0-20.77,19.296-22.996v-32.541"/>
	<path fill="#4B3A22" stroke="#FFFFFF" stroke-width="2" stroke-miterlimit="10" d="M220.328,320.483
		C225.134,325.836,221,328,221,328H36.484l2.26-6.402L220.328,320.483z"/>
	<path fill="#4B3A22" stroke="#FFFFFF" stroke-width="1.7959" stroke-miterlimit="10" d="M98.503,324.591
		c0,10.159-8.355,18.396-18.661,18.396c-10.312,0-18.664-8.236-18.664-18.396s8.352-18.394,18.664-18.394
		C90.148,306.197,98.503,314.432,98.503,324.591z"/>
	<path fill="#4B3A22" stroke="#FFFFFF" stroke-width="1.7959" stroke-miterlimit="10" d="M87.649,324.591
		c0,4.332-3.561,7.848-7.958,7.848c-4.395,0-7.958-3.516-7.958-7.848c0-4.329,3.563-7.842,7.958-7.842
		C84.089,316.749,87.649,320.262,87.649,324.591z"/>
	<path fill="#4B3A22" stroke="#FFFFFF" stroke-width="1.7959" stroke-miterlimit="10" d="M174.579,314.517
		c5.646-8.501,17.216-10.877,25.836-5.309c8.623,5.564,11.03,16.965,5.386,25.466c-5.648,8.496-17.217,10.874-25.841,5.307
		C171.341,334.413,168.93,323.011,174.579,314.517z"/>
	<path fill="#4B3A22" stroke="#FFFFFF" stroke-width="1.7959" stroke-miterlimit="10" d="M184.02,320.296
		c2.41-3.625,7.339-4.638,11.017-2.265c3.677,2.375,4.704,7.238,2.296,10.859c-2.41,3.625-7.342,4.641-11.018,2.265
		C182.639,328.78,181.611,323.92,184.02,320.296z"/>
	<path fill="#4B3A22" stroke="#FFFFFF" stroke-width="1.7959" stroke-miterlimit="10" d="M105.226,277.969
		c0,0,5.876-15.749,26.751-27.337l45.604,1.781c0,0,3.923,7.274,7.542,16.346C185.124,268.759,144.957,272.337,105.226,277.969z"/>
</g>
</svg>
